<mxfile host="Electron" agent="Mozilla/5.0 (Windows NT 10.0; Win64; x64) AppleWebKit/537.36 (KHTML, like Gecko) draw.io/28.2.8 Chrome/140.0.7339.240 Electron/38.4.0 Safari/537.36" version="28.2.8">
  <diagram name="第 1 页" id="UvhFEIDjqoQEIjBaLnBD">
    <mxGraphModel dx="1880" dy="1556" grid="1" gridSize="10" guides="1" tooltips="1" connect="1" arrows="1" fold="1" page="1" pageScale="1" pageWidth="827" pageHeight="1169" math="0" shadow="0">
      <root>
        <mxCell id="0" />
        <mxCell id="1" parent="0" />
        <mxCell id="ZYdIE-EWWeY78ESIAKIQ-6" value="" style="rounded=0;whiteSpace=wrap;html=1;strokeColor=none;" parent="1" vertex="1">
          <mxGeometry width="1400" height="900" as="geometry" />
        </mxCell>
        <mxCell id="ZYdIE-EWWeY78ESIAKIQ-1" value="" style="rounded=0;whiteSpace=wrap;html=1;strokeColor=none;" parent="1" vertex="1">
          <mxGeometry x="40" y="40" width="1320" height="820" as="geometry" />
        </mxCell>
        <mxCell id="ZYdIE-EWWeY78ESIAKIQ-2" value="&lt;font&gt;中华人民共和国个人业余电台&lt;/font&gt;" style="text;html=1;whiteSpace=wrap;strokeColor=none;fillColor=none;align=center;verticalAlign=middle;rounded=0;fontFamily=Noto Serif CJK SC;fontStyle=1;fontSize=64;" parent="1" vertex="1">
          <mxGeometry x="200" y="40" width="980" height="90" as="geometry" />
        </mxCell>
        <mxCell id="ZYdIE-EWWeY78ESIAKIQ-3" value="&lt;font&gt;PERSONAL AMATEUR RADIO STATION OF P.R. CHINA&lt;/font&gt;" style="text;html=1;whiteSpace=wrap;strokeColor=none;fillColor=none;align=center;verticalAlign=middle;rounded=0;fontFamily=Times New Roman;fontStyle=1;fontSize=32;" parent="1" vertex="1">
          <mxGeometry x="200" y="130" width="980" height="60" as="geometry" />
        </mxCell>
        <mxCell id="ZYdIE-EWWeY78ESIAKIQ-5" value="&lt;font style=&quot;font-size: 32px;&quot; face=&quot;Times New Roman&quot;&gt;FROM:&amp;nbsp; &amp;nbsp;&lt;/font&gt;&lt;font style=&quot;font-size: 64px;&quot; face=&quot;Times New Roman&quot;&gt;BD1CZP&lt;/font&gt;" style="text;html=1;whiteSpace=wrap;strokeColor=none;fillColor=none;align=right;verticalAlign=middle;rounded=0;fontFamily=Noto Serif CJK SC Black;fontStyle=1" parent="1" vertex="1">
          <mxGeometry x="690" y="190" width="420" height="90" as="geometry" />
        </mxCell>
        <mxCell id="ZYdIE-EWWeY78ESIAKIQ-8" value="&lt;font style=&quot;font-size: 24px;&quot;&gt;&lt;font face=&quot;Times New Roman&quot;&gt;DATE / &lt;/font&gt;&lt;font face=&quot;Noto Serif CJK SC&quot;&gt;日期&lt;/font&gt;&lt;/font&gt;" style="rounded=0;whiteSpace=wrap;html=1;strokeWidth=2;fontStyle=1" parent="1" vertex="1">
          <mxGeometry x="40" y="370" width="360" height="60" as="geometry" />
        </mxCell>
        <mxCell id="ZYdIE-EWWeY78ESIAKIQ-10" value="&lt;font style=&quot;font-size: 24px;&quot;&gt;&lt;font face=&quot;Times New Roman&quot;&gt;TIME / &lt;/font&gt;&lt;font face=&quot;Noto Serif CJK SC&quot;&gt;时间&lt;/font&gt;&lt;/font&gt;" style="rounded=0;whiteSpace=wrap;html=1;strokeWidth=2;fontStyle=1" parent="1" vertex="1">
          <mxGeometry x="400" y="370" width="360" height="60" as="geometry" />
        </mxCell>
        <mxCell id="ZYdIE-EWWeY78ESIAKIQ-11" value="&lt;font style=&quot;font-size: 24px;&quot;&gt;&lt;font face=&quot;Times New Roman&quot;&gt;MHz / &lt;/font&gt;&lt;font face=&quot;Noto Serif CJK SC&quot;&gt;频率&lt;/font&gt;&lt;/font&gt;" style="rounded=0;whiteSpace=wrap;html=1;strokeWidth=2;fontStyle=1" parent="1" vertex="1">
          <mxGeometry x="760" y="370" width="200" height="60" as="geometry" />
        </mxCell>
        <mxCell id="ZYdIE-EWWeY78ESIAKIQ-12" value="&lt;font face=&quot;Times New Roman&quot;&gt;&lt;font style=&quot;font-size: 24px;&quot;&gt;MODE&lt;/font&gt;&lt;span style=&quot;font-size: 24px; background-color: transparent; color: light-dark(rgb(0, 0, 0), rgb(255, 255, 255));&quot;&gt;&amp;nbsp;/ &lt;/span&gt;&lt;/font&gt;&lt;span style=&quot;font-size: 24px; font-family: &amp;quot;Noto Serif CJK SC&amp;quot;; background-color: transparent; color: light-dark(rgb(0, 0, 0), rgb(255, 255, 255));&quot;&gt;模式&lt;/span&gt;" style="rounded=0;whiteSpace=wrap;html=1;strokeWidth=2;fontStyle=1" parent="1" vertex="1">
          <mxGeometry x="960" y="370" width="200" height="60" as="geometry" />
        </mxCell>
        <mxCell id="ZYdIE-EWWeY78ESIAKIQ-13" value="&lt;font style=&quot;font-size: 24px;&quot;&gt;&lt;font face=&quot;Times New Roman&quot;&gt;RST / &lt;/font&gt;&lt;font face=&quot;Noto Serif CJK SC&quot;&gt;信号报告&lt;/font&gt;&lt;/font&gt;" style="rounded=0;whiteSpace=wrap;html=1;strokeWidth=2;fontStyle=1" parent="1" vertex="1">
          <mxGeometry x="1160" y="370" width="200" height="60" as="geometry" />
        </mxCell>
        <mxCell id="ZYdIE-EWWeY78ESIAKIQ-14" value="" style="rounded=0;whiteSpace=wrap;html=1;strokeWidth=2;fontStyle=1" parent="1" vertex="1">
          <mxGeometry x="1160" y="430" width="200" height="120" as="geometry" />
        </mxCell>
        <mxCell id="ZYdIE-EWWeY78ESIAKIQ-15" value="" style="rounded=0;whiteSpace=wrap;html=1;strokeWidth=2;fontStyle=1" parent="1" vertex="1">
          <mxGeometry x="960" y="430" width="200" height="120" as="geometry" />
        </mxCell>
        <mxCell id="ZYdIE-EWWeY78ESIAKIQ-16" value="" style="rounded=0;whiteSpace=wrap;html=1;strokeWidth=2;fontStyle=1" parent="1" vertex="1">
          <mxGeometry x="760" y="430" width="200" height="120" as="geometry" />
        </mxCell>
        <mxCell id="ZYdIE-EWWeY78ESIAKIQ-17" value="&lt;font style=&quot;font-size: 24px;&quot;&gt;&lt;font face=&quot;Times New Roman&quot;&gt;UTC / &lt;/font&gt;&lt;font face=&quot;Noto Serif CJK SC&quot;&gt;世界时&lt;/font&gt;&lt;/font&gt;" style="rounded=0;whiteSpace=wrap;html=1;strokeWidth=2;fontStyle=1" parent="1" vertex="1">
          <mxGeometry x="400" y="430" width="180" height="60" as="geometry" />
        </mxCell>
        <mxCell id="ZYdIE-EWWeY78ESIAKIQ-18" value="&lt;font style=&quot;font-size: 24px;&quot;&gt;&lt;font face=&quot;Times New Roman&quot;&gt;CST / &lt;/font&gt;&lt;font face=&quot;Noto Serif CJK SC&quot;&gt;中国时&lt;/font&gt;&lt;/font&gt;" style="rounded=0;whiteSpace=wrap;html=1;strokeWidth=2;fontStyle=1" parent="1" vertex="1">
          <mxGeometry x="580" y="430" width="180" height="60" as="geometry" />
        </mxCell>
        <mxCell id="ZYdIE-EWWeY78ESIAKIQ-19" value="" style="rounded=0;whiteSpace=wrap;html=1;strokeWidth=2;fontStyle=1" parent="1" vertex="1">
          <mxGeometry x="580" y="490" width="180" height="60" as="geometry" />
        </mxCell>
        <mxCell id="ZYdIE-EWWeY78ESIAKIQ-20" value="" style="rounded=0;whiteSpace=wrap;html=1;strokeWidth=2;fontStyle=1" parent="1" vertex="1">
          <mxGeometry x="400" y="490" width="180" height="60" as="geometry" />
        </mxCell>
        <mxCell id="ZYdIE-EWWeY78ESIAKIQ-21" value="&lt;span style=&quot;font-size: 24px;&quot;&gt;&lt;font face=&quot;Times New Roman&quot;&gt;D / &lt;/font&gt;&lt;/span&gt;&lt;span style=&quot;font-family: &amp;quot;Noto Serif CJK SC&amp;quot;; font-size: 24px;&quot;&gt;日&lt;/span&gt;" style="rounded=0;whiteSpace=wrap;html=1;strokeWidth=2;fontStyle=1" parent="1" vertex="1">
          <mxGeometry x="40" y="430" width="120" height="60" as="geometry" />
        </mxCell>
        <mxCell id="ZYdIE-EWWeY78ESIAKIQ-22" value="&lt;span style=&quot;font-size: 24px;&quot;&gt;&lt;font face=&quot;Times New Roman&quot;&gt;Y / &lt;/font&gt;&lt;/span&gt;&lt;span style=&quot;font-family: &amp;quot;Noto Serif CJK SC&amp;quot;; font-size: 24px;&quot;&gt;年&lt;/span&gt;" style="rounded=0;whiteSpace=wrap;html=1;strokeWidth=2;fontStyle=1" parent="1" vertex="1">
          <mxGeometry x="280" y="430" width="120" height="60" as="geometry" />
        </mxCell>
        <mxCell id="ZYdIE-EWWeY78ESIAKIQ-23" value="&lt;span style=&quot;font-size: 24px;&quot;&gt;&lt;font face=&quot;Times New Roman&quot;&gt;M / &lt;/font&gt;&lt;/span&gt;&lt;span style=&quot;font-family: &amp;quot;Noto Serif CJK SC&amp;quot;; font-size: 24px;&quot;&gt;月&lt;/span&gt;" style="rounded=0;whiteSpace=wrap;html=1;strokeWidth=2;fontStyle=1" parent="1" vertex="1">
          <mxGeometry x="160" y="430" width="120" height="60" as="geometry" />
        </mxCell>
        <mxCell id="ZYdIE-EWWeY78ESIAKIQ-24" value="" style="rounded=0;whiteSpace=wrap;html=1;strokeWidth=2;fontStyle=1" parent="1" vertex="1">
          <mxGeometry x="40" y="490" width="120" height="60" as="geometry" />
        </mxCell>
        <mxCell id="ZYdIE-EWWeY78ESIAKIQ-25" value="" style="rounded=0;whiteSpace=wrap;html=1;strokeWidth=2;fontStyle=1" parent="1" vertex="1">
          <mxGeometry x="280" y="490" width="120" height="60" as="geometry" />
        </mxCell>
        <mxCell id="ZYdIE-EWWeY78ESIAKIQ-26" value="" style="rounded=0;whiteSpace=wrap;html=1;strokeWidth=2;fontStyle=1" parent="1" vertex="1">
          <mxGeometry x="160" y="490" width="120" height="60" as="geometry" />
        </mxCell>
        <mxCell id="ZYdIE-EWWeY78ESIAKIQ-27" value="&lt;font style=&quot;font-size: 24px;&quot;&gt;&lt;font face=&quot;Times New Roman&quot;&gt;TRX / &lt;/font&gt;&lt;font face=&quot;Noto Serif CJK SC&quot;&gt;设备&lt;/font&gt;&lt;/font&gt;" style="rounded=0;whiteSpace=wrap;html=1;strokeWidth=2;fontStyle=1" parent="1" vertex="1">
          <mxGeometry x="40" y="550" width="240" height="60" as="geometry" />
        </mxCell>
        <mxCell id="ZYdIE-EWWeY78ESIAKIQ-28" value="&lt;span style=&quot;font-size: 24px;&quot;&gt;&lt;font face=&quot;Times New Roman&quot;&gt;POWER / &lt;/font&gt;&lt;/span&gt;&lt;span style=&quot;font-family: &amp;quot;Noto Serif CJK SC&amp;quot;; font-size: 24px;&quot;&gt;功率&lt;/span&gt;" style="rounded=0;whiteSpace=wrap;html=1;strokeWidth=2;fontStyle=1" parent="1" vertex="1">
          <mxGeometry x="280" y="550" width="240" height="60" as="geometry" />
        </mxCell>
        <mxCell id="ZYdIE-EWWeY78ESIAKIQ-29" value="&lt;span style=&quot;font-size: 24px;&quot;&gt;&lt;font face=&quot;Times New Roman&quot;&gt;ANT / &lt;/font&gt;&lt;font face=&quot;Noto Serif CJK SC&quot;&gt;天线&lt;/font&gt;&lt;/span&gt;" style="rounded=0;whiteSpace=wrap;html=1;strokeWidth=2;fontStyle=1" parent="1" vertex="1">
          <mxGeometry x="520" y="550" width="240" height="60" as="geometry" />
        </mxCell>
        <mxCell id="ZYdIE-EWWeY78ESIAKIQ-30" value="" style="rounded=0;whiteSpace=wrap;html=1;strokeWidth=2;fontStyle=1" parent="1" vertex="1">
          <mxGeometry x="40" y="610" width="240" height="120" as="geometry" />
        </mxCell>
        <mxCell id="ZYdIE-EWWeY78ESIAKIQ-31" value="" style="rounded=0;whiteSpace=wrap;html=1;strokeWidth=2;fontStyle=1" parent="1" vertex="1">
          <mxGeometry x="280" y="610" width="240" height="120" as="geometry" />
        </mxCell>
        <mxCell id="ZYdIE-EWWeY78ESIAKIQ-32" value="" style="rounded=0;whiteSpace=wrap;html=1;strokeWidth=2;fontStyle=1" parent="1" vertex="1">
          <mxGeometry x="520" y="610" width="240" height="120" as="geometry" />
        </mxCell>
        <mxCell id="ZYdIE-EWWeY78ESIAKIQ-34" value="18#, Dexiang Road, Daxing, Beijing, P.R. China." style="text;html=1;whiteSpace=wrap;strokeColor=none;fillColor=none;align=left;verticalAlign=middle;rounded=0;fontFamily=Times New Roman;fontStyle=1;fontSize=24;" parent="1" vertex="1">
          <mxGeometry x="76" y="750" width="500" height="40" as="geometry" />
        </mxCell>
        <mxCell id="ZYdIE-EWWeY78ESIAKIQ-35" value="北京市大兴区德祥路&amp;nbsp;&lt;font face=&quot;Times New Roman&quot;&gt;18&amp;nbsp;&lt;/font&gt;号院熙悦林语&amp;nbsp;&lt;font face=&quot;Times New Roman&quot;&gt;C&amp;nbsp;&lt;/font&gt;区" style="text;html=1;whiteSpace=wrap;strokeColor=none;fillColor=none;align=left;verticalAlign=middle;rounded=0;fontFamily=Noto Serif CJK SC;fontStyle=1;fontSize=24;" parent="1" vertex="1">
          <mxGeometry x="76" y="790" width="495" height="40" as="geometry" />
        </mxCell>
        <mxCell id="ZYdIE-EWWeY78ESIAKIQ-36" value="&lt;span style=&quot;background-color: transparent; color: light-dark(rgb(0, 0, 0), rgb(255, 255, 255)); font-size: 24px;&quot;&gt;&lt;font face=&quot;Times New Roman&quot;&gt;PSE / &lt;/font&gt;&lt;/span&gt;&lt;span style=&quot;background-color: transparent; color: light-dark(rgb(0, 0, 0), rgb(255, 255, 255)); font-family: &amp;quot;Noto Serif CJK SC&amp;quot;; font-size: 24px;&quot;&gt;请回卡片&amp;nbsp; &amp;nbsp; &amp;nbsp; &amp;nbsp; &amp;nbsp; &amp;nbsp;&amp;nbsp;&lt;/span&gt;&lt;span style=&quot;background-color: transparent; color: light-dark(rgb(0, 0, 0), rgb(255, 255, 255)); font-size: 24px;&quot;&gt;&lt;font face=&quot;Times New Roman&quot;&gt;TNX / &lt;/font&gt;&lt;/span&gt;&lt;span style=&quot;background-color: transparent; color: light-dark(rgb(0, 0, 0), rgb(255, 255, 255)); font-family: &amp;quot;Noto Serif CJK SC&amp;quot;; font-size: 24px;&quot;&gt;感谢你的卡片&lt;/span&gt;" style="rounded=0;whiteSpace=wrap;html=1;strokeWidth=2;fontStyle=1;align=center;spacingLeft=12;" parent="1" vertex="1">
          <mxGeometry x="760" y="550" width="600" height="60" as="geometry" />
        </mxCell>
        <mxCell id="ZYdIE-EWWeY78ESIAKIQ-37" value="" style="rounded=0;whiteSpace=wrap;html=1;strokeWidth=2;fontStyle=1" parent="1" vertex="1">
          <mxGeometry x="760" y="610" width="600" height="120" as="geometry" />
        </mxCell>
        <mxCell id="ZYdIE-EWWeY78ESIAKIQ-38" value="" style="rounded=0;whiteSpace=wrap;html=1;strokeWidth=2;" parent="1" vertex="1">
          <mxGeometry x="810" y="570" width="20" height="20" as="geometry" />
        </mxCell>
        <mxCell id="ZYdIE-EWWeY78ESIAKIQ-39" value="" style="rounded=0;whiteSpace=wrap;html=1;strokeWidth=2;" parent="1" vertex="1">
          <mxGeometry x="1040" y="570" width="20" height="20" as="geometry" />
        </mxCell>
        <mxCell id="ZYdIE-EWWeY78ESIAKIQ-43" value="&lt;font face=&quot;Times New Roman&quot;&gt;https://leovan.me&lt;/font&gt;" style="text;html=1;whiteSpace=wrap;strokeColor=none;fillColor=none;align=left;verticalAlign=middle;rounded=0;fontFamily=Noto Serif CJK SC;fontStyle=1;fontSize=24;" parent="1" vertex="1">
          <mxGeometry x="76" y="830" width="200" height="40" as="geometry" />
        </mxCell>
        <mxCell id="ZYdIE-EWWeY78ESIAKIQ-47" value="" style="shape=image;verticalLabelPosition=bottom;labelBackgroundColor=default;verticalAlign=top;aspect=fixed;imageAspect=0;editableCssRules=.*;image=data:image/svg+xml,PHN2ZyB4bWxucz0iaHR0cDovL3d3dy53My5vcmcvMjAwMC9zdmciIHZpZXdCb3g9IjAgMCAyNCAyNCIgaGVpZ2h0PSIyNCIgd2lkdGg9IjI0Ij48cmVjdCBmaWxsPSJub25lIiBoZWlnaHQ9IjI0IiB3aWR0aD0iMjQiLz48cGF0aCBkPSJNMTIgMTVxMS4yNSAwIDIuMTI1LS44NzVUMTUgMTJ0LS44NzUtMi4xMjVUMTIgOXQtMi4xMjUuODc1VDkgMTJ0Ljg3NSAyLjEyNVQxMiAxNW0wIDFxLTEuNDUgMC0yLjgxMi40MTNUNi42IDE3LjZxLS4zLjE3NS0uNDUuNDc1dC0uMTUuNjVWMTloMTJ2LS4yNzVxMC0uMzUtLjE1LS42NXQtLjQ1LS40NzVxLTEuMjI1LS43NzUtMi41ODctMS4xODdUMTIgMTZtLTYgNXEtLjgyNSAwLTEuNDEyLS41ODdUNCAxOXYtOXEwLS40NzUuMjEzLS45dC41ODctLjdsNi00LjVxLjUyNS0uNCAxLjItLjR0MS4yLjRsNiA0LjVxLjM3NS4yNzUuNTg4LjdUMjAgMTB2OXEwIC44MjUtLjU4OCAxLjQxM1QxOCAyMXoiIGZpbGw9IiMwMDAiLz48L3N2Zz4=;" parent="1" vertex="1">
          <mxGeometry x="40" y="834" width="32" height="32" as="geometry" />
        </mxCell>
        <mxCell id="ZYdIE-EWWeY78ESIAKIQ-48" value="" style="shape=image;verticalLabelPosition=bottom;labelBackgroundColor=default;verticalAlign=top;aspect=fixed;imageAspect=0;editableCssRules=.*;image=data:image/svg+xml,PHN2ZyB4bWxucz0iaHR0cDovL3d3dy53My5vcmcvMjAwMC9zdmciIHZpZXdCb3g9IjAgMCAyNCAyNCIgaGVpZ2h0PSIyNCIgd2lkdGg9IjI0Ij48cmVjdCBmaWxsPSJub25lIiBoZWlnaHQ9IjI0IiB3aWR0aD0iMjQiLz48cGF0aCBkPSJNNSAyMXEtLjgyNSAwLTEuNDEyLS41ODdUMyAxOVY1cTAtLjgyNS41ODgtMS40MTJUNSAzaDE0cS44MjUgMCAxLjQxMy41ODhUMjEgNXYxNHEwIC44MjUtLjU4NyAxLjQxM1QxOSAyMXptNy0zcTIuNDI1LTIuMDUgMy42MTMtMy44MTJ0MS4xODctMy4yNjNxMC0yLjI3NS0xLjQ1LTMuNlQxMiA2VDguNjUgNy4zMjV0LTEuNDUgMy42cTAgMS41IDEuMTg4IDMuMjYzVDEyIDE4bTAtNS43NXEtLjUyNSAwLS44ODgtLjM2M1QxMC43NSAxMXQuMzYzLS44ODhUMTIgOS43NXQuODg4LjM2M3QuMzYyLjg4N3QtLjM2My44ODh0LS44ODcuMzYyIiBmaWxsPSIjMDAwIi8+PC9zdmc+;" parent="1" vertex="1">
          <mxGeometry x="40" y="794" width="32" height="32" as="geometry" />
        </mxCell>
        <mxCell id="ZYdIE-EWWeY78ESIAKIQ-49" value="" style="shape=image;verticalLabelPosition=bottom;labelBackgroundColor=default;verticalAlign=top;aspect=fixed;imageAspect=0;editableCssRules=.*;image=data:image/svg+xml,PHN2ZyB4bWxucz0iaHR0cDovL3d3dy53My5vcmcvMjAwMC9zdmciIHZpZXdCb3g9IjAgMCAyNCAyNCIgaGVpZ2h0PSIyNCIgd2lkdGg9IjI0Ij48cmVjdCBmaWxsPSJub25lIiBoZWlnaHQ9IjI0IiB3aWR0aD0iMjQiLz48cGF0aCBkPSJNNSAyMXEtLjgyNSAwLTEuNDEyLS41ODdUMyAxOVY1cTAtLjgyNS41ODgtMS40MTJUNSAzaDE0cS44MjUgMCAxLjQxMy41ODhUMjEgNXYxNHEwIC44MjUtLjU4NyAxLjQxM1QxOSAyMXptNy0zcTIuNDI1LTIuMDUgMy42MTMtMy44MTJ0MS4xODctMy4yNjNxMC0yLjI3NS0xLjQ1LTMuNlQxMiA2VDguNjUgNy4zMjV0LTEuNDUgMy42cTAgMS41IDEuMTg4IDMuMjYzVDEyIDE4bTAtNS43NXEtLjUyNSAwLS44ODgtLjM2M1QxMC43NSAxMXQuMzYzLS44ODhUMTIgOS43NXQuODg4LjM2M3QuMzYyLjg4N3QtLjM2My44ODh0LS44ODcuMzYyIiBmaWxsPSIjMDAwIi8+PC9zdmc+;" parent="1" vertex="1">
          <mxGeometry x="40" y="754" width="32" height="32" as="geometry" />
        </mxCell>
        <mxCell id="ZYdIE-EWWeY78ESIAKIQ-50" value="" style="shape=image;verticalLabelPosition=bottom;labelBackgroundColor=default;verticalAlign=top;aspect=fixed;imageAspect=0;editableCssRules=.*;image=data:image/svg+xml,PHN2ZyB4bWxucz0iaHR0cDovL3d3dy53My5vcmcvMjAwMC9zdmciIHZpZXdCb3g9IjAgMCAyNCAyNCIgaGVpZ2h0PSIyNCIgd2lkdGg9IjI0Ij48cmVjdCBmaWxsPSJub25lIiBoZWlnaHQ9IjI0IiB3aWR0aD0iMjQiLz48cGF0aCBkPSJNNCAyMHEtLjgyNSAwLTEuNDEyLS41ODdUMiAxOFY2cTAtLjgyNS41ODgtMS40MTJUNCA0aDE2cS44MjUgMCAxLjQxMy41ODhUMjIgNnYxMnEwIC44MjUtLjU4NyAxLjQxM1QyMCAyMHptOC03LjE3NXEuMTI1IDAgLjI2My0uMDM4dC4yNjItLjExMkwxOS42IDguMjVxLjItLjEyNS4zLS4zMTJ0LjEtLjQxM3EwLS41LS40MjUtLjc1VDE4LjcgNi44TDEyIDExTDUuMyA2LjhxLS40NS0uMjc1LS44NzUtLjAxMlQ0IDcuNTI1cTAgLjI1LjEuNDM4dC4zLjI4N2w3LjA3NSA0LjQyNXEuMTI1LjA3NS4yNjMuMTEzdC4yNjIuMDM3IiBmaWxsPSIjMDAwIi8+PC9zdmc+;" parent="1" vertex="1">
          <mxGeometry x="276" y="834" width="32" height="32" as="geometry" />
        </mxCell>
        <mxCell id="ZYdIE-EWWeY78ESIAKIQ-51" value="&lt;font face=&quot;Times New Roman&quot;&gt;leo-van@hotmail.com&lt;/font&gt;" style="text;html=1;whiteSpace=wrap;strokeColor=none;fillColor=none;align=left;verticalAlign=middle;rounded=0;fontFamily=Noto Serif CJK SC;fontStyle=1;fontSize=24;" parent="1" vertex="1">
          <mxGeometry x="312" y="830" width="240" height="40" as="geometry" />
        </mxCell>
        <mxCell id="ZYdIE-EWWeY78ESIAKIQ-54" value="" style="rounded=0;whiteSpace=wrap;html=1;strokeColor=none;" parent="1" vertex="1">
          <mxGeometry x="40" y="40" width="160" height="240" as="geometry" />
        </mxCell>
        <mxCell id="ZYdIE-EWWeY78ESIAKIQ-55" value="" style="rounded=0;whiteSpace=wrap;html=1;strokeColor=none;" parent="1" vertex="1">
          <mxGeometry x="1180" y="40" width="180" height="240" as="geometry" />
        </mxCell>
        <mxCell id="ZYdIE-EWWeY78ESIAKIQ-53" value="" style="shape=image;verticalLabelPosition=bottom;labelBackgroundColor=default;verticalAlign=top;aspect=fixed;imageAspect=0;image=data:image/png,iVBORw0KGgoAAAANSUhEUgAAA+gAAAPoCAYAAABNo9TkAAAgAElEQVR4nOzdeZx7fVnf/1fOSU72yezf773AfbMjm6CCUhCxisVWwV2rFrVF3H5uWK21rdpW1NaqtGJlqRZBwQ1cqAgiikhFFChqWQoIynJze39n+85MJsnJMr8/PnOd70kmmT05J8n7+XjkMTNJJvlkJpnJda7rc10+IiIiIiKSpO8FesDHkl6IiCTLS3oBIiIiIiJz7F8Aa8CfJb0QEUleJukFiIiIyMzyccmAJdx7jgpQOPr8LqAKtIAHHl2nCeSABwAloHN0Ox3gzqPrXJUm8Le4rKW9H/KO7uvDwAGQPTqvcXRe5+gxdYEPAeHR9x0CO7HLG8Du0fd6sesloQbs4R6npM8TgF8D/hHw/xJei4ikQDbpBYiIiMhUygPrwPLRx1XgtqPz7wLKwB24gPUBuEB1HReAp8UTrvC2/h4XiOdwwfrHcY89izsQcBMIcAcDPgrUY9/7CWD/6Pp2sOAeXJB/lvdqh0e3fRfu95A/up33xu5LAXr6rAJ/APwcCs5F5Igy6CIiIjLMwtFpHXg4LoN9Hbj76LwVYBGXBS8ns8SZ1sZl8f0TrpPh1s++DWwD7wF+C5fh/wDwvjGuUS4uC7wT95q6A/f7SxOLEQ4TXYXIHFIGXUREZL7dhQsQ7gTuBzwYl/F+APAgTg4QZXxyuPL00+wBfwT8PvDrwH3jXJRcmVcDjwY+n/QF5+CqYWq4KgwRmSAF6CIiIrPPMq0PAh4LPAL4JFwm/AFHH2V63Af8LvCbwNtxJfIyPX4O+ELgtcDrEl7LKCtHJwXoIhOmAF1ERGT23AE8BJcd/2Tg8UdfL+H2Ksv02cJ1+f4N4FW4/ekyfV4AfDOuJ8BzE17LSZq47SsiMmEK0EVERKZbBlcq+0TgMbgS9UcBtye5KLkSh8Dv4TKtrwc+mOxy5BLyuIMrX3D09Y+Q7sZwHwSeijuw94FklyIyXxSgi4iITJdruLL0JwCfCXzK0Xlq1DY73gX8Nm5P+bsTXotcXgl4BbeC8/+HC9DT7BC4P65BpAJ0kQlSgC4iIpJuOeApwJOBx+H2kN+V6IpkHO7BBeRvwO0vl9nwUOCVuANp5jmkszHcoG1cVc5rkl6IiIiIiEhSyrgGbt8C/C/g/UAXl9HSabZOW7jS9S9DWxJm0WcD99L/O39Jois6ny/DjewTEREREZkra8BXAj8OvIPkA0edxnt6K/CDwMOQWfVsIKT/934vrjP6tHga8D5gOemFiIiIiIiMkw88ENfN+fXA35F80KjTeE8fA34S+Ae4bQsym0rA8xn+HHhGguu6iAcCHwG+NOmFiIiIiIiMwxOB7wDehMrW5+F0gCsRfhYucJPZ9mnAnzP8ufDCBNd1Ueu4vfL/JemFiMwTNYkTEREZHw/4VOCf4d68PzHZ5cgEdHFB2suANwPvSXY5qZc5OoGbDR7gRpJlcNMJHnX0eQnoAJ8A3gvcN/GVnux7gP+Eq44Z9G7guya7nCvRxcUKj016ISLzJHP6VUREROScPg14PPC1Rx9V0jz7/hr4I+DluDFpnQne9zLuYFAP91y7jnuPd8itoPfaiO/NAncDBVxAdl6HRx/vPFrHWR93FyjiRgZmj26nc7TOhx5d5ybwl8DbgTcCfwU0gT2gdYG1jsPDgJ8C/vGIy0PctoZ3TGxFVyeD235Txf1+68kuR2Q+KIMuIiJyNa4DX4Pr3PxPEl6LTMYubr71G3Gl7JcNyqvAHbgg+66jj3fiMsp2GUAFV37cObrsdlzmtosLxu+kP0Cftvd7b8FNMLDAPI3ywPcC34+bvDDKdzCdwTm4588WcD/cgYh3JrsckfkwbX+wRURE0qQMPAn4BuBzcN3YZbbdBP4C+GXgdbjO3CepAjVg6ejz++GeJ7fhAutVXLB9DReQV3DB9klB31llcJn1tLuJq0B4NW4G/PuTXc6pvhT4t5xe+v0rwIvGv5yxsoNOD0cBushEKEAXERE5vwfjytefATwu4bXI+PWA1+Ky5K/h+P7nNVzG+25c9vr60el+3ArAr09ordPktbgM+etx+7TT7km4rPkzz3DdvwSeM97lTIRtYXgMrlpERMZMAbqIiMjZWLb824HPwAVeMrs2gLcBfwa8AbgHly1/NPDluIM0D8YF4Su4DPlVZL1nWQ+3j/w3gd9gehroPQRXqv6NuNL202ziniN741zUBGS4FSs8IsmFiMwTBegiIiInuw33ZvtZuI7sMtv+Gpch/1tcs7dV4Ftxzf4+KbllTbW/wZWu/w7p3VM+zMNwWfBvxTXRO6tnAR8Yy4omy7ZmwK3GfSIiIiIiiXgE8LPAx0h+nrZO4z11cUH5HvAh3F7b7RSsa5pPN3D79D8fV2EwTR4H/A9cg7TzPu5nJ7DecVkDPop7XPvcalIoIiIiIjIxn4UbldUl+SBHp8md2vqdX8npdbhy8GkLygGeDvwSF3/sPzL5JY9VPEDv4hphioiIiIhMxJfhym+TDnB00mnaTn+Na542jVtA1oHvxPUauMzPYNq7tQ/zGFxViT3Gb052OSLzQXvQRURk3n0h8FzgqQmvQ2SafBj4U+CluLnlzURXcz454Cm4cWlfzuUbPv4K8E2XXVQK3QYUY1+vJ7UQkXmiAF1ERObV1wLfAvyDpBciMiUOgVfhxs39Hm6P9jR5MvBFuINxV5Xt/2Pgn17RbaXNXYAf+/rOpBYiMk8UoIuIyLz5Ytwe2acmvA6RafEu3Fi0XwU+mPBazmMJeBDwDNzr/mG47PlVeRsuCz+r7j/w9dLQa4nIlVKALiIi8+KLceOSPjfphYhMgY/hgvLfx2XLp8XtuINvT8A1fXvYmO7n7cAX4Gaez6oHDXw9jY3/RKaOAnQREZl1nwb8a+BLkl6ISMptAX8BvBi3v/zeZJdzJnfgAsnPBj4TN6v+9jHf51twvSt2xnw/SSoADxlynoiMmQJ0ERGZVXcB/xK3z9w/5boi8+yPgT8EXkH6S9gfits//lDcvPInM9nM7uuAr2a2g3NwBz4eM3BeO4mFiMwbBegiIjJrAtzIp28HriW8FpG0+hBuT/nvAv874bUMUwEWgEfiGjk+GrgfLqub1F7olwFfl9B9T9ojOL5ffw2o4kaviciYKEAXEZFZ8kW4cvYnJL0QkRTaxGXKfx14DekYjZbBlaQ/gFvl6o/AZcnvJj1l1f8NNy99XjxlyHmLKEAXGTsF6CIiMgs+Cfh3zO64I5GLCnEl7K84+vjhBNaQw83TfjAu6L4TlxG/hgvKbzs6pdW/A34k6UVM2FOHnNfDjdoTkTFSgC4iItPuO4H/iMvsiIjzNly2/GXA+8Z8X0u4cvRlXBn0NVwPiOu4svQH4rLkFdwWlGnRxm2VeVHSC5mwh+K2FgyjAF1kzBSgi4jItPp04CdwnZtFBP4OeCXwBlxwfllVXJBdwQXaC9zKdldxgfjq0Wnp6OOs+BCuIufPk15IAr4AV/Ew6F5me6ycSCooQBcRkWmTB/4trkN7WvaniiTlHbgmby87+nxQBhdsFYHa0XkruMkG98MF33fg9hcv4oLuJVzGOwDKRx9LY3sE6fMm4FnARxNeR1KeNuL8OurkLjJ2CtBFRGSafDJuRrOawMk8+3tcZvfjwG8B+7gg+xG4JmtZXPCdw2W7F7iV8c6g7SAneSFu20yY9EIS8hDcTPlhBru6i8gYKEAXEZFp8S+BH0TBhUgJt8f7gcBX4PZ+y+XUge9h/vabD/oqXJXSMBuTXIjIvFKALiIiaXcb8HPAM5NeiEhKVIHHJL2IGfIO4JsYvkVgnuSAbzjh8p1JLURknilAFxGRScvj9sPa/nEfNwO5CHSOzjsEGrhGcN+HK98VEblqPw38a6CV9EJS4Ktxf4tHuWdSCxGZZwrQRURkXNZxHaAfePT5Q3EzkO/GZcWt43MG7W0Ukcn6CPBc4FVJLyQlfFyJ/0k+MomFiMw7BegiInJZJVzH508FHoVrUnUncH9cUyp1WheRNPkF4AdwzfbE+TLg0adc528msRCReZdJegEiIjJV7sQ1p3ow7s3co4HH4YL0coLrEhE5zYeAfwe8IumFpEwO+Cvg4Sdcp350+ccmsiKROaYMuoiIjJIFPgU32uyxwCOBh+HK1kVEpsUh8ALgh4DthNeSRt/LycE5uMBcwbnIBChAFxERczeuLP0pwBNxAblK1EVkmr0Z+H7grUkvJKUegSv3P83/GfdCRMRRgC4iMr/uAD4TV6L+OODxwGKiKxIRuRofw2XMfyHphaRYDng5Z9ue9CdjXouIHFGALiIyP+7AlTH+Y1yG/G5cN3URkVmxD7wI+EngEwmv5TwKQHPC9/lfcNuYzmLeZ8SLTIyaxImIzLYn4bqrPwX4HJQhF5HZ9RvA84B3Jb2Qc3o6rqP8JMvIvxh49Rmv+yFcL5L98S1HRIwy6CIis2UFF4x/EW7k2ePQwVgRmW2/h8sG/2HSC7mArwSWcHvlJ+XRuNL2s3otCs5FJkYBuojI9HsMrkzxGbjgfCXZ5YiITMSfAz8CvCbphVzQN+ImZHw70JvQfa7hKg3OMxbztWNai4gMoayKiMj0yeCy48/ANXl7KpBPckEiIhP0TuDHgV9PeiGX8BPAg4FnA5sTus8F4E24yqqz+lvceM1wDOsRkSGUQRcRmR6fgWvu9rW40TgafyYi8+TNwAtxe6dbCa/loq4Bvwo8CNcfZFLBeQGXOT9PcA7uZ63gXEREROTIg4F/BbwBONRJJ510msPTq3CN1KbdlwM7wP9lsluRHoKrOrjIz/6RE1yniIiISCrdBfxT4PXAFsm/OdZJJ510mvRpC3gF8Him3ycBv4x7XO8GShO87ycDH+Riv4Pfn+A6ReSIStxFRNLjy3Gj0L4C19VXRC7I8zx83yeTyeB5Hp7ncXh4OPS63W4XgF6vF50kMX+HC8xfBrwv4bVc1qOBbwO+6ejrPwc+HziY0P1/FfASoHLB73/RFa5FRM5ITeJERJL1EODrcDNpH5HwWkSmju/7ZLPZvpPneVFgDkRfD3N4eBgF5IeHh9Gp1+vR6XT6TvHrypXqAu8A/ivwRtxM8GlVxPUL+UbgHwO1o/NfigvUJ7GfOw/8B+D7LnEbH8T9fxKRCVMGXURk8rLAlwHPPPqov8UiZ+T7PkEQkMvlopPv+xweHh4LwuMZ81HZcyAK5O37M5lMdH273XjA3m63+wJ3ubB7cSO8fgn4o4TXcllPAJ6E2540WJb/74EfntA6PgX4GeAfXPJ2fuoK1iIiF6AMuojI5DwUeBYuMH9UwmsRmRqe51EoFCgUCuRyObLZbBRE22kSMplMlJm3gL3X69Fut2m1WoRhGJXLy0ibwLuAX8B1Zf9Yssu5sAXc3/RnAJ+Ny5oPHmzdBL4Z1z193HzgB45Ol53w8UHc/6hp7ZQvMtUUoIuIjN/n4rIqX4PmlYucWRAEFItFCoVCX1CeljJzK523AwS9Xo8wDGm1WrTbbcIwnNjBg5TrAh8G3gL8Z+C9yS7nQu7GlXzfDXwm8BRcQ89R/gRX0j6Jx/rZuJL2J1/R7X0trqmdiCRAAbqIyHiUcW9yvgp4arJLEZkuhUKBcrlMoVCIysunIdC1DLsF7WEYEoYhzWZz3oN1C9A/cvR5E6gDG7gs8yeA3aOPO8DNo885uu4k+EAOuA0XeD/g6PQg4E5cJ/a1M9xOF3gerqR93L/whwP/Bve/5qq8lcuXx4vIJShAFxG5Wg8Evgj4TuD+Ca9FZKrk83kqlcrUBeajWIbdyuGbzWZUCj/Nj2uMergmam2gcXTeB4EOLlD/m6PzAuDjwH2Ah3s/6+GC44/ggn9TxAXaGVzA3MUdQLXs9224qRnrwOrR9ctHt3de7wC+HRfkjtPDgW8A/j+ufmTbE4E/u+LbFJFzUIAuInI1Hgs8B1fKvpjwWq6MBRjx8mI73xprmcPDw2j/bbfb7euGLXKSIAioVCqUSqWJ7yufBGs+Z6PebM+6Bewy9TZxjeB+Zsz38wTgW4Gv5PL7zIf5aeC5Y7hdETkHBegiIpfz6bh9hl+By7pMHQu2Pc+LxlTZ6Kr4mKo4K+MdNDiuKv55t9vt63zd7XanPkMql5PJZKhUKlQqFbLZ7Nx0RI9n1sMwpNFo0Gq15ubxz5Ae8Iu4cvaPjOk+Srg95t+G2y5VHNP9/A3wyfRXH4hIAhSgi4hczD8EvgU3Jm2qeJ5HPp8nm81GHbE9z8P3/ZHfMyyIHjxvMGAfNXfaWJAe/2jjq2T25fN5qtUq+Xx+qjPmw9Z92nM/fj27brfbjbLqjUbjlO+UFHgNLuM8rvFwj8Btl/pi4NPGdB9xTwL+dAL3IyKnUIAuInI+TwK+FzdaZyr+hlpmPJfLkc/no7nRVm4bz3RPUryhViaTiTLqnU4n2qfbbrdVIj+DqtUq1Wo1yiKfVTzwtc/POuv8IkYdhDprAB6/jdMCeRvfZs3lGo0GzWZTB6zS5x24cvbXjOG2b8dly78B+FQmt13q3wA/OqH7EpFTTMWbSxGRFHgKt/b+pV4mk6FQKBAEQZQtt/OBVGYsBztgW1m8dcK2gF2ml+d5LC0tUSwWR25vGBYED45X6/V69Hq9KKi1y33fPzFwP+05H7/cbje+nvhpcL2jbic+gs2+HjwNPn7bUtLr9aKMerM5qWbmMsLrgVfiStqv0kNx/1+eCHwJk+9h8hbc2DgRSQkF6CIiJ3sy8C+BZya9kNNkMhlyuRylUokgCMjlclPfCTserNje9TAMOTg4UGZxygRBQK1Wo1Ao9P3u4kGvPVfj/Qrs83iAbp/Hnx/Q30/B9/2ol4I1ORwMfi1Ajjdxs9OwYNyc5/U06vsHezTYQYf4+fH1Wvn7wcGBqkompwn8HvBzwBuu6DYXgEcCT8ftKX80rot8Ej6Cy9RvJHT/IjKEAnQRkeEeBzwblzVPNd/3KRQKFItFgiCIymSTfBN/1v3oZ80+2nXt+r1ej1arRaPRIAxDBespVygUWFpawvO86Hlpwadta7AKCft9XuVBJc/zon4L1gTRzrPPBzPmMP5tH8PuazBYt4/WI6LT6UQZ9TAMx7q+OfYJ4NXAS4C/vORtLQCPAh6GC8ifSjpGcLaAzwLelvRCRKSfAnQRkX534ubYPhfIJryWE2WzWUqlEsVikVwu15ddnITBDOOw/eyWDbWAY5BdFr9NK8cH9xgtk2jly/FMqOd50Xxpyy5Oa7XArCqXyywuLvaN6Ds8PIwCzSTmggdBwPLyMoVCIcpQp+l5M/iastePvVY8z4uayjUaDTWVuzp/Brwc+B3gYxf4/gxwHVeu/lhcV/SH4uaWp81zcAcgRCRlFKCLiDg14J8DP0jK55jncjkqlQqFQgHf9yeWLR/W1C3e2C3+da/X6xujdtHgZ1gTLStbjpcvW/B+eHhIo9Hg4OBA2cUUKJVKLC256l17zsQboE26yqNUKkVl9oNNEtNqcE+9vbbswFW326Xdbkc/0263m+Ryp9EHgD/BBavvAM7a6GIRuAtYx1VcPRp4DC47nur/IcCPA/866UWIyHAK0EVE4OuB7wM+KeF1nCgIgigwjzdSG4fBzDhwbIZ5/POkWeAeBAFBEOD7flQ23Wg0Uh+EzaJyuczS0hKZTIZOp8PBwQEHBweJNPqrVqssLCxQLLoR0tPelwHoK3+3Ax3tdjuqJFFDxRP9PfCrwBtx2fKTVIEHAg/BlanfiQvMH3j09bR5EfDNSS9CREZTgC4i8+yJwA8Dn5fwOk7k+z7VapVSqRSVto7DsOx4GIZRCXIaAvGziu8vBheQhWGo5loTUq1WWVxcpNfrcXBwwP7+fiIBo+19L5fL0YGCWTIsWAei161tIZjWgxFXqAW8E/jfuC7s7wPsyVDGjTdbAO7ABd8POfp4N66B2xJQmeiKx+PXmJJJJCLzTAG6iMyjO3FzX1OdRfA8j3K5TLlcjkrZr/KNdnykGdDXqMuadQFRN2zLUsfHTlkAPMj2ngPHml3FS3QnxRqATdNBhmm1sLDA4uIiBwcH7O3t0Wq1Jr4G3/dZWlqiVqtN/SSDs4q/luOvNQvUp32muk2laLfbZ/1ddoH34LLl78c1e9sDlnGB+P1xQfgduAA9P451p8gfAF8E1JNeiIicTAG6iMyTDPAdwL8Cbkt4LSeywDwIgisPLuJZcitRb7VadLvd6LJcLkcul4uCcgtw4yOtTltTvOP64MxnC9Lb7Xbfx3kIpGZZtVqlUqmwt7fH/v5+ImuoVCosLy+Tz+cnfiAoLQa3wFgFic1Un3RTvssqlUocHh7SarVOq4KxB5UBesA9wE2gBDxgvKtMtdfgZqxP7xEakTmiAF1E5sWnA/8ReFrSCzlJEAQsLCyQz7tkzjhKsjudTtTIrdPp4Pt+VA4+2AhuMGt/Fc3e7OvB2z88PKTdbvfNO1ejt+lRKpUol8vcvHkzkd+b53msrq6ysLBwrsaJo0YAmmkKZAcNdoO37vnx8vc0Z9V932dhYYFOp8Pe3l7Sy5lWP48bGSoiU0IBuojMujJun/l3A8PrsVMgk8mwsLBAuVwe2z5zy1obC8wHs9tJiTems59BvNze9sEnvU45zkb97e/vJ7LPP5/Ps76+TqFQOPE5YlUgwwLXUaxqZNj3TNNzcVhFi+1Vb7VaiXTVHyWTyVAqlVhYWKBer7O7u5v0kqbVfwW+K+lFiMj5KEAXkVn2TODHSHl39lwuF41+GneJ9+HhYRSgpD3AiJfU28+l3W5HTeumrUx3VuVyObLZbGKzuCuVCmtra2Sz2b5scLxXQnz2enwkoFWTnJRFzmazeJ4XfbSeDFZ1MjhKMO3PyVFZdcust1qtqJJl0jzPo1gsUqlUCIKAnZ0dZc4v7ruB5ye9CBE5PwXoIjKL7g88D/japBdymnK5TK1WG2t39rQ7qcQ4HuzEs+sWrDebTZrNpkrhE+R5XmKZ1+XlZZaXl/tK2uOd++NN0sIwpNPpnKfJ2FDWHNEOTOTzeXK5HPl8vq9Xg91/mg1m1a36wCpX7IDYuDvwB0FAoVCITt1ul+3tbQ4ODsZ6vzNqD1fS/mtJL0RELkYBuojMmmcBP4rrzJtanudRq9Uol8sz2xgtHnjHy9cHA/JRjz+eQR+2D94CdSuFbzabEwkmJB3W19ep1WpRUGk9FMIwjGauT3KPdTabJQgC8vk8hUKBIAiizuNpD9bjgXp8rfbatAMb1kzSThe9L6tCyOfz5PN5stls1IwyDEO2trZ00O1iPgh8HfCnSS9ERC5OAbqIzIq7gf8EfEXC6zhVPp+nVqsRBMFUZ82HBdzxQDqelbMO7cP2B4/aMzw4xs0+9zwvOlmneTsAEO9WXa/XUx0UycVkMhmuXbvGwsJCNHnA5q3X63UODg5S8brKZrNRoF4qlaLGj2kf+2av5/hr1sS3CtiBMatesNPg47LXqgXg2Ww2OlmJvR2MOzg4YGdnJxW/vyn0m8A3AptJL0RELkcBuojMgq8GfhpYT3ohp6lWq1Sr1ehN+rSJN9myN+TxjJrtXbWge5zNtCyAz2QyUQbOsphWYtxut6NMqsyG69evs7CwAECr1YqaiKU542oHkyqVCsVikSAI8H0/OoCVRvGsevwg2+Ckh/jfsmF/04ZdN/43wfd9ut0u+/v72m9+cT8M/PukFyEiV0MBuohMs0XgJ4F/nvRCTpPJZFhcXJyqkvZ4WTrQtzc13mwrjSXlmUyGfD7fF6x3Op1UdaqW88lkMly/fp3FxUXCMGR3d5ednZ1UPv9OUywWKRaLUWY93rQxbX8b4k3l4oG6Zb4HrzfMsMdk21fCMExsNN8M+CDwbcDvJ70QEbk6CtBFZFp9Lq5D7SOTXshpPM9jeXk5an6UZvEMeTwrbjOTRwW39mZ7mDQEHVYKb834FAxMnzvvvDOas769vT0TVRGe50Ul8KVSKcqsp3XPevxAgnXAt3WeNk/e2N+XTqfD/v4++/v741zyqYIguHTjwIS8EvgOYCPphYjI1VKALiLT6Ptw+81TL5vNsrS0RD6fT21wHt9L3ul0CMOwryGUZdKtsZPtHzUW+I4SfxNvDbssG2fls51OZyJvkOPZQJkOmUyG22+/nSAIuO+++6jX60kvaWzK5TKlUolisUg+n4/2d6ft+RoP1OMl8HbZqO/xPI9OpxP1C0jyb6LneZTLZTqdTmIjAi/o74HvBV6e9EJEZDwUoIvINHkI8ALg85JeyFlks1lWV1fJZrOpDM7jo6BsBnK8aZONkbLmTvGGbcO6qp9kWEM5248a38M+uI89jcGJTE4mk2F9fR3P87j33nvn5rng+340D7xQKJDNZqOqlrT9DCxYt9fyYFbd9tpbJU4amvgVCgVqtRp7e3vTNsrtl4AfAD6a9EJEZHwUoIvItHgm8HPAbUkv5Czy+TxLS0tRuWqaxAPjeJfmeBm4laFaMDDORm/2cXAfrpXRhmEYzbCe1MgsSZ7neSwtLdHtdtnZ2Ul6OYmx5nKlUolCoRBt00hroA63OsDbRAX7mDTP81hcXKRarbKxsTFN1RgfBX4I+J9JL0RExk8BuohMgx8Dvj/pRZxVPp9nZWUleiOdNvGxSDb2aPDypMUz7VY+b5l1K78PwzAVa5Wr53ke1WqVMAynrfx4rIrFIuVymXK5nOoZ6/b6bbfbUXf2JA+u2fNpeXkZz/P4+Mc/nooDBmf0fNyWrnuTXoiITIYCdBFJs9uBFwFfkPRCzqpUKrG0tAQMHzmUBlbCPm37sW0PK9zK0LVaLZrNJu12O5UHQ+RibHyeKiaG832fUqnUVwKfxkA93nAyXuIehuFEXq9BEFAul1lYWKBQKNBqtbjnnnumpUnkHwL/EXhTwusQkQlTgC4iafVU3H67OxJex5lNQ3CeBsOaSJ2lA3T8QMLg9W2EmgXsIvMin89HmfV8Ph8dxEpT/4b4HHQgqoBptVrR6ar+ZhYKhWh8nR288Ml7apcAACAASURBVDyPvb097r333mn42/xe3PjQn096ISKSDAXoIpJG3wv8KJA97YppUSwWWV5eTsVIsbSIvyEf3GMef5M8+PWo24p3io+/4Y/fh41Qs2B9SjJlIpeWyWTI5/NUKhWKxSJBEKR2v3p88oM1hLRGlbaNJd5wzkr57XsPDw+j2/B9nyAIyOfz5HK5qLmlPeZMJsPW1habm5uJPd4z2gT+Oy44v5nwWkQkQQrQRSRNSsBPA89JeiHnEQQBa2trwPxlzk/rzm5vsC1IiHdtt1J7u95p9xPvIm8l0PGmdjb+zcbBWQl8o9Gg0WioBF7mho0QKxaLlEqlvoA1bX+j4gfaBg8kxP822OvX/g4MTpawv0F2fd/3CcOQzc3NxGetn6KL28r1fOADCa9FRFJAAbqIpMVtwCuBz0p6IeeRy+VYW1vry/DMung22wJw67geb+Rm50/q52Lris9st6za4eFhlFm3tYnMg1wuF2XW0z6ybdDggT84fcSjBe27u7tsbm6m+cBcC1fG/gJcWbuICKAAXUTS4VNw+80/KemFnIfv+6yurpLL5dL8JvBSBkvUAcIwpN1uR8H4NIw/y+VyBEGA7/t989Zn9fcmMkwul4v2qheLxejgVfw0raySptVqsb29zd7eXtJLGqUL/DLwQuCtCa9FRFJIAbqIJO3rgBcDQdILOQ/P81hdXSUIgpkM8iwLZSWm8dFmw0rSrcTcytbtNmy/aLzE3b43PmN9kjzPI5fL9ZXhi8wby6xbwG7bQ+x1Oi3Bum13abfb7O7usrOzk9bXdAP4H8BLgL9OeC0ikmIK0EUkST8APC/pRVzEysoKxWLx1ODc9lV2u92+/ZJpZFly27ttwXin0+nLpMez0YPNmAZvzwwrSx0M2i0TbxnuSbzJHrbvVWTe+L4fdT8PgoAgCKLX9uABtTSIb2dpNpvU63V2d3fTWsnzCeBVwM8C70t4LSIyBRSgi0hSXgB8W9KLuIilpSXK5fKZgnPrKm4BbZre5MKtANXeiFtQbl2SLQi3j3C+zPeo4D1+/4Of20GBeNDe6XQIwzB1Pz+RWVQoFAiCgEKhEPVxiDdzswz7pF6Pdr9WkdPr9Wg0Guzv77O/v5/WvwvvxTV/exXwsYTXIiJTRAG6iExaBZdJeFbSC7mIarVKrVY7NTj3PI9Op0Oj0YgyUml8E2nZfXvDHe+IbgcUJr0/dXB8WjzLflqpvYhcLdsSYnPFbYyZNWIExvJ3wjLknudFr/12u02z2WR/fz/NIxT/CPgF4LeAVLePF5F0UoAuIpO0DrweeGzSC7mIYrHIysrKqfszrVFRq9WKGjGlNZCMzxYeVZKetMEsu2Xw2u121LCu1WrNZC8AkTSyIN3mjtvXFrgPGlVBY4ZtgbHXdTwwT2kJO8AObn/564A3JrwWEZlyCtBFZFIegSv1e3jSC7kIG6cGJwevvu/TaDQIwzD1wTkMH100LeyggjV7s4oFBesik2fVN1aBk81mo9doLpc78Xut70S8D4W9rlNsC/gT4KXAm3BBuojIpWWTXoCIzIVHAv8LuDvhdVxIJpNhaWnpxFnnVoq5v79Pu91mYWEhKs1MsyQC82H7zi/KusZbFq9YLNLpdGg2m7RaLZrN5lQefBCZNvEJDSkuP79Ke8C7gF1Uyi4iV0gZdBEZt38E/CpQS3ohF3VaUzgLznd2duh0OlEwP++BYXwvebwZ3bD9qtYUbjB4t0ZxmUwmGqcE9H0+eD+WwbNZ561Wi3q9Pi9Bg4hM3sdwTeHehDsY/WFcAC8icm4K0EVknJ4K/A5QTXgdF1YsFlleXh7Z/MiCwq2tLcIwZG1tDd/3U585v0rDMuLxfeLxclXLsg1+fRkWrNvc9XgDK/vc8zza7Tb1ep1Go5H20lkRmW7vBn4X+DPgrcC9yS5HRKaJAnQRGZfPwwXn+aQXclHZbJa1tbWR2XDf9+l0OmxubtLpdFhfXyebzc5FcG57S63DunWD73Q6tNvtvjFpSf484oF7EATk83kymQxhGNJsNqO9ryIiY/Ix4B247u6/BXwEmO/yKhE5kQJ0ERmHLwFeBpSTXshlLC8vUyqVhgZwnufR7XajzPn6+jpBEMxssGeZcc/zAKLOyvHuytNS0m+ZdZvrbln+Wf3diUhqNIG3Ab9x9PEvkl2OiKSRAnQRuWpfD/zPpBdxWQsLCywsLAwN2ixzft9999Hr9VhdXaVQKJw5wLPGZmlnwbiVodtIM8uS2+O1gNc6OMcfW3yvONCXcY+Xt9v4pKsoeT8v67SvAF1EJuwNuBL4VwLvS3gtIpIS6X+HKCLT5DnAi5JexGUFQcDq6urQru2WOd/Y2IgawlUqlVPn81qQ2m638TwP3/dTm3H2PI/Dw0PCMIwarVmG3Jqw5XI5giCIAnIL5gcPPNgefRPfyx//GP98WKm8AmgRmWF7wHuAXwbeAvyfZJcjIklSgC4iV+ULgNckvYjLymQyrK6uEgTBseDcMuc3btyg2+1Sq9WoVqtRRvik2+x2u7RaLYIgIJvNpjY4t0y5ZbiBqBw8m80eC8AHH8d5HteoKoLBpnPWTM4C9k6nQxiGpx4UERGZUm/AzVj/TeD/JrwWEZkwBegichWehgvOp7YhnFlcXKRSqRzL1lrmfHNzk3a7TblcZnFx8dRybM/z6HQ6NBoNgiAgCIJUBufx7uqW9c7lclE2fVQX+0kYHKcWz7KHYUir1aLT6SjDLiKzZhc3a/1lwB8DH0x2OSIyCQrQReSyngj8HlM859zk83lWV1ePBaOWObey9kKhwMrKyqlBq+d5tFotwjCkUCikNnNua4oHwvHz02awbB6IKhTa7TZhGGrmuYjMmhC3V/1NwK/gGs6JyAxSgC4il/E5wP8CCkkv5LJGlbb7vk+r1WJra4tutxuNXvM878Tsue/7NBoNWq0W5XJ5bsavJSW+D96y6Y1GQzPPRWQWvR94M/AS4K9QsC4yUxSgi8hFPRg3JmY56YVchWFd2y0439zcjEq/V1ZWTuzYboHi3t4e7XabWq12ajA/T4btOx/cc35eg5n+wVL4VqtFs9mk2Wzq9yAis+bPgVcArwU+kPBaROQKKEAXkYt4OPBHwPWkF3IVstks6+vrfV3bfd+n2WyyubkZBYAnjV6DW4HhzZs3CcOQ5eVlfN+f26Bw2N7xwf3sFkT3er0T95HHG8JlMhl834++jjev830/GvdmHeZt1Fun06HVanFwcECz2UxtCb+IyAVsA38IvBT4A5RVF5laCtBF5LwqwF/ggvSZsLS0RLlc7pvrHYYhGxsbUXAdBAFra2sj951befXW1hbNZpO1tTWCIJir8ur43nCrGrBmbt1u99jn1v3+qgPleLCezWajj/FO9IeHh1EJfLvdvtL7FxFJ2Ptw5e+vB96d8FpE5JwUoIvIeVSANwJPSHohVyWfz0cN3+BWt3YbpWbnra2tkcvlhgbcvu9HHd7DMGR9fX0ugnMr57cg20ahtdvtvmA8bePQfN8nCALy+XzfCLx2uz231Q4iMpMauAkrvwa8KuG1iMgZKUAXkfP4FeArk17EVbJMd6/Xi7K+GxsbfVnVUaPX4FZAv7W1RRiGrK2tkc/nZzY4jwfllglvtVqnZqIH95bHS96T5Hke2Ww2KofvdDrKqIvILHoP8ELc1BWNaxNJMQXoInJWPwt8a9KLuErlcpmlpSW63W4UnFsW3JRKJZaWloYGk77v02632djYoNvtsry8TLlcPjVjPBicXqQx2qRY2bqVo9vs8TAMowy5zUz3fb9vDzi4PeZ23iAL8oG+cnf7PJ6Fn+TjtbWJiMygfdzB9l8E3pLwWkRkiPS+KxSRNPlu4KeSXsRV8n0/GpdmQeTW1hYHBwfRdU4aqeZ5Hp1Oh83NTTqdzolZ9jgLztvtNp7n9TU7SxMLzDudTnRqt9scHh5GjdeCIIgeg2Wg7ecZd1KwO9jBfbCRXK/Xi0rn42uJB/ciInJuIfCnuIPvfwDsJLscETEK0EXkNM8AfjvpRVw1C6h7vR6+77O9vc3+/n7fdVZWVigWi8cCQcucW3BerVap1WpR5ncUC+pbrRa5XI5cLpfaTG2n04mC416vFzVYs0A8HljHO7JflXgH+Di7j263G+13D8OQVqt1ZfctIjJn3g28/Oh0T8JrEZl7CtBF5CSfArwVCJJeyFWKd2S3meU3b97su44F3YPB+WDmvFgssrKycqbgvN1u02g0KBQK0b73tOl2u1GW3CoLstnsqY9v0uwggZXfW2a92WwShmH0OERE5Mzuwe1Rfz7wfxNei8jcUoAuIqPUcPvTHpX0Qq7a6uoqhUKBTCZDvV5na2ur7/JcLsfa2hrQnxX2fZ9Op8PGxgadTocgCFhdXe2bnz6MzVRvNpuUSiVyuVwqg/O4YRnytBoM1m2vvAXrYRim/jGIiKTIIfCrwMtwAfs8qeIe//5pVxQZl3RufhSRNPhd4DOSXsRVK5VKVCoVMpkMjUaD7e3tY9dZWlo6luG2DLhlzj3PY2VlJcouj+L7PvV6nWazSaVSmYrgPA3iQbed4uX1g2X2cPxgSrFYpFQqUSgU8H0/KtcXEZETZXAH578GeBrgAe8F0jUz82pVgc8HHga8H9A4D0mMAnQRGeYncf+YZ0omk4mC71arxdbW1rHMarFYZGFhoS+Q832fMAzZ2tqKSt4XFxcpFAojG5VZI7W9vT0ajQa1Wu3UYH7eDAbe1nDOyuvjrClcfF+8/SzjgXr8NuyybDZLPp+nVCpFs8+tAZ2IiJzo/rheNF+F2+72d8Beoiu6es8Bfgj4CK7njrLnkiiVuIvIoH+GK2ubOeVymeXlZTqdDjdu3Dg2Di2TybC+vt4XSFt5+tbWVnRefDzbMDZSbHt7m3a7zfLy8twG5/Fs92AzOQu4BwNvm68ev41RXdstsDfxEW/WXT6bzUZ76e361mSu0WhQr9dVAi8iadIE8tx6n37SH6hJv5e/B1f+/nxcQDut8sCzceNjV3EHIP5oxHVzQBZoTGZpMu8UoItI3ONwY1cKSS9kHK5du0YQBNy4cYNms3ns8sHGcIMN4cCNXltfXweG78224HBzc5Nms8m1a9fmLji3IHlY0B0flxaffT6JNVlwns1myeVyBEGA7/t0u92oE7y6wYtICvw58G3ANVwQPGoEWga4GygDg/9k2sDi0eWHQBe4A1g5uux+uF4z/tF5/tHXS5ytwnYH+HXgZ4C/PsuDSonHAl8I/AvgLuDPcBUCN074njuA24C3j311IihAF5FbloB34v6Zz5xyuczq6irb29vs7u4eu3ww8LYsqzWEM9Zgblg214LSzc1NwjBkbW2NfD4/0/O6B/eC93o9Wq1WNAKt2+1Gc8vTKJPJEAQBuVwuytTbKLy0rllEZl4P+FLgtyZ0f0VchngduA7cfvT5Ei44vX709YOPPg56HfBi4DcnsdgLeCxuL/2TccG4eTHwTWf4/kcBDwVeffVLEzkum/QCRCQ1XsyMBuee51Gr1ajX60ODc4CFhYUoKLdAbXt7uy84r1arpwbnGxsbtNttVldXzxWc22izaRAvK7dseBiGNJtN2u32scDWrh8vRR/GqgzGMVd9lMPDw77MeS6Xiz4OltqLiEyIB/wK8Hgmk5220u094G9GXCePy7QvAY8EHoQLfB8JPP3o9NfAzwMvBW4OvZXJuA0XUD8D+GzgIUBl4DrfA/zUGW9vAVdxIDIRCtBFBOC7gC9LehHjUq1WyWQyQzu2AxQKBUqlEr1eL8oIb25u9pU75/P5Y83jjO/7tNtttra2aLfbLC0tndhAzsSblaU9OI+vz0aYdTod2u02vV4vas5WLBbJ5XLRvm97jNY0b5T4HvN46bvNM7cDAeMOmtttNe4VkVTI4/Z6Pw5Iw96bFm7/+T3Auwcuuw34LOCJwD/EZarfDvwicO8E1pbDZbkfj5s+8/SjNQ1zE/h6zledUAYecIn1iZxLut8RisgkPB54GzP698D3fdbX19nZ2aHRON7fJZPJsLq6Go1V8zyP7e1tDg4O+m5jdXV16F7ywbL2Wq1GtVo9U3Bu5eAW0KatpNoOVlgTN8uUGwvC4ycYnQE/7fHFO68PrsGC9XhDufh+9jSX0YuIXMJf4YLdv8MFxx8FPg5sAfWjU9rGn30qLsNujdX+GLfeq1DDldw/Dng08ARcGf5dQOmU7/3fuJL2wQMMp/kO4JNx+9ZFxm4m35CLyJkVgL/AHXmeSbVajUwmw87O8B47lUqFWq1Gr9fD9312d3ePlcEvLS1RLpePBd2WOd/e3iYMw6i7u2WAR7Hmc41Gg3w+TzabzmKmwZFmliUfNg5tEs3eBuefx++z3W737X0f7NAvIjJjQm4F638P3Hf0+T3A7tHXO0ene3FN4pJQxh1EOI8ssIbb734/XLO8h+FK1R+NC/7P6zdwmfPzrgXgFbgKgm+4wPeKnFs63xWKyKT8D2Y4OM/lcnieNzI4932farUafb6/v38sOC8Wi5TL5aGZ8zAM2dzcpNvtUigUokD/tODcxnsVCoUoc5828eA3l8vh+37feUms+aSDALlcjnw+D9zaF99ut2k2m4RhqOy6iMyaABeonhSs1nEl3TdwmewbuMD+b3EB+4eBA1xTug/hMvEfOTrPdLm1Rz3D2QN9/+i6FhCXuBV33AlUcXvar+OC8VVcH5yFo/NWjk5XMVXm3wA/eonvfyrw5itYh8iZKEAXmV9fCXxN0osYp2KxyMHBwcjgrFqtRmXZBwcH3LzZ39PGmssNBobxPefdbpdsNsvS0lJUtj6KzVRvNpuUy+VUj1+zPePxffJpFt/D7nkehUKBQqEQVT60Wq0oWE/7YxERuSLlo9PtZ7huFzeOrUF/EL6PC9ozuKC7jgvwe7hmdoM6uMD6jqPbOzy67v1wwTe4oDvL+OOQHeCbcXv5L8pGrCXZ9E7mjAJ0kfl0B/CSpBcxTkEQROOyhsnlcpRKbrtaq9Vie3v7WCC/sLBANpvtK2234HxjYyPq+L60tBTN0x7GyrLr9TqtVotqtZrq4DwuiczzsL3ow74eZnD/eyaTieaeVyqVaN55o9Ho208vIjLnrItndeD8RVzGe9q8DXgW8P5L3s7nHX18zyVvR+TMFKCLzKeXcvyf8MywPdLNZnPkdSqVCtlsllarxdbW1rFANJ/PHyttt+DcytrBBfEnjVOzEWO7u7u0Wi0WFxenJjgft8E95fFsvWXE7edk1QknHTAYnMnueV70tY15KxaLFItFKpVKtNXAxsPJbLDngfVL8DyPXC4X9VGwUXpx2Wy2b3SgHXwDooaENobRJgvE+zNoC4VIqrwU+HZc9v+y/uHRx+NdZkXGRAG6yPz5HuBzk17EuJ1UyhwvfbYy9UE2ms1uw/aOb25uRg3ICoUClUpl5P1YcL69vU2z2WR1dTWarz0vRmXDLcCx/eKDQbmNVhsM0M96f0BUom+/h3i3+Ww2SzabpVarUavVaDabNBoNGo2GDp5MkVwuF53iv9v4x/NUXsDZKjUsMO92u33j/+xr64EwT691kRTYA74NePkV3d4q8E+OPh89J1TkiilAF5kvDwZ+LOlFjNtpAValUsHzPDY2NoZmTkulUt8cc+u6Hg/OPc9jcXERGF4G7nkeh4eHbGxs0Gw2WV9fP1YuP8ssc2lBTHyWuXVZj192mrNmKOPXO6mTuwXtmUwmajBnv/cwDKOTMqPpYQdVrL+ANYGMZ8qtX4Sdxnmwxe47n8/3jQO057UdbLLJAq1Wqy+YF5Er9Wbgu4F3XuFtPgNYOvr8o1d4uyInUoAuMl9eCByv75wjVrq+u7vbN+vceJ5HpVKJAjMLMre2tvoCvlqtNjLgjn9Pq9WK5qzP6pvywTL1brcblY23223CMEzdY483lbORd+CCwCAIouDPAixl1SfP930KhQL5fJ4gCCgUClFTx8FRe0kEvaOmClh5vWXvi8ViX28EC9bDMOx7jYjIhf0Mrjrwqvcq/fOjjyGwecW3LTKSAnSR+fGdwOckvYikWTnzqNFr1Wo1CqYtCNje3u7LtJfL5aFz0eFWcG7Z+eXl5b5s/GkODw/PVGKbNMtAW2a82+1GWWcLaC0osaDXPrfvMzYH3rLp8eA5ft4kZq1blh+IMrMyGdbQr1QqUSwWowMlvu/37fdOu9Oep0EQRFl3y7ZboG5THpRlFzmT+4BvAV49htv+TOBJR5/fBD42hvsQGSr97wJF5Co8GPg/QCXphSSpWCyysrLCfffdNzRjlcvlWFtbi0pVM5kM29vbfZn2+HWGzUbv9Xpsbm4ShiG1Wo1qtXrqG227PzsokOag0LLlNrrM9vp3u92oZNz3/b59wfZ9ow4+xLOhZjDAseDMDgZYIK1AZvrlcrmocV8+n+8rV5/1BmyDjRItuLeqDnuNndTwUmRO/TYua/43Y7r91wKff/T53wIPwY2QExk7ZdBF5sPPMOfBObjs+M7Ozshy0mq1GnVq9jyPmzdv9gXnmUyGWq0WXSduMDivVqtnCs7ttprNJrlcjmw2m7qAJH4wotPp9O3NtjXbyQxmEQfHn8Wd1pkdiEqGgyDo665twboF71YuPA2Z1nmWyWQolUpUKhWKxSK5XO5YZ/R5MCzbbpUE9rfGxkVahv3g4ODE/goiM64JfB/ufc24fAa3gnNwc+D1opOJUYAuMvu+Gnh60otIWrlcptPpsL8/fOpKsVikUCjQ6/XwfZ/d3d1j161Wq0PL1W0G+tbWFmEYUiwWWVhYODXQtuD84OAgKudNW3AORMGvZcCDIMDzPLLZbJQZj5elX6XBn8dgt22bcW6XWZBn886tdDiNP9d5lMvlKJVKVKvVKFtuzy9x7Llq1SG2j91+brad5ODggGazSavV0vNb5sUbge8H3j7m+/nRga8/MOb7E+mjAF1ktq0B/zXpRSTNOi2P2neeyWSi7DlAvV5nd3e37zr5fJ5qtXoss+f7PmEYRvvUgyBgaWnp1H2oNratXq9TLpejOc1pY9nz+Jxok/R6R2Ufbd55qVTq66JtGUiVxE9ePp9nYWGh77lupdxysvjBr/jzu1wu0+v1on3rNiZQwbrMoA3gPwM/MYH7+hfAZw+c9xcTuF+RiAJ0kdn2g7g5nnOtUChwcHAwMqAsl8tRE7NGo3EskLfS9sF95xacW4d33/dZXl4+dWa37/vRm+o0B+fgggPf9yfSoO0qDCult6ZcFujYnt5Wq6VgfcwKhUIUmGezWWXLLyn+/O71en3ZdWs212w22d/fT+X0BJELeA3wXOCDE7iv6xzPngO8YwL3LRJRkziR2fUZwFuTXkTSrIP4sJFq4ILl9fV1fN+n1Wqxubl5LFiuVCosLi72vdm14HxzczM6f2VlhWKxOPJNsWW/6vU6zWaThYWFKGgRJ95E7rzd7E/rgD94WafTiQ6UqAnX1SqVStRqNUqlUt98cBmfwYZz8TL4er0+FQfYRGL+FvhXwK9N8D5/B/jCgfM+AnwyMLwET2QMlEEXmV3PT3oBSbOO4icFX5bBtjL1YSXs8bnodt5gcG7Nrk4Lznd3d2k0GiwvLys4pz+oGBynZmXQ8eZhw36+mUwmahQXH+Nmc6iB6HM72R5667Qfb8ClmdQXl8/nWVxcpFKpRA3OZDIGq1xyuRxLS0tRT4aDgwPq9bqaKErahcALgB8Hbkzwfn+A48E5wJ+i4FwmTAG6yGx6FvDpSS8iDeIdxwf5vk+5XObw8JCdnZ2hwUS1WiWbzUaBoed5UVm7nZfL5U5sCmdBoY1sW19fn6vg3ILkwez44eEh7XY76sTe7XajIDz+8arXYsG5dYa3DvSFQoFyuRz1Bmg0GnPzO7osz/NYXFxkcXFRjd9Swg5qZTIZ8vl8dPCk1Wqxv78fjXETSZHXAc8D3jLh+/084EdGXPa2SS5EBFTiLjKLloH3ANeSXkjaLSwssLy8zObmJnt7e8cuz+fzrK6uRkGadWu/ceNGFHxkMhnW1tZG7iO3bO7W1hbNZpO1tTWCIJiLwM/motve7/j88vg887T8LDzPixoKWk+CeGO5tKwzbSqVCsvLy+TzebrdrkqpU86e5/Gqkf39fe1XlyS9H/gPwC8ncN9PAv4AKAy5rAk8DnjfRFckc08ZdJHZ8wMoOD+V7/ssLCywv78/NDgHlz031vjNGsKZhYUFgiAY+ubWMonb29s0m01WVlaiIGbWxLPkFpSHYUi73abVatFsNlMfuFnGsd1uA+73l8vlyOVy0cEZu0zca2hlZYVqtRptM5D0s+e553lUKhVKpRKLi4tRCfyofh0iY3Avbjve84Ekyjk+GXg1w4NzgHeh4FwSoABdZLY8DPiupBcxDarVapTZHqZSqUQzzy3o3Nra6isJLRQKVCqVoZlV3/fpdDpsbGzQ6XRYXl4+cY+6ie/FPm+TtCTY6DXLhodhGGXH2+12tC88n89Hc9Oz2f5/PVZ2Hmc/0/i+c8vOWmm87VEfl16v1/f7Hlz3PFtYWGBpaSk6OKXqguljgTq4v1eLi4vUajUajQbNZpPd3V0dkJJxaeD2mf834GMJreFpwG8ACydc55cmtBaRPnq3ITJbngf4SS8i7bLZLKVSia2traGBRSaT6WsM53ke29vbNBqN6Dq25xY4FiR6nke3242y7dVqNRqDdBILyNvtdl+DszSy0v1ms9lXrm7Bts2N930/KnUfthd9GDs4ET9YYefbR2scFy+Zj+9jH0fgrgyxe+2srq5SqVQA/Uxmhc2kj49tq1arNBqNaL+6DsLIFXk58GPAexNcw7OB/w7kTrjOHvCqySxHpJ8CdJHZ8VnAlya9iGlQq9U4ODjoC7jj4o3hfN9nd3eXer3ed53FxcW+5nFmMHM+bETbMFZC32g0CIIgmj2eRpZZtjfsFpDHO6jD8QMXl32DP1hGbyXodp4FGbbfPQzDqMxeibFJIgAAIABJREFULq9arbK6uorv+2OvXpBkWL8IcK/rarXKwsJCNKrN5quLXMAvAi/GdUVPSg3XHf6bz3DdX8CV4ItMXHrTMyJyXm/CBelyAsvsbmxsDL08l8uxtrYGuDeo+/v77Oz0T1gpl8ssLS0dC7ptz/nm5iZhGFIsFllZWTk1mLGMe71eJwgCCoVCKrNV8Tfv4ILiXC4XHVxIQ8AWD96thNdK71utVtQ1Xs4uk8mwsrISjexK43NTxssqeqyx3O7uLs1mU88FOc0W8JvAC4G3J7yWp+FK6h9+hut2gEcB/2+sKxIZQQG6yGz4GrRX6lSZTIaFhQXq9frI0tyVlRWKxSKZTIb9/X22t7f7Ls9ms6yvrwP9GWLLnG9ubtJut8nlcqyurkaB4ig2tq3RaFAsFlPd4T2+L94+piEoP0m8tB6I9sa3Wq0oYJfR7PleLpevpEP7qK0OV/E8GnZ7g7PB5XJsuwrQl1XX60gG3Ae8EldG/v6E1/KpwPcA//Qc3/NrwFeOZzkip1OALjL9MsA7gccmvZC0KxQKeJ43sktxsVhkeXmZTCZDq9ViY2Pj2Jv75eXlY/vJfd+PZqN3Oh08z2Ntbe3UWee+79NsNmk2m5RKpZGj2uTsTgv64g3pLFi3pljKrPcrFAqsr6+Tz+cvvNfcft72e4nPtx8cv2fVDja72y6Ls0aDxmbZx2fa2/15ntd3svvUa+xq2M/VXkOWVdcBkbn2YeB/4srDP57wWp4EfCvwTKB8ju87BB6BurdLgrQHXWT6fT0Kzk9lzcpG7TsH17nd931arRabm5vH3mgWi8VjndhtnnB8/FqtViOXy50Y8GWz2aj50uLiYrSvd94NNpAb1VBu2PmD5dfxRnvx36V9bgGdbSloNBrRSLh5/11UKpXoINNZg/Nh2XEL3iwIb7fbtNvtqFfAeYO5s+5/zmazQ09BEJDL5aJeCcMaEMrZ2OvN932q1SqVSoVGo8He3h71en3uX0Nz5s24cWUvws0OT8qdwNOBLwE+/4K38QIUnEvClEEXmW4F3D+Su5JeSNrlcrmoidgwpVKJlZUVut0uN27cOFaymclkWFtb68tyW3C+sbERBeOWhR/15tQyezdv3qTRaLC8vDzXmXML6uIZ1niW0zKulnWNZ2AHb2dwH7xlUg8PD/uCdTtY43lelHH1PC+6TrfbpdlscnBwQLOZ5HvNZKyurrK4uHimbHM8Q26/G9unfHBwEAXjaWGBuu/7BEEQneJZeHueKVg/P3sNNZvNKKuupnIzq43bX/6zuAA9CQvA/YHPxQXkjwZuu8Tt3Yfbo7592hVFxkkBush0+37cuBK5BAu+i8UiN27cGFoCX61WWVxcjIINz/OiPefx865duzZy37kFMtvb29TrddbW1igUCqkKYMZpsAs70Nd13YK7cY9LGxQP1C3LakG8ZdYtCzzLPM9jfX2darV6YnY73ojPuuU3m82o+mAa9yNbc8Z8Ph8F7dlsNsqyay/7+fi+m/bZ7XY5ODhgb29v5NYimVp7wLuAvwTqwA1c1/PNo883j66zeQX3VQCuHZ3uD9wBPAH4DOABXF088xzgJVd0WyIXpgBdZHrdD9dhtJj0QqZdqVRibW2NnZ0dbt68eexy3/dZW1uLymItcNvY2OgLRqzB3LBAzr53c3OTVqvF6uoqhUJhpoO+eHY8Pre81Wr1zS1P68/AsqzWqb7b7dJqtYZm8Ked7/vcdtttlEqlkQF2fC93q9WiXq9H2wJmLXi133s+n4/6Q9jjt+fyrD3mcchkMtHIyEajQb1eZ29vL7WvebkyXVwH931cgN7GZaftF/9xYAfwR3zvA3HvbTzgOlAF1oG1Ma75t4EvGuPti5yZAnSR6fVi4BuTXsQsuH79Or1ejxs3bgx90720tBR1sbbM79bWVl/5c6VSoVarjcyc93o9tre3aTabQxvNzYp4UN7r9aKM+Gl7uy34Gba33H5OSWYx42Xw4PZCz0qA5nleFJwPq+YYbAa2v7/PwcHBzDz+02QyGbLZLKVSqS/LblU08/JzuCyrSAjDMOr+3mq1kl6WCLiDCI9Cc88lJRSgi0ynJwJ/mvQiZkGlUmFxcZFPfOITQwPmfD7PyspK9LXneWxtbfWVawZBwOrqahSUxvm+H+1r73Q61Go1FhYWTi1rt6xzt9sdGbimRTwgtzL1MAyjLPnh4WHf3l8rJ7dg15wWoMebwNlHy8JbAzI5n2w2y7Vr1yiXy30/v/i+8larxd7eHo1GQz9j3Gu6UChQKBSi7Hr8NaCA/WR2wKfb7bK/v0+9Xqderye9LJlfXeAp6D2VpEh63/GJyEn+BHhy0ouYdrZnfHd3d+QbxLW1tWg2ued57O7usre3F10+rHlc/PZ7vR6bm5uEYUi1WqVWq52aObfgvNVqRQFtGsU7dcez5Rbc5XK5viZs8b3nw4KYk/Y8j/o83lTOmgDaOuKju+S4IAi4fv163xg1K0nudDrU63V2d3dnsoT9qnieRxAElMvlKLsebzQno9lzzbaOWPf3WawsklTTvnNJHQXoItPnS4BXJb2IWVCr1fB9n62traGXl8tllpaW6Ha7+L7P7u4uu7u7fddZXFykUqkce1M5uE+9WCyysrJyaoYt3kU8l8sRBEFqgyMLgC1AtsZaMHwe+bgex+BorzhrYtbpdAjDkDAMFTjhKkOuX79OEAR0Op2+YMme5+q+fX7FYjHKrBcKhWPTCeS4eNPBMAyjQF3l7zIBzwP+bdKLEBmkAF1kuhSBvwIenPRCpl02m2VhYYGdnZ2hAZs1hrOxQQcHB8cC+UKhwMrKyrG90Va+ubW1RRiGfWXyJ71Jtz2tBwcH5PN58vl86oLJ+PptbZYlT2MQMrgn3krwW60WYRjOZMO30wRBwO233042m40OPvV6Per1Ojs7OwqMrkAmk4ky68Visa8rvDLEo1m1TafTica0NRqN1P1dkZnw08Bzk16EyDDprJsUkVG+HQXnV6JUKlGv10cGZ5VKJcoGNxoNtrf7x6J6nsfi4iLQH7RaFtKCc9/3WVxcjIL2UXzfp9Vq0Wg0ojf0aQwc41lq+/mkOeiIHzyxZl/ZbJZCoQAQBet2mnX5fJ5r165Fvzvf96PAvNFoJLy62WFbVOw5VSwWo5Nl1jW+7TjbGuB5HpVKhXK5TLPZVPm7XDUF55JqyqCLTI/7Ae/GjRuRS8jlcuRyuZFzeXO5HOvr62QyGVqtFhsbG8feRNdqtWhetBnMnGcyGVZWVk4dp+b7PgcHBzSbTSqVytD97NLvpLL2YefFf3+Dv0vL/rfbbZrNJo1GYyb3refzeW677Tby+Xy0jWJnZ4f9/f2klzY3MpkM+XyeSqVCsVgkl8tpz/opLKtuBzCtL4KMh/WkmOGDIT8BfF/SixA5iTLoItPjh1FwfhaHuJEpq8Mu9DyPXC7XNyJtUKVSwfd9wjBke3v7WECXy+Uol8t9b6itLHNzczMK7iqVyonBue273N/fp9FoUKvVFJxzclM4Y6Xpg7+bUWX28Y7x8XnWdr4148vn81SrVcIwpNFo0Gw2Z+KNqu/7XL9+nUKhQKPRYGdnh93dXWVvJ+zw8JBmsxn9/alUKn3j2zRj/Tg7eBEEQfT6tKz6wcHBTLw+08DzvGiawwz/D3o28PNJL0LkNMqgi0yHJ+M6t8vpDoG/BB4BBIMXWjfxUW/qLHsOcOPGjaGNslZWVigWi9FtWNfrGzduROedtu/cgvPd3V329/dZXV0lCIK5e7MZ3yMOt0rS413ZLRiPB+Xdbje63mDgPoz93g8PD48F6NYgzcrf453nrcmcBevT+MbV+//Zu+842fK6zv+vkyp2Vec7M0zOpFGRHEaCogIrrCCggGBA2Z9iWiOKu+7qGlbMoLKKiAEQEAHJSs4IDMIwwDDx3jvp3g5VXTmcqt8f3z7nVndXdTxVp6r6/Xw86nH7Vjj17TvT1edzPp/v52PbXHTRRWQyGdbX17dcRJLx4DgO6XSaXC5HKpUK/78M/j+Xc4LPzqDCqVqtUi6Xd73oKrsL/t/b2NiY1n/H+zDB+TvjXojIfihAF5kMHwWuj3sRE+RLQBl4zEFfuLCwQC6XY3V1tW/pbyqVYmlpKQwEt49SA3MCeeLECVzX7RvQBQHp+vo61WqVpaWlPcvgp0m/xm3BOLRWqxU2cour7Ne2bYCwi34ikQj/Owf7iidpHngQnJ85c4ZCoRD3cmQPnueRy+VIp9Mkk0lc16XdbitQ7yO4kNFut2k0GmGAqQtQ+zc7O8vs7Cyrq6vTOo/+P4AfAm6KeR0i+6YSd5Hx94MoOD+oGnADBwzQg72hpVKpb3Bu2zb5fD48UQ6ysL3BORCWqvcLuIPXrKys0Gg09rVHfZL1BuNBdjwYedY7r3ycvv/gosD2xnFBsJ5MJvE8L7ygMK6Bk2VZXHDBBbiuyx133KGxaROi1WqFEyPS6TSZTIZsNksiYQqCgsoROVcxY1lW+O/UbDapVCpUKhU1PtyF67qcOHGCVCrFXXfdNa37+v8U+AVgcq6oiqAAXWTc5YDfjHsRE8gFNvZ81jb5fJ5WqzUwyxicJPu+Hwac6+vrWwKfdDpNNpvtG3AGr1lbW6PRaDA/P08mk9lXtid47aToLREPAvAg4A3mp0+aYI46mJPboDR+HLN1lmVx3nnnAXDnnXdO1P87ck6tVgt7BgRlyMEFIjWWO6d3koTruszPz5PP52k0GmGPD12gOiefz7O4uIjjOJw6dWoag/M7gJ8H3hrzOkQORQG6yHh7CXBp3IuYQJcBJzG/pC/bzwuCctIzZ84MnIs+MzMT7nm2bZv19fUtGRrXdcPRa9sFJdIrKyu0Wi3y+fzAQL5XsL+63W6HAeE4Blu9+8jBBLNBKXgwb3yajGNQHghGADYajR3jAWUy+b5PuVymXC6H89Wz2SzJZFIj27YJLlxYlhWOtvN9P7zYUalUxvrnd5hmZmbI5/PhxYuTJ09O44WLV2Ga6q7EvA6RQ9MedJHxdSFwI9A/4pPddIFnYPadPXM/L1heXg73MPazsLBAJpPB930cx2FjY2PHcwftJQ8C17W1tXCU2tzc3L6C82Cesm3bJBKJsTsBDy5WBHvJg1FIU94JeGwFnZh93x84RlCmg23bO0a2BVUr4/Y5Ebfei5vBOMVKpXIs9qsHnwmzs7OkUqlwxOg999wzbcH5B4H/DXwk7oWIHJUy6CLj6zdQcH5YFnAe8HH2EaBnMhk6nQ6lUqnv48lkknQ6TafTwXEcKpXKjuA86L68PegOSqDX19dpNBqkUilmZ2f3DF6DE+1arYbrumMVnPdmy4NAsNFoUK/Xx2aNx5FlWbiuS6PRmLYTb+mj0+mEWWHHccKsejqdDhtUKqtuBL0vwFQ65XI5ZmZmaLfbVKvVcPTdJDV/3Itt2+RyOfL5fNjo0rIsisUiZ8+enabv9UbglcCr416ISFQUoIuMp+sw2V85vKuBv9/rSbZtk0qlKBaLA09kZ2dnARNsV6vVHWXDiUSCXC63I+junY3earXwPI/5+fk9T5qD11WrVZLJJMlkciyy0b3Z8mC8UaPRmLry9UnV7XYVmB9Tvu+HVT3BBcWZmRkSiQSu627Zo33c9X6WOo4TbksKGlcGZfDj3AByEMuywikAmUyGVCoVXqixLItCocDZs2cn7vsa4KvAHwFvwExtEZkaCtBFxtPvop/Po7oMsw99HZgf9KRUKkWtVhtY5hg0hrMsi3q93ndPbz6fD0eGBRzHwfd91tbWaLVaWJbFwsJCeP8gtm2Hc7fT6TSJRCL24Lw3MA86I0/prFyRiRc0YywUCmFn86DHRtABfkoCtCPbnllPJBKk02nm5ubCYD3IrI/rxS/LskilUiSTyfD3leM4gOmVETTsPHv27LT0pPgsJih/JTDd+xPk2FIAIDJ+ngY8Ne5FTIErMb+834kZVbdDkFkaNIonKBG0LItms8nKysqOE9tsNrujtH175hxgfn5+4Oi1gOM4YfYmn8+HnZrjEpREtlqtsBPyFJVFiky9arVKtVrFcZywC3wqldoyZUHButHbFd+yrLASAczouyBIDy6gxplhdxyHVCpFJpMJq6yCi6i91RKO49DpdDhz5szALVwTog28B/h/mN/pIlNNTeJExosNfB74lrgXMgVWgGXgRcDfbn8wOAFrtVoDg+Z8Ph9mUoLu670cx2F5eTk8CYKd3drBBPHz8/N7BuflcplKpcLc3FysmfMgMG82m2EzJZXHikyHoAQ6lUqRSqVwXZd2u61AfRfBZ2JQKRU0xQzK4oOtPr23qN7XcRwcx8HzPBKJRNjoLXhsUFWE67q0Wi3uu+++SZ4HfzPwIeDPgK/EvBaRkVEGXWS8/AgKzqOyuHn7+KAnNJvNgUFw71i19fX1vpnjXC6H53lhiWSQkerNnLuuSz6fH3jyG5SPF4tFKpUKi4uLJJPJWALi3sC8UqlQrVZ10i4yZVqtFmtrawDhGLLerTyAyuC36f09EQTqnufheV74b2ZZFu12m3a7HQbpwb9ju90OR78FjwVTOmzbDqu5gmC8NzB3XRfXdbeM04Ot5fm9guqIcrnc98LyBKhg5pe/B3jH5t9FjhVl0EXGxwzmCvElcS9kinwH8AHgNuDyg7xwbm6O2dlZ1tfX+45e8zyP5eVlgPAkq9PpsLq6umWv4vLy8sBseHCiVygUwuA8mNk7SsFFglarRbVapVKpxL7vXURGx3GcsNllKpUKg3WVwB9M8JneO+kiyLoHjdq2X/wIPn+D3yPb59ofpBN/UA2xvr5OoVAYyvc4JHdgzn/eiBmTdirW1YjETBl0kfHx0yg4j9o3YwL0GzhAgB5kz6vV6sC56LOzs+HJlm3bAKyvr28JzvP5PKlUqm+WIzh5W11dpV6vMz8/P/LgPDiJ9H2fUqlEtVpVKbvIMRSMdAxGtmUyGdLpNJlMBtc1p4oHDRaPo93+fYLAO/i6V3BB9LAz2YOseaVSYXV1lUajcajjjNgNwIcxTd/eC0zUFQWRYVKALjIezgd+Pu5FTKFLN//8BPuYhx7I5XJ0u92BHW+DxjxByaJlWaytrW3pbJ5MJsnlcn0D3iBbErxmbm6ObDa7r+A4uCiw/QTvoIJu8tVqlVKppMBcRADCC3alUgnP80ilUmEzzKDUWpn1gxvWv5fruvi+z8rKyjh3aW8A92CC8vdjgvKb0Xg0kb4UoIuMh18CFuJexBS6aPPPdwN/sJ8XuK5LNptlbW1tYOY76OzeW6JerVbD59i2zfz8/I7Ra8FjvcH5zMwMMzMzewbIQfYlGNkW7Fk8qCDbX61WKZfLYzs6SETiF3QvL5VK4WdjOp0OG5UFn2/KrI9eUA5fLpdZW1sbt6x5ETOn/EvA14FPY4JyjUUT2QftQReJ39WYX2D6eYzeV4AHb359K3DFXi9YWFig0+kM3L+Xz+fJ5/P4vo/jOJRKJYrF4pbnzM/P982IB8FxUNaeyWSYn5/fc793EJzXarVwVu9BT4Z795kH5ewiIoeRSCTCudvJZBLXdcM+HOpfMVyO42BZFo1Gg7W1NcrlWJLQFaAEpDDZ8VuALwI3YQLzk5h95SrNEjkEZdBF4verKDgflvOBLOZk4oPsEaAHjZG2B9yBIIPU6XRwHIdKpbLjuZlMhkwmMzBzvr6+Tr1eJ5lMMjc3t+c3EHSGr1ar4ZidgwbnwYWBSqXCxsaGytlF5EiCeeClUgnHccLMejKZDD9Hg2ZoyqxHI9hn3mw22djYoFgsxnkx5CzwNuBPgdvjWoTItHLiXoDIMfco4JVxL2KKucA7gbuANPDsQU+0LIuZmRnK5fLAAHZubo5kMollWdTr9R37/RzHYXFxcUszINg6fq3RaITPCzJOg9i2TbvdplqtkkwmSaVSBzrZtSwLx3FotVoUCgXK5bJOlkUkUt1ul0ajQaVSoVwuU6vVaLfbYUAZjAsLnisHE4xdC7qznz17dhxGYM5hmrBeCySBr6HydZHIKGsnEq9/Bf5L3IuYct+LudJ/DfBlINHvSel0OuyC208ymWRpaQnbtmk0GqysrOwIrufm5nbsJw+C87W1tXC/9/Ly8sDu7gHHcWg0GtRqNTKZzJb9nvsRZM3L5TKlUkllpyIyUrZt43leWAafSCTCueEqhd9bUMper9fDaq0xrn66B3g98CbMXnMROQIF6CLxuR74aNyLOAZ+BlOGB6ab+2O2P8G2bZLJJPV6fWBWIgiqm80mKysrO06UUqkUi4uLW046Hceh3W6zurpKq9UCzHi2fD6/Z3BeqVSo1+vk83lc1933yWyw17zRaFAsFtUETkTGgud5JJNJkskk6XQ6LIUPJlJ0u91jHbQHn91g/i2CRp4TWPn0XuAdwD9g9qmLyAGpxF0kPv/AuTFgMjw3Y04YAB4KPHz7E4IxNYNODtPpNLlcjk6nM7C7+/z8PI7jhCdSQfn62tpaGJynUinm5uYGZkGCkvTgpGx2dvZAmfPerr7r6+vjnG0RkWOm0+nQbDap1WphZU+j0Qj3qQfTKYJy+OMi+L7BdM0vl8usrKxQKBQm9QLrVcDTgB8E7g9sAGdQCbzIvimDLhKP78FcYZbheyvwrM2vvw948/YnbN8zvt3y8jLpdJrV1dW+JfAzMzNbAu8gOF9ZWQmDc8dxWF5exnGcvgF3kEkqFouUy2WWlpZIpVL7DrKDbH2xWKRWq+3rNSIi4yLIrgcd4hOJRHjRszfLPsmN53rHcwbfV6vVolarhRcuJvV728NnMY1a3w98KOa1jBtv889WrKuQsaIAXSQenwYeGfcijolPAo8DusAiZhzM3u3TN6XTaZaXlymVSjuawoEJxk+cOBEG3kGJ4srKypa5tAsLC2Qymb4Bd/Ca9fV1qtUqCwsLpNPpfWXOe0va19bWlDUXkYln2zau6+K67pb968E4t2B/dm+n+HENbINmeZZl4fs+vu/TarVoNBpUq1WazeauW56mTAcTrL8beAvm9/FxDUwvBB6CmTLzcY7vv4P0oQBdZPSejLmKLKPxDUxZezAP7WOYgH1fzjvvPCzL4syZM30D5tnZWXK5HL7vh5mRtbW1LVnsbDbL/Pz8wOC82+2ytrZGvV7f1x713teCaQS3sbExtieoIiJRSCQSYbDueR6O45BIJMLAPfgM3P5Z2Pv3KD8ng8x+v6+DLHmz2aTVaoWj6er1elhZJXwME6x/CvhIzGsZlTzwEuA64O3Au4B6rCuSsaM56CKj9z/iXsAxcwnmSnUQoL+LfQbo2WyWRCLBvffe2zc4TyQS4Vz0IJNdKBS2BOee55HP5/u+fntwnsvlwmB/LyppF5HjJghyewX71h3HCbPswS3ItAefz72N2LY3qOv9s1fwnN4APPg8DzL3wd993w8z4o1Gg3a7Hd6kr+s3bwD/sXl7C3ADUIhrUUNyCfDLwJOALwC/BtwR54JkfCmDLjJaT8UEiDJaT+LcvrfHYa7a7yooXQ8atvXTu0/cdV2KxSIbGxvh45ZlsbS0RDKZ3BF0Byd7QXAe7GMPSjYHCU4wa7UaxWJRJ34iIgMEjTcdx9kStHc6nS3z2eHcWLPtut3ujs/vdrsd3u/7fhiE7/X5Lft2L/AB4H2YGeufw2xTmzQ54NuAZwMvwjTM++/Aa+JclIw/Begio/Up4FFxL+IYehHwd5tfLwE3Auft9oLZ2Vkcx2Ftba3v45lMhvn5+fBEr1QqUSwWdxyjX0Y8yJyvrq7SaDRIpVIsLS3tKzi3LItSqbTlQoCIiMgU+zwmUP8kphT+ZsZzz7YLXAE8EXgCZo/5tZuPvRX4CeC+WFYmE0Ul7iKj8x0oOI/LxT1fr2Dmzz970JODUsl+TeHABNi5XC78ul6v7wjOk8kkMzMzO0rbg+B8fX2dRqOB53ksLCzs2eRoe5d3ERGRY+Khm7fnA1VMhv3LwE3AZzC/12/BjHMbZaY9hQnAr8ZU6j0Js6Vupuc5BeBlwF+OcF0y4RSgi4yO9p7HZ/u8+c+yS4CeTqcpl8sD94Lncjk8z0xGCbqn97Jtm7m5ubDLcMBxHHzfZ21tjUajgeM4LCws7Hjedr0z1et19ZIREZFjK4PJUl8BPKPn/pPAKUxj2HuBOzHZ6lOYwH0dKB3i/eYwQff9Nv+8EDgfuAC4HPjWXV77NuAXgFsP8b5yjClAFxmN7+ZcIxQZvcu2/f1DmK6pqe1P9DyPbrc7MBB2XZdsNguYhkXr6+s7gutsNovneVsC/KCp29raWtjkaG5ubsfztnMch1arxfr6+o7mSCIiIgKYJmyXAI/ddn9181bbvIEJ2gsMjoM6QBpz7pDbvM0A9j7XchvwcuAN+3y+yBYK0EVG42fiXsAxdw2QAIII9wbgNHBV75Msy8J13V2z1DMzM7iuS6vVYm1tbUeTNtd1d5S227ZNq9VidXU1fP7MzMyes86DtWi+uYiIyKFkNm+9rhni+/0B8FtMXxd6GaH9XgkSkcN7OCaDLvG5EFju+XsH+PT2J1mWRbPZHBgMe55HJpPB933W19f7dlDP5/M4jhPuJ7dtG9/3twTniUSCXC43sClccKGgUqmwsrKi4FxERGS8vR8zJeYXUHAuR6QAXWT4Xhr3AgQHU/rW693bn9TpdHYNhmdmZkgkEmxsbPTNsqdSqS1Z8WDveG9wblkWc3NzW4L4Xr3N4NbW1jSyR0REZHzdCPwI8F3AJ2Jei0wJBegiw3UZ8Jy4FyFY7NyH/jlMJn1fgtL1SqVCqbSzz4xlWWFn9263i22bj9f19XVarXPTYPL5/MB957Zth8G5xqiJiIiMrbPATwOPBl4b81pkymgPushw/Rh9GpFJLK7Y9vc7MbNVH76fF+fz+TAb3k82myWRSGzZU14oFLZk2tPpdN/Ra7B1/FqtVtvxuIiIiMTuJPA3wKsw491EIqcAXWR4ZjBlTzIertpF929zAAAgAElEQVT29ybwAfYRoKdSKTKZDCsrK32Da8dxyOVydLtdLMvCcRzW19epVCpbnjM7O9v3+MH4tdXVVXVqFxERGT/3An8IvA4ztk1kaBSgiwzPczGzMmU8XNznvhv288JcLke5XB7Y3T2Xy4VBtuM4lEolyuXylufMzs7iuu6O0nbLssLZ6ArORURExsqXgL8CXg+sxbwWOSYUoIsMj7Ln42Wpz30fw/zCXRj0onQ6TbfbpVDo35Q1mUySzWbD4LxSqex4bjabDbu/9wrK2pU5FxERGSvvAv4BeGPcC5HjRwG6yHA8FHhM3IuQLU4A9wPu7rnvHuAmzGiUHSzLIpVK7dqwLZfLhWXttVptR3Duum64f71XEJwrcy4iIjIWbgX+BROY/2fMa5FjTAG6yHB8f9wLkB2WMfPQ7952/4cZEKCn02kajcbAADqTyZBKmR6AzWaTQqGwYyxaMFKtN3vemzlvNBqH/HZERETkiNaBfwXeA7wdUJdWiZ0CdJHopTH7z2W8uJgM+nbvA16+/U7HcQCoVqt9D2bbdpg9b7fbrK2t7Shhz2QyJJPJHcG57/sUCgUF5yIiIqN3H2Zm+RswI1fviHU1ItsoQBeJ3pPo35BM4ndRn/tuZNs+dMuySCQSuwbQ6XSaZDJJu91mdXWVdru95fHeuegB27bDUW29s9FFRERkqG4APgt8Eng3GpEmY0wBukj0nhX3AmSgy/rcV8CUuT+z985Go9F3pBqcC76D5nH9SuDz+Tye54XZ86DMfWVlRcG5iIjI8NQxAfgngA8CXwE+v3m/yNhTgC4SrQzwhLgXIQMNGnv3IXoC9G63u2Mvea+ZmRmSySTFYrFvCbzneWSz2fAYlmXR6XRYW1tTcC4iIhKdOnAauAVTqv4lzISWW1BALhNKAbpItB4CXB73ImSgq4EksL12/XP7PYBt28zOztJoNCgWi32fk8vlwr3mlmVhWZYawokcUDAdoZfjONi2DYDv+2GVS7fbpdPp7HphTUQmWhMzeeVW4Hbgq5tf3wqcBPr/QhaZQArQRaL16LgXILu6GsixM0D/MuaX/JV7HWBmZgaA1dXVvsFAKpUilUqFpe22bVMoFKjXdSFfpB/XdXEcB8dxwq9d18W2bSzL2vLc4IIXsGULSvCz2Ol06HQ6tNvt8E/f98ObiMRqA1NqngNmABsTeK8AXaCNyYI3MRNX1jb/PI0Jzmubx+i//0xkSihAF4nWI+JegOxqAcizszlMBfgMewTorusyMzMzsFTdsizy+XwYQNi2zcbGBuVyOZLFi0wD13VJJpO4rovnebiui+u6Oy547ZUNDzLpge3BfHBft9sNA/V2u0273abVatFqtQb2mRCRoWhhLoj/NqaTurV50w+iSA8F6CLRuiruBciergRu63P/p4Hn7fbCXC5HvV4fOHotm82SSCTwfR/HcahUKmxsbBx9xSITznXdsLokyJIHUw263W4k2e3dAvogK59KpcJy+E6ng+/7NBqNMGBXll1kqBaBnwaeDPwq8DZM5lxEeihAF4mW9p+Pv0H/jd6324s8z8NxHNbW1vo+7jgOuVyOTqeD4zjUajUKhcJR1yoysSzLIpVKhSMJg4x3b4A8KtsbP1qWFWbuk8kkYPa0N5vNLTcRGYoHAP8CvB14GWY/uYhsUoAuEq1U3AuQPQ0K0G/GzER/cL8HM5kMpVJpYFCRz+fDhlbNZpO1tTU1rJJjybZtstksqVSKRCKBZVlbGrqNg36TGmzbJpPJkMlkwnL4VqtFrVZTObzIcDwDeDzwf4E/AfqXp4kcM87eTxGRA/g5zKg1GV/3AW8a8NjV9Gn0F2TYarVa3xclk0lmZ2exLItWq8Xa2ppO5uXYcRyHbDbL3Nwc6XQax3HCbPmkCAJ3y7LwPA/P80in06RSKRzHCS82iEhkUsC3A08F7sSMRxM51hSgi0TrCZggT8ZXBfirAY8lgB/ovcOyLBKJxMDgHGBubo5kMkm73WZ1dZV2ux3dakUmwMzMDHNzc2Sz2bAx26RXkPR+D47jbCnX9zxPY91EonUB8AJMFdvXgDPxLkckPgrQRaJ1AviuuBchu6oAf4PpJrtdC/gxwAvu8Dxv1/LcVCrF7OwsnU6HtbU17VuVYyWRSDA/P8/MzEzY9G1aBcG467okEokwWA8uSEzz9y4yQg8EXoQZw/Z5QDNK5dhRgC4SrQLwEvSzNc5s4J8w81W3KwLfAVwW3LHXiff8/DzJZJL19fWB3d1Fpk0wUnBubi68iHVcssm9ZfCu64Yl8J5nruupgkbkyDzgeuCZQAP4QrzLERktBREi0VrH/EI5P+6FyEBpTOfY2wc8/gDgcfs6UDrN7OwslUqFYrEY1fpExprneSwsLJDNZo995jgI1m3bJplMhqPkgmqC4/xvIxKBReB7gG8D7sDsUReZegrQRaLVxWRf9xXgSWw+BHxxwGNptu1D78eyLBYXF+l2u6ysrByb7KEcb5lMhsXFxTBrvp1lWViWhW3b4deWZW15bK/b9tcGrx9327Pq6XQaz/OwLEtZdZGjuRz4YUz5+82YZq8iU2syfuuJTJbHAx+OexGyq5cD/2fAYzngVmB5twNkMhkWFhY4c+aM9p3LsZDL5cjn8wNHlAV7sX3fD/s2tNvt8O/BY/0uZgUd0m3bxnEcHMcJv+79E/bedjIugu+n0+nQbDap1+vUajV1gRc5mhLwWuAVwKmY1yIyFArQRaLnYa7wXhbzOmSwVwEv3eXxd2FGvvRlWRYnTpygWq1SKpUiX5zIOHEcJxydFnQu781uBwFoq9Wi1WrRbDYjzRi7rovrunieh+M44fgz27bDYH+cu8b3/lu1222q1Wo4W11EDm0FM5HlVcBdMa9FJFIqcReJXge4Fnh43AuRgVaBN2C2JPRzAfCdg16cy+WwLItCoTCMtYmMDcdxWFxcJJVK4fs+tm2HWeFWq0WpVKJUKlGpVKjX67Rarciz20EmPshCB5noRqOB7/thCXxvln3c9O5VD8a1JRKJsKpARA4sg2kk9/2YCTpfxkxpEZl4CtBFhud5cS9ABmoBfwcMqk1vAT/e7wHbtsnlchSLxYkosxU5rCA4TyQSdDodHMcJM8AbGxuUSqWhBOR7CUrc2+02jUaDSqUSBuvdbjcskR/XvetBBUIikQibylmWdaw64YtEKIfp+/PCza9vxpTBi0ys8fztJTL5loCb2GMfs8SmjunWfseAx2eBGzCNabbI5XK0221qtdrwVicSM9d1WVhYCDPnzWYzzJKP+4Upz/NIJBIkk0kSiUQYrAfl+eMm2L/farXCCw4qfxc5tLsxF+BfiUrfB7EYXEEoY0AZdJHhqAKPxHQclfHjYn6B3zvg8QbwUOCbe+8M9sBq3rlMs0QiwdLSEslkkkajQalUolgs0mq1xjLA3S4ov6/ValSr1bCEfFwz60H5u+M4JJNJ0uk0yWRS5e8ihxNk1F8MnIf5Pa+u78YMJjlxBgXoY00BusjwzADPiHsRMtB7ga/t8vhFwFOCvwQlqfV6fSKCFJHD8DyPEydOYFkWxWKRQqFAo9GIe1mH1u12w2C90WjQbDaxLCvcrz5Oe9aDQN2yLDzPI5vNkkwmcRxnKmaqB1slREYkCTwK+FHg/sA6g6vmjoNnY+bJ34oJ0GWMKUAXGZ514CWYru4yfj4LfHqXx+vAj2Cy7eFJsjJaMq1c12V5eZlGo8Hq6urUXYzqzaz3NpgLMuvjJAjWXdcN96l7njcxI+Z6OY5DNpsNR+6JjJgDXAf8IPAETO+ZFaAc45pG6TrgTzCVBX8N3B7vcmQ/xus3ksh0KQBPos8+ZhkLt2PGqQ1yH/AcTIncRJ4Yi+yX4zjMz89Tr9cpFApT//96MBquWq3SarXwfX8sS+B7u78nEgkymcxENZXLZDLMzMxorJyMAwtzPvYsTOf3SzCJlGndpz6LmRX/WuDfgF/g+FyUmHgK0EWGaxH4rrgXIX1tYPah7+YhmL3oIlMryHDWajUqleM3pSjoBh+MiQPTuM11XSzLGpsguDernk6nw1FtvY+NC8/zmJ+fJ5VKhf0LRMZIHlP+/gLMOVoDE6xvxLmoiFwAvBR4M/B4TCXg78W6Ijmw8blMLDKdrgO+FPcipK+bgAft8ZxnAW8ZwVpEYhHM5W42m7Tb7biXMzY8zwvnlXveuV1K41RZ0Lt/3vf9cEZ8s9mMbZ3B3vlcLker1WJlZUX/X8mkWAXeBnweU113Mt7lHNhTgG/HjPi9ADMu9ruBD8a5KDkcBegiw+UBnwQeFvdCZIe7gG/B7EUb5GLg60B6JCsSGTHbtscu+zpOgkx6JpMhmUyGWfVxG9lmWRa2bYfz4dvtNvV6nUajMfS1BuX3qVSKTCaD53lsbGxQKBTG6t9I5ADuxTSRfTfwVuAUZu/6OFkErgGej+la3zt15hSmSfENMaxLIqAAXWT4fhN4edyLkB1qwPWYq+WDuMBHgMeMZEUiMrZs2w5HoKVSqS0XN8YlELUsK7wFY9parVZ4Cxq1HTXD7rrulnnzruuGjfaKxSIbG9NQKSwCgA98BvgA8BVMF/QvY8riR20Bc97yBExX9gv7POdTwAuBW0a3LImaAnSR4Xs88OG4FyF9PZu9S9h/C/i1EaxFRCaE53lhoO55Ho7jjGUjyd6AHUwpvO/7YaAeBOvtdju80BB8D0HAbdt2OJYu+F5d18V1XcCU/du2je/7FItFqtVqPN+syGi0MZV1JzFbGD+NCeCLmCx7FHs60pgmbw8Crt3883LMuLjdGg//DvDrmIsKMsEUoIsMXxa4Ebgs5nXITj+LGT+ym+8B3jGCtYjIBEokEmHDtkQiMZYl8IHtAfv2CoDeNfd2s9/+uuD7C0rr6/U6GxsbNJvjVgUsMhIVzGzxFUx5+RnMJJj7gLsxU30KmNns5wH2ttcngYuAE5iy9esw+8iz+3z/ezHnM/90lG9Cxocb9wJEjoEKZsTFj8W9ENnhon0852PAPZhfliIiWzSbTZrNJpZlkUwmw/3YwX51GJ8u6/3W0Rt47zZirrc6IJgfH2TNS6XScBYsMhmymMz25cDDBzynhelLFLX3Ay/GXBiQKaExayKjkcDM1Jbxcpq9S9zrwJOBq4a/HBGZZMHItlqtRqPR2JJlDkrCxyFQPwrbtrEsi1qtRqFQoFarxb0kkUkwjJjrFcCLMOX1MkWUQRcZjQ9iSp+W4l6IbHEx5nNwrz1jH0Pz7EVknzqdDo1Gg0bD9JFKpVJhCXxQBh8Yl+z6bnqz7M1mk1KpRL1ej3lVIsfWGc7NOpcppAy6yGjUMSO9rot7IbKFA/w9ZhvCbhpoi4KIHFJvZr1er2+ZDR40YdutvDwutm2H49sajUZYzq7Z5iKxeRNm1vnH416IDI8CdJHRmQeeHvciZIs08Fp2n4XO5uPB3rF5TEMXEZED63Q6NJtNarUatVotHH/W7XbDUvjtTdlGEbwH7xeUsNu2TbvdplqtsrGxQblcVmAuEp8vAD+JGd27HvNaZMjG73KtyPS6AvgikIt7IbLF9ez/SrSDaQJzP8zYkydhKiMWMYG7iMihBePLXNclkUjgum4YMAdZ9t06rx/EoM7s7XabZrNJo9Gg2WyO3eg4kWOmBPwe8EeAZhgeEwrQRUbrw5i56DI+ng+8/ojHuBR4BPBIzIWYB2Jml4qIHElvwN47k7z3636CwH179j0YA7d9DnoQmLdaraF/TyKyL28HXgZ8Ne6FyGipSZzIaP0bCtDHzTURHOPOzVvQsGUWE6BfjBm58kjgwcAc+twVkQMIgufepmxBCXpw6/17EJh7nhdmxIPXdDqdLTff98e+QZ3IMfRZTCn7O+NeiMRDGXSR0XoIZh+RjI83Aj8wgvfJYS4GfBsm237h5t/PG8F7i4iIyHj7DPAqTFWfH/NaJEYK0EVG73PAQ+NehIQ+Ajwhpve+FNPZ/wrgWzGB+7VA/5pVERERmTbvwjSs/ee4FyLjQaWWIqP3fhSgj5MzMb53UBofyAELmMZzj938837A1UBi5KsTERGRYTiDCcz/ElPSLhJSgC4yeu/BNP2Q8fD1uBfQo7R5uxPTHAZMNv3hmO0Rl2CC9kdgOseLiIjI5LgN+BvgH4E74l2KjCsF6CKjdwNwO2Zcl8Tv9rgXsIcOZl/aZ3ruuwi4AFOJ8Sjgm4HzN28iIiIyHtrArcAngbdgsuUrsa5Ixp72oIvE43XAC+NehADwRMz4u0l3ISaz/k2Yve0P3fxaRI6P24AvAs+MeyEix9wHgE8D/w58FHOxXWRfFKCLxOMHOPrsbTm6JqZkfBpnjOaAqzB72B8KPA54EGaPeyrGdYnI8NwL/DbwbuDbgRdgPuNycS5KZMrVgQLm4th7MQH5DbGuSCaaAnSReMxhSp4W4l7IMXca0z39bNwLGZEEJqv+MMye9ss3/65RbyLT5bnAmza/vhZ4NvAkTMWQyCTygVswF5vuF+M6WsA3gJuBk8B/Al8GbgIqMa5LpogCdJH4vBX43rgXccx9HDOXvBv3QmJ0MaZL/EXAozH/HpcAM3EuSkSO7CeBP99232OBpwMvQhfmZLL4mKZq3wDeDKxierF8C+b32InN2xymx1Ya87u9i4l3dhtfGjyvuXkDcwF/A7gPc2HgFkxAfgrTu6Yc1Tcmsp0CdJH4/Cjw13Ev4ph7A/C8uBcxZpLAPOak5zGcO/m5FnPCIyKT4+eAP+5z/xwmq/5CzPYXkUnRAj6P6YL+VuDunscygIf5//siTFDfARzgMiC7eV/AwQTkd2we9wznGrjVMQ3eep8vMhIK0EXiczFm73M27oUcY68AfjHuRUwAG7gOeABwJSbT/nBMtkJExlu/THqvJwE/DDwfnRfKZKkB/wS8EhO0i0wFfRCLxOs9wHfHvYhjbK8TVxlsefP2SODxmAz7/TDl8SIyXn4C+Is9nvNNwM8DTwWWhr4ikeg0gY8ArwI+CJTiXY7I0ShAF4lQLrf/Rrm2bdvtdvu1lUpF49bi0cXsxXxn3AuZIkuYkvjrMPvaH7b5dy/ORYkIAE/DdHffy5XAi4GXol4UMnm+hCl/fyNmz7jIxFGALhKhiy+++CBPt7vd7j9WKpXv39jYwPe1zWnEypg91l+OeyFTLI2Zz34JpjnVo4ArgPMxewRFJk2dyR1T6GMak/7rPp9/GWYP+4+irVgyec5gsumvAT6BKYcXmQgK0EUidMEFFxz0JS90HOd17XabQqFAvV4fxrKkv9OYPdXqxDp6DwCux5TFX40prb001hWJ9Pd1zGzjrwKfA9Yw5eIviHNRR1ADngH82wFe8zDgZ5jc71nk05jO728Dbot5LSJ7UoAuEqFDBOgLwC22bc8DVKtVisUinU4n8rXJDv8BPCLuRQhgxj1dsXl71ObtEtSETkanhQm+bwQ+hZlt/A1Miex6n+f/BvA/R7W4iLUxmfSDbu95PPArqG+KTK6zwGeBvwE+jPmZFxk7CtBFInSIAJ1ut/tOy7KeZlkWtm3TarUoFovKpg/fP6KM0DibwzSgezhwf+ByTCYvEeeiZGqcxWTHv4a5WHcTJlN+kIqa5wJ/yWRu16gBzwTee4jX/jDwa5i96iKT6i7gb4EPAR+IdyljJQHkMHPmJSYK0EUidJgAHfgl4PeCv9i2DUClUmFjY0PZ9OH5LeDX416EHMiDMftir8FUPzwGk2VPxrgmGX81TDb8Bkyp69cxZa53RnDsazBlsw+I4Fij1sY0ynzPIV67APwsJlC3o1yUSAw+A3wcM7Lti5iKmuPmBOaiuIeqC2KnAF0kQocM0H8IeG3vHZZl4TgOjUaDYrFIo9GIYnmy1YsxzWNkcmUxTegegZnNfjUm076weZPjpYtpDHXP5u0GTLn6jcDdmFFMw3AZ8HeYvgqTpoL52Tlss8xHY0r9vyuyFYnEp42ppnkD8DFMdc2wPjfGxf2A52O2mH0YeD/9t/XICClAF4nQIQP0J2I6je4QZNPL5TIbGxt0u93DL062ux5zxVymyywmE3Ae5sTjfEzQfuHm7bLN+2UydTCZ77uAW4FTmH3iq5ig/O7N+0ZdepTA7Gt9/ojfNwr3AU/maBMtfhz4X5ifN5Fp8XlMdv1jmEqTYrzLidS3AC8DHoIp8f9tzGenjAEF6CIROmSA/kDgK4MeDPamNxoNNjY2lE2Pho/Jtt4e90JkpBJAHrO/7hJMsH4F5wL3eUyAMYvGSsWlsHlbwZRYfh0TgJ/E/LzeB5Qwe8XHsQz1N5jM5nEngaeyy++ifbgM+GNMl3iRaXMvphrnPZjM+ingjjgXdAhXYXq5vAR4AuZ7+DHgfTGuSfpQgC4SofPPP1Ty4HLgy5Zl7RoQBNn0UqlEqVRSNv1obsM0H9MeK9nufpzLvl8MLGJ+Ri/ZvO8iTAAvh3cWExCe3vzzbkzgfQcmC34vJkifVP8NeBWTtzf7Lkyp+lGCdDDbtl6B+dkRmVbrmED9K5hM+0cZvwz0/YDrMOc7DwP+C+BsPvbrmF48MoYUoItE6JAZ9Hngk5hO1bsKsunNZpNCoUCzOe1bo4bmQ8B3YvabieyHhcm+z2EC9PMxc9wvxQTvl28+trD5uNP/MFOvDmxgAuwgA347Jvi7DbNHvIA5ua3EtMZReCZmX/qkVWLcjRmjdpRydzCVKb+N6XQvchzch7noeCNmH3tQ9RNUAw1zX3ca8/tnEfgm4LGYgPxiYPuJ6T8B/wO4eYjrkSNSgC4SoUMG6DYmYPy2/b7AcRx836dUKlEuH2QqkGz6O+BFcS9Cpo6DGT11Eeak6HJgCRPAX4TJZlzA5GVWt6tgstx3bd7OcC4AvxtzkjpumaQ4PAJ4PZM3juwOTCY9ihP4nwZ+B8hEcCyRSdTCfDYGPTNuw3xeFjFx2N1AFfP7w8Y0pTu1+ed5mKC7tfnc+2F+luYxAfkFmN8vV2z+uVsZ5+eB3wXeEuU3J8OhAF0kQocM0AHeBDz7IC8Isun1ep2NjQ1l0w/mNzANjURGJYEJ1hcwJ1cXYDLwF2Gy8JcDMz3PzWC6ksNws7AdzMmhvfl+Fc5VlhQwc8LvwJSe34JpxnYvJiOkObl7Ox/4Z8xIwElyFngSJht4VA/AzIvf90VokWOkDjQwn8E2Jhg/i/kcnsf0TPE3n5s/xPFvBH4fc55ZP+piZTTcuBcgIoC5gnog3W4X3/dJpVJ4nke5XKZUKg1jbdPoZNwLkGOnifk5H/SzbnGuLH4OkynxN+8P9r03MYH7pZvPbWAC/aWeY1yEaaAWlFN2Mf+/lzGBf5lz8789zo0lczefe4pzpec+5y4SyOHcC3wH8EbMzPFJsQy8HbMV6NYjHuurmC7xv4/JqIvIOanNW6+5CI57G/DXmH4Q49hQU3ahDLpIhI6QQf9lTOnRoViWhWVZYad3ZdP39GTg3+NehIgcK38GvDTuRRzQCmYUaBSZdDAXKV7DuYtKIhKtIvCHwCtRI9yJNen74ETGSrfbPeztSM1Dut0unU6HVCrF4uIiMzMze7/o+Cpi9siKiIzSTwE/F/ciDmgJeAdwTUTHewdmvNPHIjqeiBi3Ar+G2VLyv1FwPtEUoItEKMhkH+J2VxTv7/s+lmUxNzfH0tISnudFcdhps4ICdBGJxx8Dz8JsT5gUlwMfAR4f0fG+gtmP/ucRHU/kOPsCZrTjwzGTE+6JdzkSBQXoIuPhLBGdsPXuTVc2va8VzD5cEZE4vBWzLz2SC7Mjcj7wHkx396j8JPBi1LhK5KDWgH/BjER8HPBqhjvGTUZMAbrIeLibiD9cfd/Htm3m5uZYXFzEddUTctOdez9FRGSoPo7JIn827oUcQBrTkf67IzzmazD/Dv8Z4TFFptXngZcBjwaeCbwPqMW6IhkKBegi42ENiLwFe5BNT6fTLC0tkc0Oc1rTxDhqR2IRkSjchtmP/eaY13EQWUwm/ccjPOZ/ANcDb4jwmCLT4nbgrzBVN9+GaSh8c6wrkqFTSk0kQt3uoScSVYGSZQ1nsILv+ziOw9zcHIlEglKpRLvd3vuF00kBuoiMixrwHOA3gZfHvJaDeDVmJvMrIjpeCXgepuz/FyI6psik+irwSeBTwD+ibSDHjgJ0kQg5jrP3kwZb830fMM3motbpdADIZrMkk0lKpRKVSmWPV02l2+JegIjINr+OmVf/50zOudnvY7q8/0qEx/xFzEi31wBH+oUqMkEKwNeAdwIfBG7CTJyRY2pSfgmITIQjdk0/bds2rVaLbrc7lCAdzmXT5+fnSSaTFAqFMHg/Jm6JewEiIn38Faac9e8xTdkmwS8DVwPPBaIqy3odpi/L64ALIjqmyDjpAl/H9F74GPCvmAt0IoACdJFIHTGoPuV5HkGQ3ul0hhakB8dOp9MkEgmKxSK12rHoM3IS2Ih7ESIiA/w7ZlzSa4DvjHkt+/VMTNbv+zGBdRT+DfPv8HrMvluRSVXF7Bn/GvA5TJLgFPANhtB7SKaDAnSR8XGq2+3iOA62bdNsNsO55sPQ7XYJ3m9hYYFKpcLGxsa0Z9NvQyPWRGS8nQaeArwKM994ElyPCaqfiylRj8JdmH+H12CCf5FxVceUqa8DZzAXqj6D2Uv+ZWAVaMa2Opk4CtBFxscpONdoLpFI4Ps+7XZ7JNn0mZkZkskkGxsb05xNvwPw416EiMgeOsD/B3wR+GMgFe9y9uWBwEeBHwLeEdExq8APAPcBPxPRMUUGKWHKzpPAHGBhJl7dhgnCa5gLR+vAvZjAe33ztgqsYP6fFTkSBegi4+Oe7Xe4rovjOCPJpvu+j+u6LCwsUK1WKRaL05hNvz3uBYiIHMCrMRm41wFXxbyW/ZgH3g78KvA7ER73ZzGlwX8W4TFFtlsH/hpzoel2TIA+i9kaN3UnRDK+1CFTJEJzc3NHebkH/LRlWXbvnZZl4brmWtowu7zDuex9MpkklUrRbpnGe6gAACAASURBVLfD95wSr8Gc7IqITIpTwJuAyzFZ6knw7cC1wHuBVkTH/CymbPjpmAynSNRmgf8KPBpYwPzs3Ydp6iYyMgrQRSIUQYD+fMuyZvs9GOxNB4Za8g6Ee9MzmUy4H35K/AUasyYik6eCCdLrwOOYjArI64AnAp8GzkZ0zFsw86GfiClBFhmGC4EnAz8CPAlzkWkF9bCRERneGb7IMXT55Zcf5eUJTCfcxw56gmVZdLtdWq0W7XZ7qEF68H5BgF4oFCY9UK8BD8PMFxURmVSPBv4GuH/cC9mn+4CfAt4c4THvv3m8B0d4TJHd3A38E/Ap4J9RybsMkTLoIhGan58/yst94Knso4TRdV0sy6LT6Ywkm+66LtlsFtu2aTQaQ3uvITsJ/B7qpCoik+008I9AHjOKbNzNAM/e/PMjRNOocwX4B+ChwJURHE9kLznMxbFnY0YLPhjTGK4MTOyJkYwnBegiETpigA6mdPGR+3mi4zi4rku32x1JkA6QSqVIJBLhnPYJ81XgL+NehIhIBOrAu4GvY4KGfLzL2ZfHYMqFP4fJqh9VE3gjJpv+oAiOJ7Jf52Eujr0YeD7wAMyWiw5mzJrIkShAF4lQBAH6t2Ca6+xL0EAuyKZ3u92hB+qJRIJMJgMwaSXvnwbeEvciREQidCPwBsye2Uko974Es693A9Pw7ag6mM/1b8YESSKjNoup5Phe4IeB7wQeBSxjsutlhjPe9cTm+16FGSErU0QBukiEIgjQrwGecdAXua6LbdsjC9ItyyKdTk9aNv1dwL/HvQgRkYiVMXti78Jc5O3baHSMuMBTgG8FPoEJ1o/KAZ4VwXFEjsIDLsX0u3kG8KPAi4DrMed3S5jAPYWZr77fmekuZoThtZg+Rb+CKbVfw4yEq0T2HchYmIQuoCITIygFP4LCYYLrTqeDbdskk0na7TbtdnuogXowNz0oeS+VSpRKpaG8V4TUvV1EptlfA+8AXgH8YMxr2Y+nY7Z0/RLwd0c8VuboyxGJXBbTI+FK4Pt67i9jJhucxgTXNfqXxi9gSudnMWX1l27e/w7Mz83Xh7JqiZ0CdJEIRRAQnwHaHOJnMwjIPc8LO68Hgfuw+L6PZVnMzs6SSCQoFou02+2hvd8R3RH3AkREhuwM8EJMh/Pfx2Tcxtl5wOswGfX/AXzjkMcZ3i86kejNbN4OOvrnFuClwPsiX5GMFX2giYyXezhCuV+32w1nmKdSqbCJ3DD1ZtOXl5eZmZkZ6vsdUgu4Oe5FiIiMyL9iyt1fjmkoN+6+H9M87mfiXojIGCphfjauQ8H5saAAXWS8rALFox4kyKYnk0kSiUR43zAFneTn5uZYXFzE87yhvt8BrWL2Z4qIHBd14P9gGkn9fcxr2Y888MeYhp6Pi3ktIuOgAbwa0wTxT5mMi20SAQXoIuOlgGn6cWRBNt11XZLJJLZtjyybnk6nWVpaIpvNDvX9DuAWTBZdROS4uQlT9v49wAdiXst+PBL4MPB/mYzxcSLD8G/AdwD/Dbg95rXIiClAFxk/hSgP1u12sW2bVCqF53lh4D5Mwd70+fl5FhYWcJzYB0bcAQz3mxYRGW/vxJzwPwdTTj7OHOAXgS8APwYk412O7KLLcMaIHVf/DjwNM67t4zGvRWKiAF0kQkHwe8Tb2WGsC8DzvJFm0zudDplMhqWlpXB2ekwO23hIRGTavBl4OPBDwGfjXcqergT+H/BJTAWAjB8LU6H2EeBkzGuZZB/GjGZ7MvDueJcicVOALhIhy7KiuJ0axtp6G8glk8mwgdwwA/Wg5N1xHBYWFlhYWMB1YxkeoVEkIiJbvQ5TTv5s4PMxr2Uv34oZLfU+zBxoGS8pzEixF2Dmfqvny/60gTdhgvInYv4fFyH2ulORaTI3m4du96i3q8F62rBmmIO5kOA4DpZl0el0hjozPdDtdkkmk6RSKTqdDq3WSLeE/ym6si8i0s9NwN8CXwLmMVnrcXUlJgC8HFMZFVScPRRl2ON2P8yc7p8HXom56JMCFjHBu5xzK/BG4IeBvwBui3c5Mm6Ge0Yucsxc84AHRnGYF7Trtb9vt9s4Q842BwF6q9XC9/3wvmGybRvLsqhUKhSLRTqdzlDfD6gCD0Fj1kRE9uNJmKz6jwCJmNeymzrmwsL/Ah6PCXgkfp/DbKEIXA58N6b/wdOBWMroxsS7gbcC/0zE/YZkuihAF4nQ477ne498DMu2H9uolD+6euftdqtawfa8oQbNwbFbrVaY1R52kA7gOA6tVouNjQ1qtdow3+pm4BFEML5OROQYuRJ4HvBc4EExr2U3dwH3YcrgZTy8B3gWsP2X+xWYiylPx4wOu3zE6xq1CvBF4F2YoFyJAtkXBegiEXr8M58TxWEutGzn9laj5hXuPk357H3QBXtE2fRmsxnONB822zZtMCqVChsbG8PKpn8Q+PZhHFhE5Jh4DvBdwPeh0WeyP+/GdCMfZBaTVX80JuP+WKZj620FMyLtM8D7MZMIRA5EAbpIhKLIoAM54DbH85awbcpn7mPtrpP49TpOYrjVhkFQ3mw2abfbW+4b5ntalkW73R5WNv31wPOjPqiIyDF0OaYE/vnAdcBSvMuRMffnwE/u43kucBVwLaZZ2vWYPe3nD29pkbkXuBP4EPABzH5y7SmXI1GALhKhiAL0JJb1OcuyHmzZNrbj0qiUWT91J9XiGpZlYw95rrhlWfi+T6vVGnk2vVwus7GxEWV3+d8FXhbVwUREBIDLMOXvj8AEVfOxrkbG1V8AP3GI150PPAzTQ+Yy4OrNW5xB+92YYPwO4DSmEd6HMVssRCKjAF0kQtc/41lRHMYC3k5PR1rbdaELhXtOs3HPXfjtNo7nRfFegxdhWXS7XZrN5sgayFmWhW3bNJtNNjY2qNfrURz2JZg5uiIiMhxXYDLqT8FkPy8BZmJd0QGl02nq9fpQR48eY78N/FoEx7kIOIGp3LgUE7hftnnf5ZgKxNTmzceMk07ucczW5nMBypjGsqcxmfH7gHuA/wTOYKbB3AsMvbutHG/HuZOiyLjqsm2GaKfdxrJt5i+8hFQuz+qdt9OslLDd4TWQC0avJZNJWq0W7XZ76OPYgrnpiUSChYWFcG/6EU6YfFRqJiIybEFZ79sx+4ivwGTVH41pMPdgIB3b6naRTCbJ5XKk02kqlQrr6+sK0qP3q8AK8EdHPM7pzVs/Hub/vfM2bzXMFILLMEF6v6DaAW7hXDO7Oze/bh5xnSJHogBdZDzdvf2ObqeD32mSnp3j/Ps/iOLdp9i471463Q6OO5xsenCS4nle2HXd9/2hZ9KD98jn8ySTyaNk06uoa6qIyCj5mBnl3+Bc9dKDgGsw88ofsHm7gr2zm0Pnui6u6+L7PjMzM3iex8rKSlg5JpH5Q0yF4B8O6fitzdudm7fA54f0fiJDoxJ3kQhFVOIOZv7sawY9aDsOlu1QXjnD2uk7addrOG5iqD/RcTSQgyPvTT+NuXquMy0RkfGRBRaB+wPfhBnpdi2wjClfzmLKlUfGdV1SqRTpdJpWq0WpVFKQPhz/naNn0kWmmjLoIuNpfbcHO76P1ekws7RMcibH6qnbqayuYNvO0BrIBYFxIpEIs+mjaCAXvEculyORSLCxsUGj0djvy+9AwbmIyLipbN5OYkZRBRxM9+5ZzpUqz2Eag523+ZiD2XN8AmhjSpfPxwT1h9ZutymXy5TLZVzXHckF6GPqDzF7w/8g7oWIjCsF6CIRiuxqe7dbsB0H27YHZoy73S5+q4WbTHLelddSnMlTvOsUfrs1tJL34H2dzbUFe9NhuNn03r3pi4uLlMtlSqXSfrLp2n8uIjI5fODU5u3GXZ6XwQTkwS/dB2IC/YH73G3bZmZmJgy+HcfZ9ferbdt0Oh0KhUL4e04i8wpMQ7ZXx70QkXGkAF0kQk502ev7gHq3203t9cROu41t28xdcBGpmTyrp26nUSxiuy7WZnl41LZn0xuNxtAbyMG5bHqwN71YLNJs7trL5ZahLkhEROJQ3bwFPo7Zd3z/fk/OZDLk83lc1z3QNinHcfB9n/X1XYva5HD+DNMh/R1xL0Rk3Azn7F1Ejmpl87YvnU4Hv9Uklctz/tUPZO7Ci6HbpdNqDXGJ57LpqVQqzEYMu/ttbzZ9aWmJXG7XbYpqECcicjzctP0O27aZn59nYWEhDLY7nc6+b77vR3nhXbbygLcB/zXuhYiMGwXoIuNpnQME6AG/1cR2bBYuuYylK6/BTafxW00YYtAclAImEgk8b3hj37brdMzElNnZWZaWlnDdvgVBd/W7U0REps7Xev8SXMTNZrNhwH0YwZYuGQoLeCPwtLgXIjJO9IkjMp5aHCJAB9NArtNuM7O4zAUPeDAzy+fj+206Q9xD1zuOLZlMYlnWoU+GDvq+vu+TSqVYXl5mZmam9+EqpnxORESm381g+qHMzc2xvLyM53n4vn/oyq6gSkxZ9KFKAm9HmXSRkPagi0Qp2uxx4bCZb9NAronrJVi+4moS2SzF0yfxWy0c1416nVveN8imt9vtkY1j833f7MOfmwv3prfb7a9gxqyJiMgUGRAwf8XzvGY+n08kEgk6nc6Rt1z1NkWVoXKANwPfC7wz5rWIxE4BukiE/Giz1GeOetXeb7exLJu5Cy4knZ9l/eSdVNdXsB0Xa4jj2CzLChvINZvNkTWQA0in03iex8rKypfa7fa+57GJiMj4y+fzZDKZflVaV7uu61iWFen88m63i+u6BxnvKYfjAv8C/BTwlzGvRSRWCtBFIhTxVfY7ojhIt9vBbzZJZmc4cdW1FO7JUrznLrrtFvYIxrElk0larVZ4wjTsQD3ImHS73ZNDfSMRERmpfD7P7OwsnU5n0O9bZxjbqwb0OJHoucBfAAngT2Nei0hs9IkjEqGIg89IG5z5zSa2bRrIpXJ51k/fSaNcMtn0IY5jsywrDNLb7fZIsumbFwR2m6ErIiITJJfLMTs7u9tM8s8ARWA26vfWHvSR+5PNPxWky7GkTTUi4+teINJUQKdjsumZuXnOu+aB5E5cQKfj0/F9TDPV4eh2u2EDOcdxht5Azvf9AvCFob6JiIiMhGVZZLPZvUrXb2MIkzuC31+jmlAioT8BfiPuRYjEQQG6yPi6B6gP48B+q4XjeSxfcRXLV16D43n4rcZIxrElk0k8zxvqzPRWq3WWiLYIiIhIfLLZLEtLS9i2HTZ+2+X2lWGswbIslbnH43+iLLocQ/q0EYlQxFfYTwONbrebifKggU67DZZFfvk8Epks66dPUl1bxXJsbHuyG8i1Wq2vwvD3u0+aYV0QEREZhnw+z9zcHL7v0+l09vOZ/hXg2VGuIWgSF2zVkpH7KWAR+EEirioUGVcK0EUi1G5H+Mu7S9myrYLjuPNDC6y6XdrNJslMlhNXXksxc5rivXfht1s4Q2ogF3wvjuOQSqXCvelRBNNB917f9z/R+14iIjJZevecH+Cz/HNRvX/wnp7nkUqlqNVqlMvlqA4vB/M8YB54EXA25rWIDJ1K3EUi1Ol0I7v53U630+3eCsMPMv1WC+iycNGlnHfNg0hmc/itJt0h7hUPTn4SiQSJRGLLfYdlWRatVotOp/P1Iy9QRERiYVkWuVwO3/cP+nvhliguzG7fkhVUfkmsngJ8GPjmmNchMnTKoItEKJ1KRXYsy7Jo+/6ZZruNN4IOst1OB7/bIp2f5bxrHkDh7lNs3HcvVreD7QzvoyIoH7RtOxzHdthsumVZtNvtbrfb/UbEI++myrCb9ImIHJZlWSwuLgKH+qy6F9Ms7orDvv//z96dx8lxVYce/1VVr9M9+2hG+2LJu2VjGy94lbExNsSsYQ0QkhdCyAIkJLwHLwEeWUjII4/wQiAPkkCAQACDARtveF/wbsuWLNmyLWlmNPu+9XR3Le+P0yPJYjRLd1VXd8/5fj73M9JMd9Xpmp7qOnXvPXfuM2kuMfc8D9d1D39O6fkzVKcBNwLvBB4IORalAqMJulI+2rZuk2/bkgsDhvuHBxmcGMEwDKyA5obP8TwPJ5/DikRo3bSVZH0TI10HyGWmsaKxwOZ0H91bUepybI7jPAd0+R+lUkqpIJmmSWtrK4lEotipT+PALykiQZ/7HJqrkXJ0IVPXdQ+P9pqdDaR2q1q69cB9wO8CXw85FqUCoQm6Uj6qSyR925bngWkaBzev3UAyHqdneBDbcYiUoTfddRwMwyXVuopoXR2j3QeZHh7EtCyMgAvIRaNRTNNcdgE5wzBwXRfbtncBk9rLoZRS1aWxsZFkMllqMbZlT3HyPA/Lsg5//hw7TP7on2uCXhEM4GvAScDHQ45FKd9pgq6Ujxyfk0LXodMwDFa3tdOQqqdzsJexyQkiEQvTCHYIt/SmZ4klEqzaehLxdAMTvd3YuawUkAugN/14BeRg8YrsheHthyu4K6WUqg5zc85jsdhyi8LNp2epN3aPLgQXiUQOD2k/3mMTiQSTk5OlxKb89WfAGcDvAD0hx6KUbzRBV8pHjuP4vEWv1zBMXMMglUpxYmwTPUP99I8O43hO4EPeAZzCMMPmtetJ1jcw3PkSmfFxrML8vCAcvRzb3Nz0pfSmF5bi2WOVYZRBLZhbU1gppcIyN+e8rq4O27aXupzaQp4AZoAFlyh1Xfdwr3gkEln0fOh5HvF4fMEkXoXiWuAu4D3AoyHHopQvNEFXykee528Puud506ZpHE5SLdNk4+p1pJN1dA30ksnliFhW4Ot9e56Hnc8RT6fpOPFUxnsPMd7Xi+fZmAEvxxaJRA6vmb5QAbnCEmt5z/Ne8P9GiVJKKb8ZhkFbW9vhEVNz3yvRbuAQcOLxHuB5HtFo9HAhuKVMiTr6OblcrtQYlb9OAu4BPgZ8JeRYlCqZJuhK+Sjif7I65HneoOd5q0CG0DuuS0tTC8lYgkPDAwxPjmF4BlbQVcs9DyefxzQtWjZuJp6uZ7S7k9zMVGBD3mW30nO+WAE513XJ5/OHKGL+oVJKqfKLxWIvS859kgP6DcP4lQTddd3DBUnnRlottTd8rohcMpnUBL0yJYF/Bi4CPgKMhBuOUsXTBF0pHwUw7G0MGARWHf3NfD5PIpFg67qNpIaTdA/2kXdsogEuhzbHdR0MzyXd2kYsmWK0p4upwX4Mw8CMBLP/o+cJWpZFNpudN0m3bfuAaZoTQY8oqDVzywgppVQ5GIZBXV0dqVTqcJ0Rnz0JXDL3n2Pnms9XCG4pTNMkkUgwPj7uW6DKd+8BzkWqvN8fcixKFUUTdKUq2xQwgKz9+TJ2Ybj3mtZVpJN1dA/2MTY9ScSKYJZjyHsuRyQeY9UJJ5JIpxnr6cbOzgbemz53gXRsATnP87Bt+6m5xymllKo8pmnS0tJyeM55sUtqLuLwXOSjVwiJFG4iF/sZ4Xne4dooelOzop2KLMX2WeAvgUDuAikVFE3QlapsHtB33B96HnnHpSHVwLZYnK6BXoYmxrA9l0gZCsi5joNhejSsXks8Xc9I5wEyYyOY0ShGQFXmjy4gNzc3HcC2bWzb3hnITpVSSvmivr6euro6v4e1H+tZWHz5tOVyHId4PE48HieTyfgSqArUp4DXIHPTfxlyLEotmSboSvkooJ7b/oV7Fzxydg7Tsjhh7UYaU/V0D/Uxk50lakWCLyDnuji5HPG6FB0nn8Z4Xw9jPV24+TxWNNgCcnPLsdm2zczMDIZhPBLIDmuMjjBQSoUhFosdXuc84PPQAWA6EomkYrEY4N95zzAMksmkJujV41XAg8C/An8B9IYbjlKL0wRdKR85TiCjqEYtK1LokT7+BYbruniGR1tTC3WJBJ0DfYxOjWOZVuBD3qGwHJtl0bxuA7FEktHuTrLTk1jRWODLsRXWph0zTbPXDLpYXg3wYZ1hpZRaMsMwWL16NfF4HKAcw8MnDMN43LKsy8Dfm5Ku65JMJn3bXg3zgEoqCPPfgGuAzwFfDjkWpRakCbpSPgqgijtAp3xZ/ALD8zxydp5EPMFJGzbTPzJE10AvecchEokE/knpOQ6O65JqaSVemJc+OdCH5xF4ATnbtp9yHGdcl1hTSqnKYRgGa9euJZVK4TjO4VoiAcsDv/Q87zK/N+y6LrFYjFgsptXcF+YBw8AQcErIscxZB/wT8GZkbvo94Yaj1Py0q0mpynfcOejHYzsOruuxpnUVJ67fRH1dqny9poXl2KxIjLZNW2nbciJWLIadD+ZCxjRNbNsmn88/BmjVHqWUqiCJRIK6ujpyuZyM9PK8crXng3pNpmGQLIwGUMdlAingeeDtwF1ApdxBvxL4BXA9MgReqYoSfBUppVaQ81/l+816kA+49wKx5TzJw8P1POoSSZrTDbiuy9TMDC4eZkAF3F62f88FzyNR30CisREnnyM3Mw3gawE50zTJ5/OMjY39m+d5T/q2YaWUUiVpbGykqakJoNzJOZ7ntRuG8R6/p1i5tk0kHifZ2Mzo0KCv265BUeBkoB94J5IUZ4D1QH2IcYHcQDgVGfp+CrKk7cFQI1KqQBN0pXwUUIJuAL8FpIt5suu6WFaE5nQDdYkEM5kZZvM5TMMMvIAcgOc6ROIJ0i2tmJEIualJnHwe0/Ln9GNZFplMhsnJyX9AP1yVUip0pmmyevVqWltbD3/PMIxyt1nDMN4H1PnxmjzPw83niCbqWHXCiTSv28BIby+5WS0WtwTnA83A14Cbge8hS+GlgVYg7En9ZwDvAy5EhuV3Ujm9/WoF0gRdKR8FlKBPAR8CWordgAxtN0jXpahP1pHL5cnkZvGgLAXkPNcFwyDZ2EysLkVuNoM9mzl8IVUKwzCYnp7uz2Qyf40cK6WUUiFqbm6mra2NXC4XRmI+1yYNw3gjsLHU1+M6Nrge6bYOVm3ZRjxdTywRZ2p8jInhIR+O2IpwIZKI/wKYBHYD3wF+iFRWzwFbCG/6rQmcCLwHuAJoACaQOfRKlZUm6Er56NzzLw5kqB7wfsMw1pQSm4eH4zrEY3FaGxqJWhEmZ6fJ520sn3qzFw7Aw3Mc4nUpUi1t4EF2agLXcYruTTcMA8/zmJyc3J3L5b7oc8RKKaWWqa2tjWQyieu6OI6D67phtqtM09xeyutxcjmsWIzmDZtp2bAJ07Jk1RLkRkB/5wGfjtyKcAkQB+446nujwP3AfwI3AE8gU/s6WObUPh9tRCq+vxe4DCmq3Y0Mz1cqcFrFXSkfBThkvBs4248N2Y4tww/b2knGE3QP9DE5O0PEssoy5F2Gt0do3biFeCrNaPdB8rMZzEi0qP17nkcul+ssR+yVSpdMU0qFra6ujvr6eurr67FtG8dxyvKZsoiiC8V5rotj50k2NtO6aQvxdD2ubcuIMCCfy9Lc3k66qZnJ0RHfAl4BPoHkHx+f52fPFNrXgROA65AE+QKkAnu5NQDXFto48BPg58BzwF5gNoSY1AqgCbpSPgpw6ZhOPzc217vQWN9Aui5NV/8h+sfkAiNSht5017EBg3RbO/H6Bka69jM9NIRhGpjW0k9LhmHMVXB/KLholVJKLaS5uZn29nYcxzmcmEcCWlpzme4r5kmOLXVSmtdvonHNeqyIhTPPkmqGZdKxYZMm6Mv3Z8ic9A8s8JiXgH8stDXAuUiifgEyp70x4BiP1YjMU38fMj/92ULbg/T67wS6OP6auHNl/7PBhqlqQUWcPZVSi+oOYqM52yZqWWxavZ5Uoo5Dw/3M5nJEy3Jh5eHks0RjcVZtOYl4qp6J3kPYuRxWdOnryefzeVzXfSzAQJVSSh1HMplk9erVh5dRqzBPI72ciSU92vNw8jliqTQtG0+grrkZz3EkOZ9nNIDnerStXceBPbuw83l/I699v4MMZX/3Eh7bC9xYaAawChlVeClwHrAN6XEvFwvYXmhzJpBq9UNIb7sNzACPI8n7aOFnL5UxTlWlNEFXqjp0BbFRA1kz3TRNVjW3kq5L0TnQw+jkOJZpBTki4HAEjp3HMAya124g2dDISOd+MuPjmKaJsUhvvmmaZLPZPDLcTCmlVBnV19eTTqfJZrM4TkUWvR4DekzTXDR5c20bgPqONTSv30gklsDJ58Hz5k3O555T19BI27oN9B3QvKsI70KKs70bWOrdHQ8YAG4tNJDe7XOQRH0TsrTbJmAzksyXQ0OhJZCbQruAA8CLSCfLfiRhV2pRmqAr5aMA59v1BjnP2HVdXFwSiQTb1m1mYHSIQ0N95G27LL3pnudh57LEUmk6TjyN0Z4uJvp78Gwbc5H95/P5vcBw8DcTwleBvVNKqRUoEomQTqdpbW3FdV3yldt7nDdN8xHDME5Y6DPUyeeIxBM0rdtA/arVhZ70LHIb+/hc1yVqGqzSBL0U70CKwb2H4hPYceCuQpuTRIbRNyK969uQhH01cjNgI7LMm1l4nMX8w9ONQpvgSJG4Q8jUw4NI8j1Y+DqNLNOmK8qokmiCrpSPgupB8Dxv2DRNTNMMtCCYbUsBubVtHSTjcbr6e5nOzmJZJqYRfALsFtZHb924mUR9PaNdneRmpjCtCMY8Cbjruti2/Rhga/KqlFLBSyQSrFu3DtM0D3/mVch88+O5y/O8d873A9d18GyHuuYWWjZuIVaXkkJwnstiyfmcXDZL6+rVpJuamBob8zPuleTNSGX3NyHDxP2QKbQeZJ74QlqQOeLzXUjMJeh9HH9+uVK+qugzqlLVJqjk2XXdkUQiOWpZVnMmMxNoZVzXdcm5Lk31jdTFk3QP9jE4PopnOFhmOQrIOeA4pJtbiafSjHR1MjXYj+G5LysgZ5om+XyeXC63K/CglFJKYVkWTU1NRCIRstlsJVRpX4re+b7pFG4IN2/cTMPqdZimgZP/1UJwi/Ech0g8zprNJ7DvqSdKDnYFuxC4F3gbUjugnLTKn6oomqAr5aOm5pZAtptIJrv2PLPza57nfXzLtpOZmZ7EdR2Weoe/GHnbJhKNsmXNetKFskgD7wAAIABJREFUAnJZO0/EigS41yPsfJ5INMaqLdtIpNOMHuqS9WijEcA4nKA7jrOnLOu4l4nneTqUXSlVUQzDIJ1OU19fj2VZTE9Phx3Sknme1xeJRFzLskzP8/A8DyefJ56up2XDZuqamnFdB6cwB33ZDAM7n2fV2g0ceHYX+XmqvaslOwm4BUnSHwg5FqVCUxW3PpWqFpu2bAtku7F4nK4DL/2G4zrffu3r3swZZ51DNpslm50NvAfDMAwilkVmNsPB/h5GpyaJFIbbl4NhGJjRKLmpKUa6DjAzNoJpWkQTCcZGRycHBwfPMU3zhbIEUyaaoCulKoFhGFiWRUdHB6lUilwuF+g0q4DEDNN83DCMM5x8DsMwaehYQ9O69ViRqBSCK5VhEI8n2PfUExx87tnSt6dywIeBfwk7EKXCoAm6UtXjtcDPAfPCi3dw0WVXYpommUx5ioJGI1FsO0/v8AB9I0O4nleWNdPnWJEorusw3tvDRO8hDAOGR0f3jI+Pn4NUTFVKKeWjhoYG1q9fTz6fx7bt6rxoNAw81/2hY9tvjcTjNK/fRP2qDjzXxXWK7DWfRzQRZ3psnMfuuAXHrsiK9tXob4FPhB2EUuVWO+NClap9jcBvAtHurgN0de5nzfqNtLa1z60FHvjcdNM0aapvIJ1IMpPNMJvLYRpGWeYheoXXV9fUTLy+nuzMFKNDww+6rvttoxBDtTWllKpkruuSzWaJxmJE43HyuRyO60pyWy3NcXBs+/L6tvbz2redRLKhUQrB+TxSybUd6tL1TE+MMzWuxeJ8ckmh3YIuUaZWEJ2DrlT16EEKmawD6O48wPX/+Q0ue/XVnH7WuWRnZ8nlgi3a47ounufRVN9IPBand3iA/rFhTMPEKsOQd891cbwc6eYWzEiE7s6uvbF4/Lhr1FYy0zTJZjKVunawUkqRz+cZGxvDdj3WbNpMW8da7HweD6966ll7HhjsaWxfQyTm05D243Bdh3VbT6K/q9P3GwAr2FVIhfcPAr8MORalyqL6rmqVWrliwC7gxGN/cO4FF3PJ5VcRjyeYni7P8puWZWFgMDgyxKHhAbL5HJGIfC9okViMiZFhHr/jtncB3wt8h0oppdhy+na2nnk2+cLNYDufr5bRQGcahvGo57qxIHdiGAbReJxdDz1A/8EDQe5qJXKBPwL+OexAlAqaDnFXqno4yBD3tcf+oPdQF72HOmlfs5aWljbyAfYQzPE8Dw+PhlQ99ck68naemdlZWTA04As2y4ow2N2ZGenr/QwwHOjOlFJKATA2OMBAdycjfYdoW7ueZCqFnc3ieV5F9/h4eEOe633QMIz6IPdjAJgmiUSS/oMHqrGgXiUzgNcDZwCPAOPhhqNUcCr5fKqU+lU/Ba473g/rUmmufO2vcfr2s5nNzpZtuZdoJIJjO/QM9dM/NozjuoEWkIvFEzz35KNdfQf2b7QilT1TxzBMXMchl9U6dkqp2pFubGL1ps20rpFh75W8+oTneUSi0Yfq0g0XeF4wcXp45G2buniCk7ecyL233sSzu54KZF+KQ8AfAz8IOxClgqA96EpVl0uB8473w3w+x/N7dpHJzLB+w2bqUmly2WDnpYPMTTcKBeRSiSTTMzPM5nOYhhnIvs2IRefePY9mZ6a/BYXe/EpuhWJFSilVK3LZWUb6+3Bsm/YNGw+f70zTxDAqrAGmFTk9GoteGMSxcD0Xx3FoSTeyZc16WhqbqUul2P30k9qLHowGZK3004HHAK3Kp2pKZXc9KaWOdWgpD3r8kQfp7+vhqmvewJp1G5ianMB1nECLqc0VkGtMN3DShhiHhvoZGh/FMA0s0797gaZlkZ2ZITM99YjjOFpkTSmlQtR3cD+xRJJTXnke2ZmZiq0dZ8A9nud91O/t2o6DaRisb+tgTWsHlmUxMTXJ2g2bOf3Mc3jmqcf83qU64m3ADuDvC02pmqA96EpVlxOBNy7lgRPjY+zZtZNkMsW6jZsxTUPWsS1Db3o0GqWloZGYFWVqNkPeyWOali9zaqxIlOnJcQ69tO8Lnus958MmlVJKlWB8eBA7l6O5vYPM9BSObePk8xXV8rlsPRgfsHyafuV6HnnHJp2sY8vq9XS0rsLFw3HlpnEkGqW1dRV7dj2Fbfu33rr6FSngNcCvIT3pz4YbTsmaAJ0Tt8JpD7pS1aV7OQ/OZme5+Wc/pLenmyuufh3pdH1Zqrw7joNpmnS0tlGXrKN7sJfRqQkiloVplLYcWyQaJTM56bm20+lTuEoppUrUe3A/ze2r8ZDlxiqN6zhjqYaGbDQej3sljrxyCiPG2htb2NCxlng0Rt6xXzacfTYzQ1t7B2edcz4PP3hPqeGrxb0S+D7wY+CLwL3hhrNs64ALgYPIsH21gmmROKWqy2nA7mKe2LF6LVde8wY2bdnKzPQU+TItjxONRHAch0MDffSPD+O6LhGruHuDBgbxZJLnnnhsf+fze84FRv2NVimlVLG2nL6drdtfwdTYaMVdYXquF43EYrdblnV5sfPCPc/Ddh3ikSjr21bT1tSCB4d7zY8ViUbJ57J8+9++wsS4TpMus5uAfwF+FnYgi1iHFLxzgR8BD4UbjqoEOsRdqeoSBX4PWRN9WaanJnl211PE40nWb9wia9iWYci740pvenN9I3WxGNOZWbJ2Hsswlj0n3jQtHMemZ/+LD8xMTvxbQCErpZQqQmZqkvqmZuqbWzAMAysSqZgWicZcw2A7nveqYuqxeJ6H7Tg0peo5Yc0GmhubcFwHd4Gq8I7jUN/QiGWavPSCzsgqs5OAdwFvALLABJVVTO5s4E+B/4MMy//fgL5JFKBD3JWqNhmgD9hazJMd2+b2m2+gp/sgO17zOtL19cxMTwdaZdbAkAJyhkdLYwvJeB3dQ30MT4xhGCyrgJxpmWQzGWYmJ7oCC1gppVRRspkMex59iLMu3cHszHRZRmkth+d546mGRqxoFG8ZK2vkHRsLk43ta+hoacM0LXL5/KLPMwyD7Ows288+j73PPkPXwf2lhF8JXMCjujr4zgG+gSTnPwDuQYbBz4QQy0bgHchNg0uAfcDvAreEEIuqYJqgK1VdJpBK7kUl6HN2P/Mkg4N9vObaN7Fx8wlMTU7gOE6gF1Oe55G188TiMbau20g6WcehwT5sx17ykHfDMMhls8xmZp61IpFAq9Ivl4EUyHO1qrxSagXLZjIM9nTT0rGazPRURSXpnuc9jSSYSwpqbm3zdKKOdW0dtDY1YzsOtrP0om/5fI66aJrLXn0N3/2P/1ftnxEGMAD0IIlvNWkCPlBoB4AHkMT4caS+z2QA+9yEJOWvRQrZbQbaCz/7W+AzSO++Ui9TOWdNpdRSfRd4px8bisXiXHrF1Zx93oV4nsdsJuPHZhdlGiaWZTE5PUnnQA+TM9NYpoVpLlxALhqLM9Ddmd/1y/svAR4pS7BKKaWWpaGllTMvvRzP9XCXkcyWQWMkGtsDrFnsgY7r4HnQ2tDEhvY1xGNx7GMKwS1Hur6BO279GY89dH9Rz68gDvAtJLn9GHBeuOH4YifwMLAHeAnYj3SGjCzx+S3Ie2otcAqwATgTeBWyZvvRHgc+ClT9G0EFRxN0parPPyAFRXxz+plnc+kVr6WxsYmpqSBuIs8vYkVwnDw9gwP0jQ3jeR6RBZbAicRi7N/9TO+BZ3edBARfjl4ppVRR2jds5BWXvprM1CSGWTmXm3Y+/4wViZxxvJ97gG3bxKMx1rV1sKqpBc+Q+eSliEVj5O083/n3rzI6MlTStirE24AfAh9E5lJvCzccX00Cw4WWQXq5X0DyJg8ZgbwNGeqfRnrnm4HGBbY5DHwO+Ce011wtonLOmEqppfo48Hd+b7S9Yw1Xve6NbNx0AjPT0zhl6vWwLFkffXRynK6BXmZmZ4lGo/OenCKxOM88cO8jQz3dF1iRypmh47ku7jLmMyqlVK0zTYtTz7uQZDqNvYT52uXgeR5WJHJzurHxmvl6wl3Pw3EcGpIpNq1ZRzqZwnZsXJ/qtNQ3NPL83l386L/+Q9K86ncNcCuQAD6EzK++INSIKtN3gL9AeuaVWlQ1FXlQSoltwJv83uj09BR7d+/Esiw2bNxCJBopy1Jsnufheh71dSkaU2kc22Y6m8HFe/ma6YYBrkvnc3tuzGezN1bKvEbDMGTIY4CF9pRSqtp4nkdudpa2NWvJzkxj23lc28YJsdm5LIZhbkik01cde862HRsDg3Wt7Wxas554LC5rm/t4TPK5HGvWbmByYpz+3kM+bjk0b0fW7N6LLA/2r0hF8lXIMO+F563VvpuB3wL+kcqqIK8qXGVc4SqlluPXCHhdTxnyfjWNTS1MTU4EuauXiVgRPM+lf3iQQ8MDOK57eMi7GYkwOznJE3f/4vfzudxXyhaUUkqpohiGwQnbz2LjyadiZytjVK8HrzQMHp27BJbl02xS8STrV62mpbEZx3WPu7Z5Sfv2PGLxOHY+z/e+9XWGBvp830cIBoEdSGJ+tAuBPwSuReZorySPAv8Xmauv1LJpgq5U9XkVcC8Br8LQ2NTM1de+iW0nn0YmM0Muly1LNV7DMIhYEaamp+gc7GViegrLMkkk6+g7sJ/dDz94sWGaDwYeyBJoz7lSSi3MsiKcd/W1AIEu6bkUBuA4zilWxNoTTyTJ5/N4nseqphY2tK8lGo1gO07gcabS9XR3HuDH3/8WmZnpQPdVJoPA65HE9FhbkVF/vwlsL2dQIXgEWc/8B2EHoqqbJuhKVZ8TkA/BwO9IGxhcduVrOe9Vl+E6DrOzmbItmRONRHAch+6BXvpGhkjW13Ng19MjB57dtT0Si/WUJYgFGKaJncvh2BVVoVgppSqKYRisWr+B1ZtPIDM5GfrymI5jr2psaX061dS02vRgXVsH7c1tYBrYZTyfr16zjpt/dj0P3ntH2fYZsD7gUqSY2nxSSK/6e4HLgC1liqscHgK+jBTNmw05FlUDNEFXqvqkgKcoY8XUrSedwmuueRNNLS1MTU3iBrxm+py5AnIjE+MMTI7y5H333DPQdfDVgFZkU0qpKhGNxzn1vAuJ1dVh53KhxuK6LrFE4pttzW3vW9/WQTqVwilToU/P84hGoyTr6ug6uJ+7b/85h7o7A99vGT0HXA70L/K4ZuANwMVINfimgOMKwgTwbeAG4PaQY1E1pnLKICullmoaGC3nDl98fi8jQ19nx1XXcvJp28nMTJelgJzjOGAYdLS2k4jFeCybfRFNzpVSqqrks1kO7N7Fjje+hVw2G+pQd9dzSVjRXetXrSYeT5C3y1Nh3vM8Eokk0ViUhx+4l3vvvKXkpdsq0MnAT5Hq7gtdp4wC3yy0vwJeAfw6cD4ySjAabJhFGwGeBr4B3A0cDDMYVbs0QVeqOpVvsfKC0ZEhfvz9b3HJjtdwwcU7iERjzGZmgt+x54EBdjaLncvtqW9YaJnR4BmGyczMVMUsG6SUUtVgcnSYkf0vsXHzVmZmZso2XepXmbi5/LjrurheGe73eh6GaZJK1zMzPcWtN/6I3c88Gfx+w3M+cAfwHn61cNx8Ogvtp4X/X4r0rJ8BXET4Q+H3I3V/nkCqsu8LNxy1EmiCrlR16gprx/fffTu9h7q48rXX0dzaxvTUZOC9IaZpMjk1ycz01N5INNzTlmGYeLrmuVJKLYsH7HzyMdo61jKTmcGx84Q109Jx7CdbV7VnE0ZdHILrxZ4b0l6XSvPCvr3cftMNjI0OB7a/CnI20sP8FuD+ZT73vkIDaEcS9FORpP0VwHqgEUj6EehRPGAcGZ6/G3gAqffzHDDg876UWpAm6EpVp+4wd/7ivr2MDA9x5TXXcdIppzM1OYltBzfk3XVdhvr7RvP53O58Ptz5i0oppYozOTHOE48+yOnbz8E1gq+WvoBnLNM8AMbJQe4kkUhiRSwevPcO7rvrdtwAlm6rYKuAW4D3AT8qchsDhfYwMqwcoB44EanDswXYhMxp70CGxq8G4sw/Hc5E1iMfAbJALzCM9Iq/BDwPHCgyVqV8owm6UtXpUNgBjI4Mcf13v8EFF+/ggosuJ13fwNTkhO9JumFIZd3hocEDlhU5YJjh9LgYGNh2PvRlgpRSqpp17n+RU07bTmtbG7lcOFOFXNeZzWQyPfFEne8Juud5mKZJur6BsZFh7rztRp7fu9vv3VSLFHA98GFkXXA/TCLDzZ84zs+bWThBHwcyPsWiVCA0QVeqOvWGHQDIhchD99/FYF8vO65+HW2r2pmemvI9iXU9l9HR4ZcSyaQXiYRz2jJNk8mJCewyFRRSSqla9ewzT3HpjqvJZSeR25/l5bgOY/ZIb0NjE6Zp+vqZJVXaU7z0wl7uuPVGhgd1dDTwJeB04M8IvoZOWYvoKhUETdCVqk6h96Af7cUX9tLb08XVr38zJ5+2nVw2SzY760tvumVZTE9NMTTQt3t2Vm96K6VUtevrOcSe3TtpbGohl8uWff+ObVOXSt9tWZF3ez4Wiksm67Btm/vvvp0H772jLEu3VZEPIuuf/xFSRE4pdRy6DrpS1WktMg+94v6GL7x4BxdffhWGaTAzPV1ykh5PJDnw4vPc8MNvX+s67i0+hamUUipkr37tdUQikbKviuE4NvF4csvWk055ybIsH3rQDdL1aUZHRrjztht54bmlFC9fsVzgE8Dnww5EqUqlPehKVadJoAdYF3Ygx3rogbs5dKiTq157HR2r1zE9M4Vj20Un6tFIhLGxEdd13L0+h6qUUipEg/09bD/7PGamp8o70N2AfD43PTY6PN3esTZV7NQlz/OIxWLEE3W88Nwu7rztJkZHVkSV9lKYwN8BVwJ/jlRKV0odxQo7AKVUUTzgrchyIxVnYmyUPbufJp2uZ+36jYD0WBSTpCeTdTzx6EPPDfT3fhHQCeBKKVUjRoaH6Fi9DtOysO08juOUrc3Oznp1ydTb6hsa2osZiu55HnWpFB7w0P13cdtNN5DJzPh/kGrXVmSt9Hak4Nt0uOEoVTm0B12p6pQH+sIOYiHZ2Qw3/eT79Pcd4pIdV1OXSpOZWd7nrxWJMD0zzdjo8GPoh7dSStUUO5/n4Qfupn312mV/PpS8b9ueOfHk027bfMK20/PLGGLveR6WZZFKpRkeGuAXt/yM/S8+H2CkNS2JVHh/EzLk/cvhhqNUZdAEXanqVVGF4o7nsYcfoK+vh6uuvo61GzYwOTGB4zhL6k2PWBHGxkYYGx3R4e1KKVWDxsdGGR8bxTCMsi5jaRgG6XTD07bjYBom7hKKxc0NaU8k69i762luv/kGpqenyhBtzdsI/BPwu8D/AX6MLIem1IqkCbpS1Wsk7ACWqvvgfq7/3je4eMdrOPPs88jncuRysyxW4y4ajTI5Mc7U1OSBsgSqlFKq7NL1Dbz66l/DtvNlTdLz+fz08GA/DU3NuPnFE/S6uhSe53HX7Tfx8AP3lCHCFedM4N+RuelfA34AvBRqREqFQBN0papXd9gBLMfk5AS3/Ox6GfJ++WtIpRuYnlpoOVQDTJOJsdEZPG9n2QJVSilVVpnMDHt2PcXqtRvI53Nl2282O7tz9Zp1k5Zl1R+vkvzckPa6VD2DA73ceeuNHHhpX9liXKG2An+LrJv+C+B64EagEtdatQAn7CBUbdEEXanq1Rt2AMV48tGHGOjv5apr3siateuZnpqcd61YwwA7l2V0dKQT0Al+SilVoxzbZt9zz/LSC8/hOGXNdZ5fvWbdzg2btlySnZ2d9wHRaJS6VJrdTz/JL275KTM6pL2cWoF3FFoncANwG1JULuxroPOR+O4D9E2hfKUJulLVq2qGuB/rUOdBvvfN/8cVr3k9Z51zHvl8ntnZzMvmpZumST6fZ6CvpxPIlbqe+lKVc3ilUkqplzv3/IvxPLdM52KPSCQyPDM9Pe8c+LpUinwux203/ZjHH3mwDPGoBWxECsp9GBlBeD+SqD8CPA2MBrz/BHAusoLOVuBJNDlXAdEEXanqNYJ8MKTDDqQY2ewst9x4PQN9PVx0+ZWk0/VMTU0eSdINg+zsLCNDA3ss08KKlGNVSAPbtnFdHa2mlFLlFolEaV3VTmNTM7ZtB74/13XI5/IHs9kMkWgMjkrQGxqa6O87xJ233aRD2ivPeuCdhWYDQ0APsAtJ1p8ABoEZYLLQYsDEAttMAHGgqfC1GVgNnAVcBJyNLAnXCXwG+Caw/PX5lFoCTdCVql5DwDBVmqDPeeKxX9LdfZCrX/8mNmzYwszMFPl8Hsu0mBgfZWpq8inXdXFymjQrpVQty2ZnuffOW9h8wolMT00WerSDGz1l23nqUun7Nm/Z+mEDA9fzSCSSRKIRdj39JHfddiNTUwvldKoCRJBEejVwzjE/m0Cuk4aQJd26kZ726FGPcQo/WwPUFbaTQhL2Y/01kpwHf/dIrWiaoCtVvYaRD5pNYQdSqoG+Hv7rP77Ojquu5ezzXoVpWpimyfBgP67raoE4pZRaIWYzGboO7KetvR0IdtqRZVrguffNZDKzDY2xRF0iTS47y7133spjD98f2H5V2TQU2pbC/88ocjv3AR8DHvUjKKUWowm6UtXLBQbCDsIv+XyO22/+Cb2HurjymutoaW1jdGRkyLKs52Px+W5k+8cwDLKzmXIXJ1JKKTWPTGaa07afTSweD3aouwG5bG5yempiYsPGTYnuzoPcetOP6OnuDG6fqpq4wOeBTwPlW15ArXiaoCtV3WomQZ+z6+knGOjv5bq3vJOJ8dGHPc+bdoNOnOcpDqSUUiocnuuy8/GH2XbyaeRzAeZFBmSz2Wwykdj3zM7H22/56fXMzlbiSl4qBDcBn0LmsytVVpqgK1Xd+sMOIAgD/b1861//GdM0nnFdl2x2/uVvlFJK1R4P6Os9hGGaOAEXizNM0+npOnhzX++hiwPdkaoWLyFrsH8t7EDUyqUJulLVrSfsAIKSy2VBKrIqpZRaYVzX5VDXwXLt7uly7SgEGaRYWkfYgVS4ueHsf08VL2OraoMZdgBKqZL0hh1AwF4MOwCllFI1rwvIhx1EQCaAK4EvIRXL1a+6G7gY+ASanCullCrR5chyH14Ntl70jr9SSqngxZARW2F/7gXRjh5pdz7w0wqIqVLaXuAdKKWUUj7aBkwR/odcEO1eH4+TUkoptZBfEP7nXhDtEX51Mfk3AvdUQGxhHpPfARpRqgLpEHelqlsnMr+sFlX7/PM48D5ge9iBKKVUgK4AXht2ED7YHXYAAelHktKj/QQZgfdW4PayRxSeB5HP5fOBrwPj4YajlFKqFpnATsK/Gx1E+4iPxykM/4y8jnHgUaQq7OXA6jCDUkqpEm0G3gx8A9jDkWlW1X7O/j3C/9wLon11Ca/9TcAdSKG0sOMNoj0MvBO5ca6UUkoFrhaH5bnA1X4epDL7O47/2nqRC9s/As4KKT6llFoqE7gKKaB1EzDN8c9v7w4pRj/soDYT1E8t4xhcDXwHyFZA3KW2GeDbwFuW8fqVUkopX3yb8D8I/W5jQLOfB6mMPs/SX+ckcmf/y8B1QHsI8Sql1NEsYBMyFPj7yBJkSz2n5YFryx+yL1LAEOF//vnd/lsRx+I04PeRudoL3ZCptJYB7ivEfkoRr1sppZTyxecI/0PR7/akr0eofD5Faa97Arge+ABwCVonRClVHk3A64GPI8XDZin+PDYFXFre8H3zGOF//vndXl/iMdkO/BVwJ5CrgNczX7sfGbl2TomvVSmllPLFhwj/w9Hv9m++HqHy+H38Pw5PAP8KvBdoLd9LUUrVuAjSw/hHSC/5Pvw9d81QndOUvkb4n39+twt8PD5nAu8HvovUVwljSoCDLB33I+BPgIt8fH1KKaWUL95M+BcAfrcP+nqEgve7BH9MRoG7gI8ivesNZXllSqlasQG4Evgb4CkkiQ7ynDUBnFGWV+afWisUNwOc6OsROqIZuBD4A+CfkHo4+5Bh5n7FnwUOAHcD30QS8vPQzz9V4yJhB6CUKtlg2AEEYF/YASzDB4B/KcN+mpAiRjsK/38WmQpwH/BzoKsMMSilqssrkCHO5yA9jeVcRaIeuBlZgu3ZMu63FC+GHYDPeoGRgLY9CjxUaHMagROQSv8dwEZkbv96oA4ZIt/GkfehhywXOwFEgYNIHYAe5NrmQOHntXido5RSqoZtR4Z8hX2n3q+WAU729QgF5+2Ef7w85ILmAeB/IQm8LuWm1Mp0AlJw8h+B55D54GGfn14kuF5cv52Evz3AYbdHkMS3ksSQ3ve5ZoUbjlJKKeW/dchd8rAvBPxqj1Edo3suQe76h3285mudwNeBP6b6hpgqpZZnB/BpZE5upZ6TDlAdSXoCeIbwj5df7SZ/D49SSimlliKFzCcM+0LAr/Zdfw9PIK6menpZxoDHgS8CVyA3dJRS1clCesnfCXwD2A3YhH+eWUrbhQyBrnTXE/6x8qv9h8/HRilVBtXQS6WUWtg0MBB2ED56PuwAFnEh8EOkp6UaNCLzT88BPoLMG7wZeBB4FBkCqZSqXEngcuAs5ObgpVTesOWlOB0591yLVACvVJX+GbQcPWEHoJRaPk3QlaoNw2EH4KNKXgP9ZGTIYH3YgZSgGXh3oeWQXq0ngZ8ixX5q6WaPUtUoBqxBEtmrkMT2lFAj8s+rgJ8h8+QrNUmvloJ2S9EddgBKKaXUSvVFwh9K50ebBk7z+dj4ZS1SdCnsYxRkG0F6uD6MzGs1/DhwSqlFtQCvA/4CuVGWJ/zzQZDtHuRGRCU6l+qZwrRYe7vPx0YppZRSS/TfCf9CwI+2n8qs6HoKUngt7ONT7vY48C3gt5E1lJVS/oggI3I+AfwEqXQe9t97udv3Sz6KwYgjy32FfXxKbTmkmKlSSimlQvBewr8Y8KP9yO8D44NV1H7P+VLaBHA/8HGk2FxTKQdVqRVoC/Am4G+RSuHThP93HXar1CJmDxD+sSm1jQOn+n1glFLB0znoPsr/AAAgAElEQVToStWG/rAD8MlTYQdwjGbgNmRt3JWuHri40EBuWjyKDMe9DdgXUlxKVbILkXnk5wKXIUPZ1RHvBUzgPWEHcoydwEVhB1GiDHAo7CCUUkqplep05G552HfsS21v9PvAlCAB3EH4x6Qa2ihSaO6z6FJuamXbCrwB+DpSDXyW8P8+q6F9rZiDHaDfIvxjUmqrpWJ3SimlVNXpAAYJ/4KglOZSOcPxGoGHCf+YVGvrQdaz/1Pg7GUee6WqzVVIcbcbgUnC//ur1vYXyz3wAbqI8I9Hqe0Xvh8VpZRSSi3LPsK/ICilvUTlDP+8jfCPR620SaR3/avIslHrl/F7UKrSWMAJyDKF30V6KcP+G6ul9sml/yoCtQEZGRT28SilVer8fqWUUmrF+E/CvyAopd3k/yEpyn8Q/rGo5TaGFAP8CDInV6lKV48MW/+fwJ2ATfh/R7XcKqEnPQI8SPjHopT2Qd+PilJKKaWW5T2Ef0FQSvuc/4dk2b5G+MdhpbUngG8Cvw5sXPxXpFTgEsA24APIzaTnCf/vZKW19y/2SyqDbxH+cSi22cBp/h8SpVQ5aBV3pWrHI4BDZa4jvhS7Qt7/N4DfDDmGlejsQnsfkAXuQqYYPAk8BkyFF5paQVYBFwDnAdcB29FrpDD9OzBDuGulh/2ZVIpngBfCDkIpVRz98FGqdhxAPpRfEXIcxbCROehh+TyanFeCOHBNoQHsRd7Tv0CmQOiSQcovEaSH8deQpQNPBzaFGpE61n8hvcE/CGn/+0Parx8eAnJhB6GUUkop+DLhD60rph0EGgI4HkvxiSXGqC3cNg7cj8wDvhJZuUCp5diK9I5/ESnuliH897W2xdvb5vtllsGZyAiesF9/Me39/h8OpZRSShXjXYR/YVBMuyeIg7EEf7qMGLVVVjuAzBH9KNL7qdR8rgA+C9xA9VflXqktD7zq2F9sGZjAniLiDbtNoPU8lFJKqYqxGflwDvsCYbntKwEci8V8rIR4tVVWG0fmrH8BScj04nTlOgV4E/BvSHE3rbheG22UcJL0u4qMN8z2SCBHQimllFJFq8alYX47kCNxfO/wMfag2zRS7CfsOKqpDSLLDv4JUvRL1a4kcBXwaeBWpLc17PdftbRhZCRK2HEs5++63H/Pf+9T7OVsfxPIkVBKlY0WiVOq9txDOD0NpXisjPt6O/DdMu5vqYaRXqIXgX3A08jwyl6kh7gDKQB4NXAh0kucCCXSyteGTPd4FzLPeB+ynNv3kcrMXeGFpkoURUYKXYysTb4dWRJNLW4Eee8/CPwcKcCYQc4tG4FTkekiZyBV7VuQNeArRRtwN3ARsLNM+3yyTPvx071hB6CUKo0RdgBKKd9dA9wcdhDLMIYMS+0vw77eglQGDvPm5BjQgyTi3Uil8v1I4rh/Gdu5ELgcuZg+HzjJ3zBr1hSyjNsjhXY30uukKlcDMnXhFUiBwEvDDaeq/BJ4CrlBdRdy3lmKJHLjYytyft6C3Bg5ofC9MK8fdyGfc+VY1eE8qmvI+DjyWTAQdiBKqeJpgq5U7WlDKhSvCjuQJboHGaJqB7yfNyCFosp13hsttJ0c6RE/hPRgDSK1AvzSjFxEnwtcW/jajp7jl2In0pN4K5Ks9wBumAEpEkgyeB2SjJ+K9pIvRQYZcXM3cAcyB/9JwPFxH63AOmA1cCLS474VOBloAhp93NdC9iE3a4IeDdMK7KZ6Vo34EfDWsINQSpVGL96Uqk0/QRLSavAl4CMB7+MVyFrarQFsuw9J6vYjvRbPIHPGn0aGlOYD2Odi6pGenyuAs5DXvyGEOKpNFulxvBH5/T0ETIYa0cqxGXmvnoesTX4GYIUZUJXYU2iPIe/bvYRzzolyZBrONiRxX4P0uG8A0gHs80ngdcg5OCgR4E6qZ9TGJ4HPhR2EUqo0Ogddqdp0N9WToD8X8PbPR4Y0l9qzM4Uk4TuRYaK7kYT8RaTXys9eqlJNIheVdxb+34EkPmcgoxVeCaTQz4BjxYEdhQby3nwSWX/9JqS3rpJ+z9UsystrKlyIjP5RCxtAesfvQpLxJ5BCkmHLI1N2uo/5fgpJ0DcBa4HTkJ73E5HkvZQ6GmcjN14vwt8RSUezkZuu1ZCgu8B9YQehlCqd9qArVZsuRj6oK/1v3EMSxjsXe2CRzkGKIS11eKKHJGE9yHD0F5HpAvuQ4aJTwKz/YYbiMo70VG5GLqDrwgyowk0iN2huQG6A7SHYnrtadDKSoF2NDE/eBMRCjaiyZZH54/uQedB3IOejWpBEbpqeUminIu+P1cgQ+uXcrPkp8OsEN3Lgg8BXA9q2nw4gf1+ZkONQSpWo0i/elVLFSSAXclvCDmQRPciw1qEAtn0K0tt9vARgFEm69xS+diIJ2AtUR4GdDcgQ4BiS6ESRHpQNyBB3B+n92YJcDFP4Xq7w7w7kZkOCIxfJQQxDrVVdyBD4x4FbKF9V6WpiAZcgCfkrkJEJehNoYePIe2sAGaXzINJTbiB/65HC1xgvv4aLADPAS4XvR4GDSJJfbbYi560TkF73kzhyc+d4Pe73Aa8lmOT0WuRGb6X7GdUzck4ptQBN0JWqXd9D1vsuRjfwUaT42A6kd2MT/s/h3olcuPvtfOCHSLL6EpKMz/WE70Z6xgeROeJh9YjHkCHVTYV/NyHn5Llhn2uQ459Ejr2JvJ5U4d+NhcdbR/1bhWMKubFzL5Ks70VuPlVjclSKJiShegXwRmQqxQYkWVRLk0WGa88gf9MtyN/8Uv6+HWSVCJDzwjhyQy6H9K46yMigCeT9OY6MAhlG3sMTha8zBF+0c7nqkF71dmRpvROREVIdyLmyA7lh9i7ktfppMzKVoNnHbbrI5+zcjZifIK/p70rY5oeB/1t6aEqpsOkFnVK16/eBLxf53BFkXdyj5zaeiAyHPhXpbT0T6f0uxQ+Qdcn99jqkUNEjyMVPOQt9WciyUKuRi8k2JIFehyTeG5GEZS7ZXotcfKbKGKMK3luAH4cdRJn9BfDZsINQRXGQZHGQI4l7H/JZMIAk9P2Ff/dRGfPe52xCet0vQWpFPB7APp5A5rwXawopPPksR2oHPI3cHJlT6hKpp1M7UyCUWtG0QJBStev+Ep7bggwx3HXU9/YV2lzSUY8kmRuRIj3nIsMQ2ws/W4qg1pf1eziigQz/TiDJdhuSgK8pfF1b+N76wuPm5lfWo5WoV6LvIkOTV5pvIsOMLw47ELVsFnI+W7PAY7LIzc5xpKd+BBk5cghJ3l9ChufP9caXK4k/WGhB1TIBeY1LTdBHkRsZjyLV9Z9Cjks3R6YYzWepn5vzeRH5XSilaoAm6ErVns3I3/YepAr1yUVux1zk55PI3fpnkWG9c8/ZjlRknis+dirSuzGf3UXG5jcLubGwGlk/vh0Zzriu8P+5dX9bkSS8kmV4+ZBiAyl+11342XJuGLjI8Pt1yHtqbn1wHbJ8fJ9DljpaiTqRObA3IecAVVvihXZ0AbfXzPO4IeS90IkktgcL35sb0t1P9RVY3IUU1ZzPPqTXfm55zZ1IXZPlKmWFiJ8iyf+FyFB/pVQV0wRdqdqyCXgY+bD+AHArxSfoXhHPcZGLk6MLZrVyZFmds5Ge9jOQ3uigC2uZyPDxJDJHccNRXzcgyfZcT3dLIdZSlv3xg4v0VM0gPVGHkJshBws/70J6rpKFf48d9dzRwmOPTsLnEvRBZL79chP0KHKTwuLIe6KlsH+TIzeEOpCbGG2Ff69Fhu3XIxf1K8FfAp8KO4iQjSAV2n9a+LqS5ZC/IRP5m56v3sUQMnx8sZteLvI3dbx50EnkZpqL/M2H+TfXVmjnzPOzDDKsuxc5Xx1Aen+7kAS3Ezn3lXNa0lI8hfw+J5Be8QcK35u7ATHiwz5K6UG/EXmf3Q98CfgTH+JRSoVE56ArVTtOQQrDnYUM9bsSmQd7fZHbOxNZ/zUIrUiC/DRHemWL0YTM925Dksi5Xu91SC/4XBK+Brl4raTh5gPIxV03R4aHHn2x14lczC40JLKSzRXB2wZcjrwv1yIF/JpCjCsofw38edhBVJBGZGRNLfaku8jIobk52rPI36uLJJrTSJG1/cjSX1EkKZ2v1zjP0guyRTh+Ir8OOf/NLTU2d/PRQW6ipZAkfgOSyM1NRWoutMYlxhAkD7mR0Y/0Sh9Ejus+5AbjXM/7YAixtSHTvvYgN06D8GngM0U8L4P8PrcBTxa+9+/Ah1h5hSqVqgnag65UbbgcuYM+t0zWGUhydCfSE1HKnfkgDPPy4jhzokjCvQm5sEwU/m0VvrYhF6JzPeKthcevYvEh+WEaQ4oCPYpc4O1HLj67KW1YYyWbqx79JEcuGkEuIk9HKn2/Gqn0Xe1Lb30WubhWR4wjy6v9mOrvSZ8CbkfWIe9GkvBnKf8KEDbHT+aPnX/81BK2ZyGjYZqRBK8VOZeegJxnT0T+Xlsoz81NgyPn/E3z/DyL9Lz3Ijczh5Hk/QXkfPoikqwGUYF+iGCWAz1asZ1mjyPv0Tcf9b3fQn53v4G8X5VSSilVRq9HEkDvmHZR4ecPzfOzpbRih8YX4w3At5DEdRi58J3rPS4m9rDbAWRN2v+BVBZuRUcszcdChsW/GenxeQhJ7ML+/S2n/ZXvR6W2pJDhwGH/npbTeoFfAJ9Hbi6s8v2oVIcIkryfivyNfgYZkfUg0osd9u/p6JYpxPQccu79R+APkXnjFyM3HeZuYFeqT1Pca/9S4fnzfdbvQW6IKqWUUqpM3snxP7T/rPCYLyzwmIXafMV/gvCVIuOrtHYAOda/zsq9oPfDacB7keToGcL/vS7UdEmxpWlC1ogP+/d1vDYL3AX8L+AdyDBwtbBtSNL+CWRqVQ/h/x4XasPIlKqfA19Fbqy9DxnlcQqVMaL00xT32q5CRiFNHefno8B1ZXwdSiml1Ir1QRb+0J6be37NIo87XntPGV7D24uMrVLaAPAjZBTD0ZWNlT8akIT9d5Cly3Zx/IvQcre/CfB116JK6kkfQQpU/hPyt7uJykjQqlkHcAXyd/EQMrUq7N/zUpqLJLAvIdOQrgf+ASmy9npkuli5fLqI+CcKz13K5/zvlel1KKWUUivSJ1n8w/gQMoQ4RXEXS28vw+u4o4i4KqG9hAz33OL7EVGLOQf4GLLm9ouEc0H/x4G/ytrUgKwsEcbf7EPIUOAPIEO2VbBegfyd3kb45+tS2w/w7wbsQrVS/ryI2O4pPPfvlvh4vbGolFJKBeCzLO2D2EbWJAepprzcD/6FEvTLgLuBV5XwOhJIVd6wL76W07qQqQPtJbxu5Z9VSJG530OGrnYS/HvgzsJ+taZAcTqAvQT7O5pG1qH+DvCbyIoUK2Wpv0p0NvD3SCG3sM/hxbYvlPD6U8j78OssnOj/SxFxfbTw3LuW8ZxvoyNGlFJKKd98leV9eP9h4Xn/fZnP81g4Qb/6qMd9DxkKuFwnI4V9wr7wWkrLIRdoLUW8TlU+aeBaZH7pDcgoEr/fCzNIIbvbkZs111Gby8b56Szg/UjhroeQatx+/15eQKZB/AlwbllelVquFPBh4GHCP6cvtz1YxOu1gHchVdY95Ib0QueKHxQR10lIsr3c4pp3orUWlFJKqZLEgf9i+R/e3y08/9IinvvWBeK5fJ7H31N4TmKJr+kKZImxsC+8Fmt3IwmGqj5rkQJKn0KKlI0QzHvkBeBm4ONIb22lLWtYTibSS/5O4GvA/UiPtp/H20XWw/4BUovjUmSlBFUdIsj7Yy5xrYa2n6WPwmhAbt49fcw2dhV+djzfW2ZMnYXnXVjka+osPFcppZRSy5SguCHqHlL0Zm4bB5b53HcvENPlCzxvZ+G5qUVe19uKfE3lbJ9EhzLXklakSvd3CG44vI0M5f06Uo3+HBaed1oLNiNLJf45ckPL74TcQ6aX3AR8Dln6bCXfBKkVJvAHLP+zKYw2ilRKX8hGpKp913G24XeC/l+F5326hNc1hIw6UkoppdQSbaa0XoYccGJhWz9e5nP/5wJxXb6E5+9G1gE/3oX0B0p4XUG3XqTnVdWuDmTu+oME+15ygMeAbxT2dyYQDf7lBaoVeAtSdO02glsTexCZrvA6YHVZXpkKwyrgnwn/vL9Q6wdix4n/ZGRZyMVqqvidoH+k8Lz7fXh9f7RAXEoppZQqOAF/1oH+jcL2Pr7M5/3lArFdvoztHER6ojcfs43P+PDagmh7kaJGamWIAr+PXDyX4/01gwyX/Q7wIWR49rrAX2XxWpE53W8H/jdyw3CIYI/Ri8jNDK35sLK8DZm6EPZnwHxtDJkyc7Rzga+w9KUfF0vQ/3MZ8eSQVURiwKxPr/EfgOQC8SmllFIrWhz/Cun8Q2GbpwP5ZTzvMwvEd3kRcQwiF/inFLbxMZ9en5/tEbTg10oVRYoqhrGyQDdSdO4fkTnVryKcOdUxpIf/t5Blm34I7Jsn3iDbF4DmoF+oqlibkHoOYX8WHNtmkZvmADuQ9dKXu43FEvTlbHNf4Tmv9/l1fnyB+JRSSqkV7Qz8+8A9uvrs/mU87zMLxHd5CfGMIhf/X0GKPYV94TXXHkZ77JT0Zoc93HYWqUD/BNLT/klk7vy5yJSVVRx/uO3xmMiNvzZkSO65yDD1P0Pmyz+EnB8mQnrNjwCvXuZrUrXrK4T/mXB0G0Uq0N/A8m50H90WS9CfWMa2vlN4zhd8fp33LRCfUqpMdB1EpSrTKYs/ZMleiczf7EMKOL3fx20Xo4kjd+ldKqMI2yHgTUiVb7WyHUKGvN+CrN18UggxxJHhtGv51ekWWSTGXiRpGEYurDuRxOFo7UhCnkV6JhOF721GloCqFF9CloKcDTsQVTE+hEwH+ZOwAyloREa4BGk5tSluLHy9wOcYzkbOEQM+b1cppZSqep/H37vi1xW2+85lPOeTC8S3w+f4wmxZZEixUsdqofJ68mqpTSGV7pU6ni8S/vvUr7ZYD/rOJW7HRs5NSY7coPOzvWGBGJVSZVDrS78oVa3O83l7Fxe+PoX0Wi9F+wI/80oLp6L8IfDLsINQFWkE6cn7bSSZVP45hKyU8K2wA1EV7aPIFAx1xC7k3PRKgpmWdVkA21RKLYMm6EpVnlXA+T5vc257LyBzPZdi0wI/G0KqyFa7HwJfCzsIVfH+HbnJtTfsQGrEL5GhuQ+FHYiqCh8E7g07iApyZ+HrlQFt3+/rD6XUMmmCrlTlOQuo83mb25D1yG2W3lu8UAKeLWyrmg0CfxB2EKpqPI0UMXss7ECq3BPIuuaHwg5EVQ0XeA8ynLuWLXV0292Fr0H1dJ/Ory4pp5QqI03Qlao8OwLY5gaO3BV/1IftmVRGcbdS/DFaCEctTy/Sa3V/2IFUqeeRZaHGwg5EVZ0u4PfCDiJAKSC9hMeNAr8oPP6igGJpQYbPK6VCogm6UpUnqIJlZxa+3kHt90Qs5i6OLFOj1HJMANeidQuWaxp4K7KahFLF+GGh1aJGZJTbYnYj1e0vR1Z7CMq5AW5bKbUITdCVqiz1yDrHSzHI8uZwzi3XNPD/2bvvOLuqqv/jnynpvfdC7713EBS7ooKK/uxYseuj6ONjR8XHgvJYwUpRREQQAQWlE0ILPaElpJCEkEYCSaZkfn+se53J5N5z9qn7nnO/79frvDKZe+4+K5OZuXedvfdawKMO57sutyuis30HIIW2EZsJ1nJ3d2/DiluJJPExLEEtI5fX3Gqf8pdEHPt2YGGE84+m+KvkRApLCbpIYzkAmO547ieB/4kw9nH07m13KbjTSH2S03QztkRQJIm1wCloL7WL84C/+g5CSmE59v1UNq6dUa6r/HlgxPHPxjqWuDoUmBTxGiIiIqX0Ydz6lF5ZOX86VszNtb9pdRb9KIdz7wyIc1dsFsN3X9k4x8kB/y6RqI7BZr58f1836rEQ2y8rkpbR2Aoy39/bUY+gPuhTgGdCnr8KW9Y+0OHcvkcXvV1Zvh/hea+oE6uIZEwz6CKN5YDwU1gGvLPy8VKitX46rPLnI8DKkHNdCtYUzTzgH76DkFK5BfiS7yAa2Eew/eciaVkH/MZ3ECmrJsVBbsE6qByOJfSuFgBPVz7+FFaDxYX6oYt4ogRdpHEMxe0F8YPY8tqqmyJc46jKn2sJf5HujjBuUfyC8DdBIlF9k3S6I5TNtcDffQchpfQ7gluBFo1LZ5Tqa33UxPlf/f7+Dtw6mERdRi8iKVGCLtI4ZmBLx4N8Hfhbv89FSQwOpPfnPmgJexmtB67yHYSU1id8B9CAvuw7ACmtB7HCZ2UxExgT8Hg3vf3PDws4r5b+q8aWAm9xeN7e2HYCEcmZEnSRxhH2ojsX+GqNzz+E+6zwTGDnysdzsL1pzeJf2BsTkSzcDlztO4gGciP2O0skK5f6DiBFw7C95fUsBe6vnBelFetmbEtbf/8GPhfy3KnAIRGuJSIpUYIu0jiODHhsNXAatZedP4Jb2zSwfeXVGwFzgccDzi1bm7U/+g5ASu+b+N0a0gV0Vg7fW1R+7fn6Un6XU55l7l0Ev+ZWV7wdDIyLMO691G+vdg5wccjzD41wLRFJiRJ0kcYRtN/rE/QWeelvM9H6MVfviG/F7sjXM6hylMGLqLWaZO8O4IYcr/c8ts/7k9iNt9lYteZZ2EqZY4EPARcB9+UY12p620GJZGUlvX3By65aM+aYiM+7j+DE/wzg4YDHD454PRERkdLYAatMW6vVyU8cnv/pOs+tddxKb4/zDwactxLbF19L0dqsKVmQvJxK9t/PHcAPsD2iUbwG60eedXyXRYxLJK4v4P/1xfUIarN2HLbypdbzttK7Ne36iNd8u8PXcEfqv/9YCUxwGENERKR0TqH2i+MDjs8/Flsi5/KC/Ty9ifcu1O/hvBzbg1ZL0RL0Mx2/jiJJjQfWkN338hyiF4nq72VYka2sYnx/wvhEXJ2E/9cX1yMoQT8au/FW63nV1S+DgBURrvcivf3Pw7wlYJyos/YikpCWuIs0hlr9zzuAdzs+fy7wjOO5I4D9Kh8/ib1RL7soWwBEkniO7FZsXIzdjEvageEfWM2LsP2ncc3JaFyR/hZgs79FN5TelW39VZfxHwlMjDDmg9TfGtffH7A96bUcHeGaIpICJegijaHWPq8PA/c4Pn8zVgzGVbXwy1bC+6EX3dO4F9ETSUMWLQx/DLyN9IpibaiMd25K41UtAhanPKZIPcsI3kNdFNOp/5785sqfxxHeK72vqDcKP0ftWi3HRRxHRBJSgi7i3wTgoH6f+wtwQcRxorQ0OqrPxzfXPcuWtxXdI1gPdJG8pJ0wXAR8LOUxqz4B/C7F8eajnzfJz1bKcUOovc7nN9L7Gt3/fUKYOH3i34Xd9OhrP6y9m4jkRAm6iH+7s+2ytaeB98YYJ0o1233pbdVyL7Yvvb8yJOfQHEv4pbE8he1DT8Ot2JvmLL2f9HqWL6c8vzukGOb7DiAF9SqtPwg8C4wmWsuz9cR77VuGtXTtaxJa5i6SKyXoIv713X/eDZwOrI0xznxgleO54+ltt7YImFfjnJHAlBhxNJpHfAcgTWc56STozwPvwApAZmkLVu+iM4WxXGthiKRlke8AMnRb5c/9iLb//G7i/yzejq2sqWoBDo85lojEoARdxL/j+3z8P8RblgaWnN8R4fy+fdfvqvH4EGBMzFgaRQeaQZf8baH2qpSo3gssTGEcF48AX05hHNebhCJpWYzd3G507UR/3/2vyp9HRnzeXJKtZDkX+EWfvx9S70QRSZ8SdBG/WulNlP8BnJ1wvFoz4fX0fcGtVShuK8V40xNkHSoQJ/nrJvk+7KvIv5/4udjy/CTq7aUVycoarFBqo9tI/VUqtT6/nt4Z9KiF2tLoXPIprDUcWCHb8SmMKSIOlKCL+LU3MBObbXtnCuO59k0HWzJX7cl6E9YeqmwWAZt8ByFNKcnr6ya2XWKalxep32pJpFEtBV7wHYSDJdSPc2qNz92MvTcYQrQCcWuIvxKvrxeA12E3CiZh9XJEJAdK0EX8ejm2v+v9wIoUxrsd972vs4FdKh9vJL0iUY3kSd8BSNNKsrz0eySfyY7rt5R7T6+UzxrSaz+YpXp9zsG6ufRXrd5+FNFmrx8mnfcTYL+H3lX5+PiUxhSREErQRfx6GXAF8MeUxluO+5LuFrbtv/7PGucUfYn7E74DkKYV9GY8yDPAd9IMJKLNwK8TPL/ovzOkeFoo/kqpWkvcq7PgUZe31+plnsQV2H7001DeIJIL/aCJ+DMdS6bfl/K4UQrF9d2HXut5gxPGktTTJFu6uDStQEQiGEz8/Zo/wFa0+PQb4s9Ijgw/RSRVPdhrRVyNmNwvAu6rfBy1//lN6YYCwAexVXY7ZzC2iPSjBF3En63At4HVKY8bZan6EX0+foRt3+S0Y8vgfbqFZO2q1PJJfGgh3gz6s8DPUo4ljsXAX2M+t9ZeWpGsJWlF+BDRCqzm4X7sxsFotm3FGmY1tsQ9bT3A5/B/81CkKShBF/HnGWBZBuPejfvs1y70Fn7ZwPaz6C1pBRXT34m/j7wHS3hE8jYEGBjjeT+hcd4AXxLzeariLj4keT97B3B1WoHEtLXf36v7zw8AJkcY51ayK/i6Gt30FsmFEnSR8llK79K4MAMIXuaepNBVUs9j8cTtA91BOr2oRaKaDIyJ+JwNwPkZxBLXbcTraT4TvbeQYrmd9PdtRzWgz8dd9NaEObjGuUHuTCccEfFJL6Ii5dOJ3UV31XeZ+00kWyqYpoewfXhxZ8E3A1tSi0bE3UhgWMTnXEY2K2rieha4McbzxuC/doVIFEuwm8E+96JP7/PxIuDBysc++p+LiGdK0EXK6cHwU/7jAHp/F9wPLEg/nFiqPd3jLqlbRvr7+0VcTCT6Uu8Lsggkob/FeM4UYETagYhkaC12MzeLvduu+m6J+Vflz6HA4RHGWAnck1pEIuKNEnSRcroXm0F2sRmv3jcAACAASURBVBe2LLXq5j4f+2yZVF1uH/dN01a239cnkodJEc+/E1tS3miuJPqe+InA8AxiEcnCs8D6ysf3eoyj72tVNUE/DBgXYYx7SVZUVUQahBJ0kXJ6CHjc8dwR9BaKg21btExMLaJotmAV3MFmwuMsVV8JvJhaRCLuZkU8/+eZRJHcOqK3bBoATMsgFpEszKd3ldbtQSfmpIveivInRHxuFu3VRMQDJegi5dRDtLYxfZfRzaV39t1Xgj6f3uJwTxOvkvt6NIMufsyOcO564KqM4kjD32M8R72SpSgW9/l4Du4dULJyF/BE5eNDIz5XCbpISShBFymvuyKc27eS+yJ697H5WuJ+S5+PN2ExRaV2T+JDGzAjwvl/Jbu2SGm4iehJyw5ZBCKSgfl9Pn6ceK81aeis/DkHe90dC+wT4fnLsZVzIlICStBFyuuW8FP+4xCs8jTY7Pucyse++qD3v7nwWIwxfLaIk+Y1HtgjwvlXZBVISubTW7DR1V5ZBCKSgb6vLVvxUwuind5tIdXX7X2BqRHGuJXo9SJEpEEpQRcpr0ew5eEuJrBtv9VqobhBqUbkpofti/U8GmOcRmpZJc1jMvbz5GIh8ZaQ56mb6HtzNYMuRbCJ7Tue3OghjsHALtgNgmqCflDEMaK0VhWRBqcEXaS8Ooi2J61vgl6dQR+SXjjOHmX7PeePE325vQrEiQ97Rjj3z8QrgJi36yOeP6VyiOQlTr2RFWxfTHVezLGS6Kkcj9C73eWAiGPcl2pEIuKVEnSRcouyXO/IPh8/CyzFKjLn7S5sZqOvucCqiOO0pROOSCT7RTj3z5lFka7riLYiZTw2IyiSlzg3kxey/Y3fBViinKeWShzXVP4+FDg2wvOfJlpRWBFpcErQRcotytLwPdn2Tc7V+GmXVKu43Qv0VnUXaWSuCfqjbL+8tlF1EG0WvY1o+/BFkmghWueEqlp9z7cAdyeKJp5OereS7EG0QpN3ARtSj0hEvFGCLlJuD7BtG5kgs9m2H/r15F8krpP6xe3uzzMQkRiGsO3PUJDLsBtPRXFpxPNdvw4iaYjTtaPesvC5SQKJYTA2c1+9oX5cxOf7KGwnIhlSgi5Sbutxr8A8gG33vT0a4blpWRhwTR+zGiJR7I/bqpMOGr96e3+3Y3t2XSlBlzzF2Tfev9ZJ1Z3kWxtiAlacblHl70dHfL76n4uUjBJ0kfKLMhtweJ+Pl2J35kelG06gOQGPxWm1JpKn/XGr27CA2strG9k64G8Rzt8f92r2IklUi6xFsZL6XU4eJtrNqKQmYq+3W7DOKftGeO5itP9cpHSUoIuUX5QE/Rh6W6utB/6JLTvPS9BMwGK0z04a2yGO512WaRTZuSTCuZOBnbIKRKSP4UQvaPoIlqTXkvc+9Ifpbe92ENHaFN5I9JsTItLglKCLlN/dWLLtYje2XaK7nnzblQUtqV9GtKJaetMieRqMW4LeTXGqt/f3L6L9DB4cfopIYjOxJD2KJwh+jbgxdjTRPUdvl4SDiPbevF7NFhEpMCXoIuW3GvfZgBbc9r+1kv7vj4Vs35O2ry60lE8a107AXg7nXYvNmBXV7yOce2T4KSKJxdl/HvZackecQFJwaMTzVZtFpISUoIs0hxsjnOvyprqL9Je+30H4TH+UxGZiglhEojoMt64HURLcRnQ57j/7h2UZiEhMW4GHQs55jN6ibXkZCRwV4fyHgPkZxSIiHilBF2kO90Q4d3+Hc57DitqkqVb/8/7mY0uEXYxOEItIVK90OGcJ8NesA8nYk8DVjudOQ/3QJXszgaERzl+F7UEPsoHevuR52Z1o+8/vAjZnFIuIeKQEXaQ5LMC95/LOwKyQczqxVlFp6cYtQb8PeNZxzDzb5EhzG47bzNellOMN9R8dzxsEnJBlICLAMKAtwvmLsZvMYfJePn54+CnbyLtfu4jkRAm6SHNYiPv+7WGEt0dKew/6YtzeDK3Fvd3aWKK9aROJ6wSsanmQbuD8HGLJwxXUb1HV33FZBiICDIl4vsvNYLAEOM8uJuMinNsB3JxVICLilxJ0kebQg/sy905gU4ax1DIP9xlv1xsNE4n+xk0kjpc4nHMd5dkvuhn3lmv7E235sUhU0yOe79qJ4F56q6vnIcp78oWEL9MXkYJSgi7SPOY4njeI8Bn0tEWZCXC90dCCfsdJ9gbilqD/LutAcvZbx/N2AfbMMhBpegMjnn+/43mbCO4skrYo+8//nVkUIuKd3ryKNI9bgI0O5w0kfLlu2qL0cnVdnjgNW+YukqV9K0eQp7Hq52UyH/ibw3ktaB+6ZCvKDPpzWA90V3kuI49yo+GfmUUhIt4pQRdpHktxX2KbZgG4MKuw5XqulgJPOZw3HNtPL5Klkx3OuZR897Lm5TeO57l8jUTiirKF4j5gdYTzb4oYSxKu27w24b7VS0QKSAm6SHO50fG8PIur3QKsiXD+RtwKyrUBo2JFJOLuLSGPdwD/l0cgHlyFW7G4o7AVLSJZGB/h3PuwPuiuHsSt4nsaXJe434HbTWoRKSgl6CLNxXUpeVibtTS57o3vy3X2YFKMsUVcHQDsFXLOn3GveF40HcCFDucNBl6WcSzSnNqItpXp0YjjryPaFqwkXP8daq8mUnJK0EWay/24VWhvzzqQPlyLvvV1r+N5s2OMLeLq3dge6yDn5RGIR7/EbUvMKVkHIk1pFO5FTTtxLxDX1x0xnhOH6xJ3FYgTKTkl6CLNZSluRdby2oP+DLbkMKoHcNtHGLX9joirgcArQ865F7g9h1h8ehpbJRDmcLSiRdI3FvcE/Smiz6BDvNeoqAbitpd+GeX/nSLS9JSgizSXbtyW6+VV/fwhYG2M5y3H7Y3W7Bhji7g4Htgp5Jyf5RBHI3DZYz8BODHrQKTpjAFGOJ47H9gc4xp3kX0/9Am41UyZh1s3FhEpMCXoIs3HpcDalMyjMEmWDj7ocE7Y/mCRuN4c8vgy4OI8AmkAtwF3OpwXtuJAJKooN5NdW3T2tx67mZylTuwGepgbMo5DRBqAEnSR5nMb4VVpXd4opCFJC5tbHc6ZgM2wiKRpIuEJ+s+BF3KIpVH83OGc1xOt4rZImBkRznW5iVSPa92TuIbiVvtF+89FmoASdJHmswp4JOScPNqsrSHZ3r5bgK6Qc0YD+ya4hkgt7wKGBTz+HHBBPqE0jN8T3vppGPC6HGKR5rGz43mbsdolcWVdKG4G4TeTHweezDgOEWkAStBFmtNtIY/PJLw6dVL3Yi1s4lpG+LLDVtzfwIm4Cut9/kesAGIz6cJtFv30rAORpjLb8bw7SdbPfA6wIcHzw7QR/p78hoxjEJEGoQRdpDndGPL4YLJvtXZ9wudvxa2H+iEJryPS10nA/gGPb8GtaFoZ/Y7wBOIYYI8cYpHyawF2dzz3Tuw1I65VJNuSFaancgRJskRfRApECbpIc3oAeD7gcdeCNUmksRfVZdmh6xs4ERfvJXh1yUXEa+VUBiuwJD3IADSLLukYR3gnhap7UrjeyBTGqGcGwTfFN+BWd0VEREQKqgW4ht679v2PewjuyToCq6Je7/kuxxJgUMJ/x97Y3sKw6+TVNk7KbVegg+Dvt729RdcYpmBtoIK+Rstwb40lUs+RuL3WvADskvBa+zleK+i4MmD894c8V73PRZqIZtBFmlMPwcvDp5DtbAHAdJL3RZ6PFc4Ju45m0SUNH8FmgOv5G9m3Y2p0y4G/hJwzFTg5h1ik3HZzPO8pYGHCa70z4fPDbAl5XAm6SBNRgi7SvNJY8pfUGxI+vwu3SvAHJ7yOyHjgbQGP9wDfyCmWRncO4VtkPpxHIFJq+zme9wDhHT+CDABeleD5VUHdUSaHPPfGFK4vIgWhBF2ked0FrK7zWF6/G14KDE84hkuhuGMSXkPkY9ie13quQ0Wcqh4E/hByzgnYEmWRuFxn0JPOPh9G8iXyAOsDHpsU8Ngasm/zJiINRAm6SPNaCdxf57HxWA/xrM0Ejkg4xnWEV+c9muT73aV5jQc+FHLOV/MIpEC+Tfis5cfzCERKaQjuLTRvTHitV5JO29HlAY9tDnjsDurfTBeRElKCLtLcbqzz+TbyS2iTLh18ElvCGGQycHjC60jzegfBXQd+i9tKjmbyEPCnkHPeBOyQQyxSPvvjVsH9CaxWSVwDgdckeH5fQe+5g1aSJW1JKiIFowRdpBiGZTTuzQGPdWZ0zf7eQPJl7i5vYF6e8BrSnMYCnw94vAvtPa/nOwT3dm5Fs+gSz+64zWr/m2QtQw8in84M0wIey6peTCu2EkFEGowSdJFiOBX4RAbjzqP+0rm8WpPNwPaiJ/Fvh3OOS3gNaU6fBSYEPP47bJZOtnc/8PuQcz4A7JhDLFIurlujrk54nTcmfL6rejcRnsTqxWThu8ChGY0tIiJSesdjM1FHZzD2FdTuu/rmgOek0Qe973FJwn/DNGBtyDU2AXsmvI40l7HAswT3V57qLbpi2BlrIZXlz780l4HYsvWw15X1BM9Mh2kDHnW4juvxg4Br/aXOcy5OEH+QjwMdwKyMxhcRESm9MVgRmdWk/4L6GWq/MTgt4DlpJ+jPkrwo3bUO1zkz4TWkuXyP4O+nz/kLrVDOJfjr2A0c4i06KZo9cXtdSbp3+1jsezPrBH0QNkte6znvTfhvqOW4ytg3ZTC2iKRAS9xFimE91ipmLDbblObP7r11Ph9WGT1NE4CTE45xq8M5QasCRPrai+D90YuBn+QUS9GdQ3AV6lbgWznFIsV3nON5Nya8zhvI533yAGoXZe0Ebkn5WjOByysfq3WbSINSgi5SDFux/eJge+9+k+LY84Bnanx+ZorXcPHqhM+/kvC2TkcD+yW8jjSHb2FLXOv5b2BDTrEU3TJsv2uQE4F35hCLFJ/La0UX8McE1xiOJeh56Kb2a9c84LEUrzMUuJTe+jJLUhxbRESkKX2YbZe+pVk5+jq2X1oXNH7aS9x7sJsE4xL+O+Y5XOeHCa8h5fdygr+HgrofSG3DsGJ6QV/XxSTf6iLlNgFYRfjveZcVVUFOcrhGWkvcp2Kvf/3PD7upFdWf+4y9GTgy5fFFJCWaQRcpjif7/f2LpHeHf26Nz21JaWxXU4BjEo7xb4dzTsVmEkRqGUPw0vVu4KM5xVImLwBfDTlnBvDlHGKR4nopMN7hvEsTXueUhM+PYhi1b0wlvcnQ11fY9v3CapL1hxcRERFs5mAZ295hf5F07oKfyPZ3788JOD+LGfQe4MKE/46jHa/z9oTXkfK6jODvnbRntZqNSzHHLLpVSDlcRPj3z2ZgpwTXGICt5shrBn02Vmem77nrSK9DxHtqxHJfSmOLiIg0vXvY/oV2IcmXhQ4HVvYbN2j/XlYJ+ipsNiGuIdievbDraImy1PI2gr9vFmA/KxLfHth+26Cv83xgsK8ApWGNB54j/Pd70t7nr3C4RpoJ+l5YG9C+5/474b+haj/sRn7/WM5PaXwRyYCWuIsUS/9l7mB33/9Bsje0G0nvDUES47EkKa5NwFUO5x0DnJDgOlI+ewK/CDnnTOxnReJ7lPBVCLsB38whFimWV+NWp+SihNd5fcLnRzWO7V+/06jevjPwT+zGdX/3pzC+iIiIAJ+k/t35XyUc+8x+4/0h4NysZtB7gL8m/He4Fve5LuF1pDwGYks+g75ffuctuvIZSnjBuB6sD7VI1Y2Ef88spnZC6mo4tiotzxn0I2uce1yCfwPY77TbAmI5MeH4IiIiUhFWXfpTCcY+rN9YQT1Ss0zQN2DFouIaECG2lyS4jpTH7wj+PnkKKx4n6XkV4T+fzwCTfAUoDeUQrN1o2PdM0pUXL3O4RtoJ+lH9zluGJdhJXB4Qx0asKKuIiIikYCfC92/GrT47GljUZ5xHAs7NMkHvIdkyd4AvOF7n+oTXkeILWpWiGznZ+hXhX/vLvEUnjeQnhH+vdAKzEl4n7GZdFgn6O/udd3HCf8N/h8RxL6rxICIikppBhC/FXQPsG3P8vnfd5wWcl3WCfkXM+KtmsH1V3HqHlvo1L5dZ3LO9RVd+I6nd/7n/8XlfAUpDmIbb7/PfJ7zOMNyK0KWdoH+g33nvS/BveIdDHEn36IuIiEg/lxD+ArwYa8sW1Vl9xngYaK9zXtYJ+saY8fd1juO17kl4HSmmfbB2TEHfG3d6i655vBq3n9PX+ApQvPtf3L5Hjkh4nbAuDlkl6P3boO0fM/7DHeP4bMzxRUREpI4v4/YifA3QEnHsY4HuyvNXYDMXtWSdoPeQbBYBrIds/9Y19Y4zE15LimUaVk086HtiPbCrrwCbzP8R/jO6iuTLl6V4pmI3bMO+P9Io+nmxw3WySNC/1Oec+7GVclHNwr13e9xtcCIiIqU2HHg31hLs+srxF+DNhBeHOQX3NwQXRIyrHStQ0wMsx94c1ZJHgn5lxNhr+b7jtdagYlTNoh2YQ/j3xGm+AmxC7diKnbD/k4eBUZ5iFD9+hNvv8KSz5xOw1zwfCfqP+5wT1uqxnjsdY3gB67suIiIifRyNFWCr9wI6B6tYW89BhBeK63t8LGJ8f6k8byn1l5nnkaCvBqZHjL2/iZVxXK6XdP+iNL4hwNWEfy+E9emW9B1O7+qdoONa4s0wSvHMANYR/j2RtDUn2BaKLF/PghL07/Y55x0xYv91hBjmo58fERGRbbwct1YxncChdcYYgbV9ivLG4I0RYvxY5TkbsZsB9WLIOkHvAT4YIe563hXhenHeHEkxtAE3EP49cLmvAIX34/Zz+gdfAUquriD8e6GLdGaEoyS5aSfoF1QeX0v9VWv1fC1iDGlsBRARESmN8cBK3F9IF2JL4WtxSTT6HuuwFm0uDu7zvJfWOSevBP2fjjGHuc3xeuvQPtcyGgT8hvD//yfREmrffo/bz+pPfAUouXgFbt8Hv03hWsNxX2mVRYJ+XeXx2yLGfXqKMYiIiDSlLxP9xfTjdcY6L8ZYT+J2d34Itry9B1uOX8tIgpfpp3Wk0dcWYD/cls/2ADdis61SDkNxu6G1GNjZU4zSaygwF7ef1fM8xSjZGorbKrGVwLgUrneaw7WyTND/Xnn8yxFiPhToiBHDuyJcQ0REpNTacZ/F7XvcXGe8/n1TXY9rHOO9rHL+yXUeH0p4P/a0jk87xhzmMxGuqT3I5dCGFWIM+//uwjoYSGOYhVVtd/lZ/bGnGCU7P8Xt//79KV3vSsfrZZWg/6vyuOvvoMnYCrs4MRzgeA0REZHSG030feM9WEGXWr3IXfud1jpcqsR+unJuUPsxl8QnjeMGh3hd/TPCdZO2eRO/pmOrIcL+nzcDL/MTogQ4CltB4/KzeiEw2E+YkjLX2ew7iN5GtJapwPOO18wqQV+B/R6qV5S1rwG4daGodSyn/rY5ERGRpjMGW2Ie9QX1MWpXXB2HW3XbekdY3+8jK+cFzV5Xq71nfWwkvaXHk4ElEa6txK2Ydsd9C4ZuxDSut+D+s3olStKLbl+sDVjY//VmYJ+Urvn/HK6XdYK+FWu16sK1RkOtI62aLiIiIqUwFLc+v/2Pu+uM1wrcHmO8vserAuIdBDwHfC7gHJcKu2kdaS1lBGtht9HxuuuxonlSHC/BZqRc/n8/5ClGcfdZ3H9PzCF6FWxpDMNxf438aIrX/ZPjNdM4ghL0bzjE+qWE1/8/h2uIiIg0lZ8T/QX1nIDxfhZjvL7HFoLb09wG/DDg8TwT9GsD4ojjXRGuvRrYI+XrSzaqLQJdjk94ilGi+yLu/69LgZP8hCkxDcBmkF3+f69O8boTgA2O103jqJWg74HVW6jXMaXqjSlcX21ERURE+jmI6C+ouweMd2aM8fofj1C/Cu4PsNZU9eSZoHcCOwTEEkeUonGPAbulfH1JzzDgfNz/P8/wE6YkcBbu/78dWCFNKQbX7VJLgUkpXvcdjtdN66iVoL8UW/kRtDf8IGBTCtc/xvULIyIi0ky+gfuL6UdCxjo+wlhBR729b6cC5wZcP88EvQf4QsjXI47vRbj+WjQz14iOxH2/+WbgdX7ClBT8N9F+Z1wCjPcSqbj6Je7/n0emfO2/Rrh2GketBP3oOp+vmo77lp2w16/Zjl8XERGRpnM24S+mQXu/q3YmveV5td4gHEDwTYK8E/S5Dl+TOH4QIYYXsRsX0hi+iHul73XAK/2EKSn6PNF+bzxE+PJhyV870dqbvT3l60/BktY8X8Nqvc6eTP3XlFbitWetddwa4WsjIiLSlE7EqrGup/cFdFXlc0c5jtEOzCOdF+8e4JP9xh8GvIL6S+/yTtA7ya6H63cixvJfGcUhbvYD/o37/9c9BG8XkWKJUyzrh8AIH8HKdnYCbsb9/+6zGcTwvgjXT+uolaC/HJhVJ8bfpnjtP0b42oiIiDS16cAulWNKjOenXYG2f2X3AZWjlrwT9B5s9iwrn4oYy4XAqAzjke0Nw2bNo/Qt/hvW5lDK5UNE//3xMNri4NvRRGt1+aOM4vh7hBjSOmol6PVeX/8r5Wt/NcLXRkRERBKIOvMbdqwDdnW8to8E/Xagzf3LE9mbiFaM5yFUeCcvp2Az4VG+X77vJVLJy8uBNUT/PXIJ1nNb8vVJrA6E6//TLzKKY0fSKboW9Qjaa97XqRlcW9t7REREcnI66b+QPwSMdLi2jwR9K8Gt4dJwODA/QkydWF2BoRnH1awOx9rsRfk+WQe8zUewkrsDgfuJ/rtkPfBdYFr+ITedXbAl1lH+f7Ls2f3BiLGkdbgk6IcCXSlftwOYGekrJCIiIrHtiBUuS/uNxDUO1/aRoPeQ7TL3qonAVRHjugeb0ZN0HApcQPTvj38B+3iIV/wZD/yZeL9PVgGfQNXes/Iptq214nKcnXFMN0SMJ60jLEEfBzyawXUXYgXnREREJAftwDKyeTPx45Br+0rQ74z6RUrg87hXCa8eFwL75xhj2RwK/A6b9Ynyde8km1Z8UhyfwVbZxE1i/hfNNKbldcB9RP9/+FjGcc0mm5vaLkdQgt4O3JLRdf8Q/cskIiIiSURd/hvl+GDAdX0l6B1kV829lmOJ/kazC7vBsV+OcRZZC/B6rC9xnATrdtLvkSzFdCLwAPF/v2zEllefkHfgJXES0Vcf9QDPYXUmsvaJGLGlddRL0Idg++2zuu7X4n2pREREBKwq+PHY7MMuuC1L+zLZvbAH9U71laD3YHtH89SOzaZHLSy0BTgfODjneItiZ+BbwN3E+z5YDXw496il0Q3CkqGkv2duAj4NTM43/MIZCLwH+Afxvs7XY9u18uBreXsP9RP0XTK+7pvifalERESa21is4vQKoBt7Ud0AzAVeHfLcN5PdC/uDWGurWnwm6PeTbTX3eg4CLosR7xas3ddrsf/rZrY78A6szdEG4v3/dwM/oX7/YBGwm533kvz3zVps28UpwIw8/wEN7kDsBvFTxPu6bgW+ga2gycMOwAsxY03jqJeg70j834UuX2N1LBAREYloJ+Axgl9kgwqjHRLy3CTHvdSvTu4zQe/B9ir78jpsdUGcuB8Dvgccl3vU/uwDfBYr5JX0DfIVaDm7uGsFPg4sJ53fO8uxNm2fwL0lZZnsBfwP8WfLq8dc4KicY/9QwpiTHvUS9D2JXnPD9VgIjIn11RIREWlirkvuTqvz/HHAYscxoh7zqf/i7jtB/0qduPIyEPgIsIB48Xdie9u/j830Tc01+uwMB/bAbmL8GLvJ8zzJ/7+vAV6S479DymUKtjVmI+n9DloDzAN+CLwGWx0yOK9/UE6mAycD38R+lqNWZO9/rMN+dw/J8d9QNSdirGkf9RL0ozK85nXxvlQiIiLN63W4v9DOxfZW1nJThHGiHC9Sf5bId4L+UJ248lZN1B8i2b/nGeBibLXEaylO26fdsOTkM1iho3uJX0m71vFX1L5O0nMg8GvS/R6tHl1Yl4mfAp8DXomtkCqKkdg2nndhrc6uBZ4lva/PBdgMvA97ks3/eZSjXoJ+RIbXPC/WV0tEvGr3HYBIk3tFhHMPwZKhB2o89hhWbTxt3ZWjEe0FHEa+bddq6cCqPl8IvAxLVA8h+r7KKcBbKwfAEqyF3lPYTPtTwOPYfth12Exg1oZVjhHYSorZ2H7J2dhs4VisLVXaSyifA67GZuDvSXlsaW73Au/GVq6cCbyB9G6GtWFbb/puv3kOWxa/GruJNx+7GfcktrLkeaz45KaUYqinBduuNBT7eR6FvZ7siBUp2xHbXz+J+tua4tiKJfrnYDeSfXkz+e11j2pAhmM/muHYIpIRJegifu0Q8fzhdT6f1WxyO437pgbgjfhP0KvWA3+qHCcDb8dWSIyIOd6MynE4cHqfz2/A9hU+gy2xXYWtdFhSeXwrlhBsonYhvW5gNNsnJdOw7682LOkeiFWvnoTdPMjDXCwx/w22bUMkKw8CH8CWbn8AS9R3z+A64+n9WTu+32Nd2Pf5GiyRXwusrDy2hG2T9lXY75haP9Nd2M/0hD6fG4IVUezAfrarcUwin+00PcAfsVnz63O4XpiTfAdA/cKmUd8HuNoKPJzR2CIiIqV1KdGWqx1RZ5yX0lv9Pe3j8DrX9L3EvQd7k+3Sis6XXbE2YDdjldx9f70a8ViCVWQ/Ad00Fn9GY+2oriK7itrNcCwFvg7sF+3Ln6l9sJofvr82X6kT3/szut4qrEaNiBSM3gyJ+PVIhHPXU39W8QFs2XMWLbyyXH6X1N7YctI5vgOp47HK8RNsb+dbsRseeVcvbjSPAbcDV2Lt1rb4DUeEdVgLxcuwfeP/D7tplMXWobLZgC1fvxy76fyC33C28xIa4/3uijqf35rR9ZZiWytEREQkghnYMkaXu+E/ChlrnuM4UY96yWQjzKD3YC3LiuYYbP/rNTTHbF0HcBtwFlbwbWTyL6FILo7C2nP9A789tBvtWI0l42eQzdaANN2B/69XD/Z9VMs3M7rez2J9tURERIQzCX+hffcxhAAAIABJREFUXYC1uwlyocM4cY631bleoyToi6hf3b4IJmJLa3+FzSqnWTXZ17EUW9b/M6w94HQaeyWGiIsp2Pfzb7FVO8/h/2ctr2Mtluj+Ang1xVk6vSv+v3bV48N1YvxRRtf7eJwvmIj41whLfkSa3XlY8vItaieaN2FJ8rKQcR6gfjKdRKPPds7CZrn+5TuQmJ6ld2ktWMGgg7A3lntWPt6F+gWGfHsWK1K4AKsYPB8rTPSMz6BEMrAcmzW+tPL3XbBOEjtj+5z3rXxcBk9jP9f3YD/X91PMiuD/z3cADrLa4tMorUhFJCIl6CKN4QfAddhM6uHYXvInsIJFl2MFbsLUar+Whqzb/6ThzRQ3Qe9vYeWoGo19P+wI7IHtj90Nq8Y8qs+R9u/zLdjS9I1Y/YMN2Mz4IqwWwqOVOJ/HihE1ajs+kaw8XjmqxmIrYnbBkvWZlT9HYzPOw7Hq6o3gBexnu1pBfgHW+u3Byp/PVY4iawVe7zsIB1l0ydiI/T+KSAEpQRdpHI8AX0vw/Kewdjtp/1zn0ZInqROwtmAdvgPJwLrK8RTbtysahv3/TMGSg1HYioeJfc6ZhrV666r8vdo2bxnWnq2qE6uo3oO9MV+DvYlfhc0c9qTyrxEprzWVYz52c7WqFZiNJenTsJ/XKdjKqer2jynYz+kW7Od3AtFuerViv/+WVv4ciLVsW0Pvz3YnVqjsmcrxHDZTXlaHAnv5DsLBpAzGXIStbhKRAlKCLlIeS7FZzX1SHndayuNlYRes2nIj9NvN0wtsP4snIo1lK3aD7SngrjrntAGDsRtpI7FkPUp17xYsoV9D743ajTHjLYuT6L0h2ciyWKX2CNvegBWRAlGCLlIeL2JL2tJO0IuwxB2sF3yzJegiUg7d9LYnW1U5JL5WrKBfEWQxgz4vgzFFJCetvgMQkVRlUcRnfAZjZuFN2LJOERFpbgeQ/s3qrMzMYMzFGYwpIjlRgi5SLo9kMGYRlriDFVE7zncQIiLiXVFmzyH9Ku6byOa9gIjkRAm6SDFMAN4AnA7sHnBeFnuRi1R47d2+AxAREe9e4TsARyNIf+XXeqwtnogUlBJ0kcb3Sawq8J+Bi4C7gZ9jL+z93Q9ck/L1R6U8XpaOwSqbi4hIczqcYlRvB6vin/Zr1iVEKzAoIiIiEbwXa29V6/hznecMAS4IeF7U4xlqV8K9IsVrpHm8of6XU0RESu6b+H8dqnV8uEasu2JtNNO6xqdjfs1ERETEwXCsZ23Qi/ERAc//TMhzXY96fXIbNUH/acDXREREymsIttXL9+uQa4K+N7AhhbFXY4VSRaQEtMRdpHHtRnj7leMCHvtfbB/e6oRxtGI9eoviFGC07yBERCR3hwI7+w4igtnYzfgk7sO2d12WOBoRaQhK0EUaVzfh+8jCXtivBY4Cbk4QxwhghwTPz9sk4EjfQYiISO6KVL0dkt387gF+iSXnqtouUiJK0EUa1yJgTcg5tzqMswD4VYI42oBBCZ7vw5t9ByAiIrkaBJzsO4iIatV3ieJnwAtpBCIijUMJukjjWocVu6nnhsoRZjTwPwlj6Un4/LydBAz1HYSIiOTmeGAn30FENDvBc1uAs1OKQ0QaiBJ0kcb2Q+DbwKZ+n/8L1hO902GMTwA7JohhGDAzwfN9mAq82ncQIiKSm6L0Pu8r6Y3kk4GXphGIiDSOdt8BiEios4CLgX0rf18K3OT43PHAxxJev4Vizka/BbjUdxAiIpK5IcCrfAcRg8tN9jDnAAdSvJVuIlKHEnSRYniwckT1BWBMCtffnMIYeTseKxi30nMcIiKSrUMoVvX2qskpjLE/8FrgrymMJSINQEvcRcprFvCRlMaantI4eRqDJekiIlJub/QdQEzjUhrn28DglMYSEc+UoIuU1xeBgSmNlcZdfh/e5DsAERHJ1DDgVN9BxJTW6rTdgTNSGktEPFOCLlJO+wLvSXG8/kXqoBi/P04CxvoOQkREMvNSYIrvIGKakOJYn6Z4LVFFpIYivMEWkei+iPUvT0utNxEdKY6fldHA630HISIimTnFdwAJTExxrFlY1xYRKTgl6CLlcwxwWspjTqrxucUpXyMrr/QdgIiIZGIEcKLvIBJIuwDrZ7Ab0yJSYErQRcrnGxmMWWu2vCgtXV5CurMUIiLSGI4DpvkOIqYBwKiUxxwPfD7lMUUkZ0rQRcrlZcCxGYw7ssbnWjK4ThbGAK/wHYSIiKSuyCukRpLuHvSqjwI7ZjCuiORECbpIeYwCzslo7KkZjZuXtJf8i4iIX0OBN/gOIoGtQHcG4w4FzspgXBHJiRJ0kfJoJ7ul3J0ZjZuXkyhmL3cREantRGrXRymKgWRXdX18RuOKSA6UoIuUx2rg3ozGHpDRuHkZCLzWdxAiIpKa030HkNAksludNi+jcUUkB0rQRcolqxflKRS/n7gSdBGRcpiErYwqshayex++IKNxRSQHStBFyuXRjMZtI92+6j4cBczwHYSIiCR2AsVfxt1KNt1QNqAZdJFCU4IuUi6Pkn5fVbDfFUX/fTEcONl3ECIikliRq7dXTSCbbihLgPkZjCsiOSn6G24R2dZ8YHkG406hHL3Ey/CmTkSkmY0DXuc7iBRkVdvlyYzGFZGcKEEXKZcXyebO+QCKXygOLEEvess4EZFm9jKsh3jRbc1o3PsyGldEcqIEXaR8Hsho3KK3WgNrafNG30GIiEhsp/kOICXTMhp3TkbjikhOlKCLlE9WxWHKsMQd4O2+AxARkVjGYgU/yyCLzihdqIK7SOEpQRcpn3vJpjJsGZYUAuwF7Oo7CBERiexkrLhaGWzKYMwngWczGFdEcqQEXaR8VgBPZTDulgzG9GEYcKrvIEREJLIyFIeryqLt5z3AxgzGFZEcKUEXKZ/ngYczGHdSBmP68nHgAN9BiIiIs/cDb/IdRIomZzBmVjVoRCRHStBFyimLfehZvJnwZQJwFeX6N4mIlNXLgHOBNt+BpCiLJe5PZDCmiORMCbpIOT2UwZhZvJnwaRpwJTDYdyAiIlLX/pTzd3XahVdfAB5JeUwR8UAJukg5PQF0pDxmWQrz9HUI8FvfQYiISE0TgSuwFpll0kL6K7ieRhXcRUpBCbpIOS0AlqQ85uyUx2sUpwE/9h2EiIhsYwjwd2CW70Ay0EP6N9GfBLamPKaIeKAEXaScXiT9vWibUx6vkZwJfMZ3ECIi8h+/AQ7yHUSKBvT5uA0YnvL4WRSHFREPlKCLlNf9KY83JOXxGs13gff6DkJERDgPW91UFj1su6ptCLBDyte4M+XxRMQTJegi5ZV2objZlKuCbi3nA8f7DkJEpIl9FviI7yBS1gM81+fvW7F96GnZSjbdW0TEAyXoIuU1N+XxWrA3GWV3ObCb7yBERJrQu4BzfAeRkb5L3NMuevcUsDLlMUXEEyXoIuW1CFie4ngDaI7fGWOAvwDDfAciItJETgB+7TuInMwm3deYRylfK1SRptUMb7ZFmtUW4J8pjjeb8u9Dr9oDuBZo9x2IiEgT2BW41HcQOUr7hnczfe1ESk8Juki5fQxLNNNovTKQdPfMNbqjUY90EZGsTQKuBsb7DiRHW0lvy9g3gAtTGktEGoASdJFyWw+8B5tNT6ob6ExhnCI5HavuLiIi6WsD/gjs7DuQnM0gnRVaXwW+lMI4ItJAlKCLlN9rgMEpjJNFW5gi+AzwCd9BiIiU0O+B43wH4cHoFMY4G/hKCuOISINRgi5Sbu3Ah0hnafpAYGwK4xTRD4A3+g5CRKREvge81XcQniQt6PY14ItpBCIijUcJuki5HQ3sn9JYW0lnqXxRXQQc5TsIEZES+DjwKd9BeDQrwXO/Dnw5rUBEpPEoQRcpt+NTHKsNmJLieEUzCLiC5lzmLyKSllOBH/oOwrO4BfG+AfxPmoGISONRgi5SXq3ASSmPOSHl8YpmPPAPYJTvQERECuhg1B0DYHOM53wdFYQTaQpK0EXKawJwSMDjy4AFEcdMum+uDHbGqg6LiIi7HbG2n0N8B9IAJkU8/2w0cy7SNJSgi5TXTKywWz0rgJcDt0QYc3KiiMrjZOAC30GIiBTECOAqYJzvQBpElAT966ggnEhTUYIuUl67hzz+PLCIaHsBZ8SOpnzegwr1iIi4+DOwp+8gGkiH43nfQjPnIk1HCbpIeY0Jefz5yp/PRhgzzr65MvsK8AHfQYiINLBfAC/1HUSDGepwzjeAL2QdiIg0HiXoIuXVHfJ49eff9U4+uL2paDY/BU7xHYSISAP6KnCG7yAaUNgS93NQQTiRpqUEXUTWAC84npukd2tZtQAXAgf5DkREpIF8AC3PrmdrwGNnA5/LKxARaTxK0EXKqy3k8eobhOeBDRnHUnZDgWtQj3QREYDXYauLZHvt1C/g+m1UEE6k6SlBFymvsP3i1QS+G+hxHHNA/HBKbwJWCKnddyAiIh4dBFyKrS6S7U2m9hL3s4Gzco5FRBqQEnSR8loU8ni1ZdqoyuEiau/WZnMAcBlK0kWkOc3C2qkFtfhsdq1sf/PiW2jmXEQqlKCLlNfTIY9PrPw5Gvfib5oRCfc64Ee+gxARydkA4Apgiu9ACqDva+l3ULV2EelDCbpIea0AVgc8Pg2b5Qib6fgLcEPl41p3/mV7H0JvuESkebQDlwD7+w6kACbSe4P8W8DnPcYiIg1ICbpIea0H7g54vA2YCcwOGedPwCuBB7E3X9PSCK4JfBO1FxKR5vAj4I2+gyiICZU/z0M3ckWkBiXoIuX2QMjjJwInhJyzAOuVfgrwd3r3oev3R7jzgGN9ByEikqGzsFVD4qYF+CHwUd+BiIiISP7egFVor3dcCSwOePw+ti141gqMrHx8dsjYOux4Edi7zv+PiEiRnYH/37FFOLqxG+IAw6J/mUWkmWgGTKTc5gBrAx4/CZgR8PiVQFefv2/F+qYDLEkWWtMYAlwODPcdiIhIio5Hvc7jeMF3ACLS2JSgi5TbM1iSXs+QgMe2AL8NeHxrrIia0y7ATbhXyxcRaWR7An/DapmIiEiKlKCLlN/fYz7vD8BTAY+rmns0BwK/Ql83ESm2yVhyrqXaIiIZUIIuUn6XY0XeotgEfCX9UJrem4FzfQchIhLTUCw538F3ICIiZaUEXaT8ngGuiPicrwCLUo9EwCr3ftJ3ECIiMZwPHOQ7CBEREZGieynu1WZvdBzzgxHG1LH98VbHr7OISCM4F/+/N4t69K3iLiISSDPoIs3h38C1wHMh5z2NEse8XIxVQRYRaXSfBD7mOwgRkWbQHn6KiJRAF/AKYALwWmA3YBIwHji08ucq4E3Ack8xNqPLsK9/UDE+kXqGYD+7E4CpwFhgV6wDw0LshtwKYBn28y0Sx2nA930HISLSLJSgizSXVcAF/T43G9gLeBjtO8/bOOAa4AhgjedYpPEMwJLw6cBMYFbl2AUYTW9SPp76r+cd2E23VcBKLGlfBCwGlgLzK5/bjFonyvaOAS7xHYSISDNRgi4ii1Bi7tOuwEXAq1CC1GwGYAn2hMoxDquOPQvYEbt5NhlL0gfHvMZAehP7WjYCL2AJ+xJsm8uiyp/VpH41sC7m9aW4dsYKjGo7pIhIjpSgi4j493Lgd8DbfQciqRuAJcczsFnw6ZVjQuXzE4EplfPS0F35s83x/OGVYxJwSI3H19E7874EW+nxdOXjJyt/altM+YwHrsZuIImISI6UoIuINIa3YbOYX/AdiEQytnKMwZLunbGl57OxWg9jgRGVI4/X3JWVP6emNN7oyrFbjcc2ARuwGfhlWC2FpdgM/GNYcr8GWIvN1EtxXIit7hERkZwpQRcRaRxnYUW9fuQ7ENnGNGwGfDI2Cz65clQT8enAMF/B9ZN2gh5kSOUAW5p/dI1zVgHPVI6lWCK/tPL3ZdgM/NrMI5UofgOc7DsIEZFmpQRdRKSxnIstGf6T70CaxFBgZOWYgSXc1YJss7F94eOwGfK4+8DztNp3AP1U99fvV+Ox57FZ9rXYEvqnsOrzT1c+fg5Yj83Sb84jWOEc4J2+gxARaWZK0EUkLhUOys6vsf299/oOpCRGY7PgU7HZ7nH07gefWXlssrfo0rUa6PQdhKPqjZGZlb+fWOOcJdhs+2LgCWyFyUps9n155WMtn0/HR4DP+g6ipFrQa6aIOFKCLiJxDfQdQIkNwwo0HY0l6lJfG1bkbBiWgO+GLbeegc2Cj8YKsY3DksGyW4L9+8tiRuU4rN/ne+jd374KS9wXYbPvi7GZ+BXY/vgNOcVaZG8CzvMdRIm1VA4RkVBK0EUkrpuxHstK1LMxGbgM65He7Mt7h2JJ9kTs6zIFS0Kre8NnVz6n70WbUc5j/7lvLfRuP9i5xuM9wBYsWX8Ku3GxGEvg19A7+74a/XztD/zWdxAlNw94yHcQIlIMupsnIkm8GrjKdxAldy3l75E+ECs2Nhub9d6J3pnTcVgLsOpeZgn2XmBf4OO+A2lw3cCzWIK+GEvaF2HL6av74J/Gkvzu2kOUws7AbdjNL8nGYuBw1I5QRBwpQReRpM4Efuw7iJL7FZZ4FdVALAEYiyXZ44E9sVnvmcCOlc8NBQZ5irEsDsP2cp/tO5CC2wS8iM28L6z8uRSbjV+DJfLP0XhF+aIYCNyJzaBLNrqAo4C5vgMRkeLQEncRSeo8LNFS/+7svAebzfua70ACDMGWnVcLsc2q/Fldkj4NS9JVKCk7L2CFBctS8M6nagu5cdROYF/E9rivwJL1VfQm8dVe8AvzCDSmduCvKDnPUg9wCkrORSQizaCLSFrOp9izvEXwfuCXHq7bjhVbG1M5qnvAq/u/dwVGVY7hKAn35W7gEOwmyRP09iiXfHXR20JuFTbr/jS9M/ArsJn36jk+/BJ4n6drN4uPosJ7IhKDEnQRScsQ4O/A8Z7jKLNu4GTghgzGbsWWm1dnu2diy85nYYn41Mrni9ALvFl9D/hM5eMHgb09xiLBVmNF6qoz7s9gifvCysfVInZZ+BKNvRqnDL4DfN53ECJSTErQRSRNY4FbgT18B1JiHdg+43kRnzcU+/8ZjiXfO9BbCX0HbCnvWGwWXPvAi+l04JLKx78AzvAYi8S3EViP7XVfjS2XX4S1XFyEJe7PV45NEcd+H35W4TST89HPnogkoARdRNK2C7bnbrTvQErsaawq8Ip+n5+EzXRPrvw5Hku+q7PiO6H/l7LqAg6gt5XT6cBF/sKRjC2nd8/7Mux3worKx89gFer7L58/EbgOaMsvzKZzJ7aKrNlb94lIAkrQRSQLRwI3AgM8x1FmdwN/obcK+mgsER+H9h43o/nAQVjxMrDiX/f5C0c8Wls5VmGz8POxivNnYStoJBuPAkdjX3MRkdiUoItIVt5C73JbEcnWH7GfuaoRWEX3nf2EI9JUNmIFGuf7DkREik+VdkUkK38A/st3ECJN4v5+f99Q43Mikr4O4GUoOReRlChBF5EsfRf4me8gREquB7irxueVoItk713AHb6DEJHyUIIuIln7ELZXWkSysRzrntDfrVhrPhHJxqfQVi4RSZkSdBHJw1vQDINIVu6ndtXoeahglUhWfgb8wHcQIlI+StBFJA8dwBuAJ3wHIlJCc+p8fi29bddEJD2XY6vDRERSpwRdRPKyAng98LzvQERK5vaAx+bmFoVIc7gdOM13ECJxjB8/ngED1AG30SlBF5E8PQy82XcQIiWyieCVKbfkFYhIE3gaS85V20EKZ+LEiYwZM4atW7f6DkVCKEEXkbxdC7zPdxAiJTEXWBzw+IPACznFIlJmLwKvAZb5DkQkqgkTJjB27Fg6Ojro6enxHY6EUIIuIj5cAJztOwiREngICJoOWYmtXBGRZE7FbniJFEZLSwvjx49n7NixdHZ2+g5HHClBFxFfvoh6pIskVav/eV9b0D50kaTOAP7uOwiRqNrb2zVzXkBK0EXEpw8BN/gOQqSgNmMt1sKokrtIfGcD5/sOQiSq1tZWJk+eTHe3SiYUjRJ0EfHtbcDdvoMQKaBFuC25vZPafdJFJNjPsdVeIoXS1tbG9OnTGTx4sIrCFZASdBHxbSWWpK/yHYhIwczDrZr0o8AzGcciUjbXAB/0HYRIVK2trUydOpVBgwZp33lBKUEXkUbwGPAKbL+siLhx3Vu+BZifZSAiJfMA8B7fQYhEVZ05HzJkCF1dXbS0tPgOSWJo8x2AiEjFctQnXSTIBqwP8/VYgcVfAx2Oz70XWAr0YDfnh6P3ACK1rAReTnD7QpGGNHz4cMaNG8eWLVu2S85bWlro6enh+eefV8G4BqfbKiLSaD4GnOs7CJEGsBqr0r4AKwZ3Dzazl1QrcBRwCLBn5dgPGJrC2CJF1gUcht3QEimUwYMHM3XqVICaCXhLSwvd3d0sWbJE+9IbnBJ0EWlE3wM+5TsIkRxtwmbu7gFuxxKERZUja63ALpVjP+BEYC9gHJpll+byBuAvvoMQiWrIkCFMmzaNnp6eusm3EvTiUIIuIo3qUuBU30GIZGQ9VuTtaeBmbD/5AtyXrGdtBHAANst+ILATsD8wyGdQIhn6FPAD30GIRDV48GCmTZv2nwS8HiXoxaEEXUQa1WDgOuBY34GIJLQVq6I+B2t59ijwOFYcsUj2BXYH9gGOAA4CRnuNSCQdPwQ+6TsIkaiGDh36n2XtYf3OlaAXhxJ0EWlkk4Fbsdk7kaJYCzyBVU6fgy1ZX4jNmpdFCzAWS9gPB44DdgB2BQZ6jEskqj8Ab/UdhEhULS0t7LDDDv9JvMMqtitBLw4l6CLS6HbEkpwJvgMRqWMFcDd2M+lJrKDb414j8qMNWwa/J7AHcDBWcGukz6BEAtwKvBTY7DsQkajGjh3L2LFjQ2fOq5SgF4cSdBEpgpOBa9DvLPFvLdau7FHszf1t2PL1FT6DalCtwDRsBcyR2Cz7rMox2GNcImCrXI4EVvkORCSqsWPHMn78eLq6upxbpilBLw692RWRong78HvfQUjTWQHcBzyEJeVzKn9KPO3Y3vUDsarxh2HF6Ib4DEqaznPA0VhhRpFCGTNmDBMmTIiUnIMS9CJp9x2AiIijC4GZwDd9ByKltRFrdXYfVln9HqzK+jKfQZVMF1Yo787K3wdiM+o7Ycn6kcBuWP0JVYyXLPRge86VnEvhxJk5l+LRDLqIFM0vgff5DkJKYSW2X3xB5c+7gAe8RiRgSfuB2AxndT/7gaj4nKTjXcBvfQchEtWYMWOYOHEinZ2dsZJzzaAXh2bQRaRozgAmAa/xHYgUymYsIb8X2zdeTcyX+AxKaurAthLMqfy9DasWvyO2HP6Yyp9jsH3uIq7OQsm5FFBLSwtjxozRzHmT0Ay6iBTRUKx11X6+A5GGtR7bN76A3v7jC4AtPoOS1Ayjt0r8/lh7t73Rsnip71fAe30HIRJVS0sLU6dOZciQIc4V2+uNoxn0YlCCLiJFNQ34N1ZoSprbVqyYW3XWdQHWg/wxn0FJrlqAfbBEfX9sL/v+2Cy7yF+B1/sOQiSqanI+bNgwOjs7E4+lBL0YlKCLSJEdDNyIzaZJ81iL9Ruvzo7fhC1VX+czKGkorcBYbGn80ZVjJlaATnvZm8s84HC0ekYKJs3kvDqeEvRiUIIuIkX3auAq30FIpp4F7sCWqT+OFXLT7LhE1YoVm9sbS9QPBQ4BRvgMSjL1JPASYLHvQESiSDs5r46pBL0YlKCLSBm8FzjfdxCSirVYW7NHsdURd2Oz48s9xiTl1A5MxWbWTwKOwlq+zQAGe4xL0rEFS85v9x2ISFSDBw9m5syZqSXnoAS9SJSgi0hZfBP4gu8gJLJnsb7j92H7xu+s/Cniw0CsQvyB2Cz7gdhMu4rPFc/rsb3nIoUycOBApk+fTktLS6qJtBL04lCCLiJlcjHwVt9BSF0bsVZn9wE30zs7vtRnUCIB2rH2bjtgheeOxArRTUSz7I3sDLSqSgqompy3trYmqtheixL04lCCLiJlMhArGHa470AEgNX0zow/AMzF+o+LFNlgeivF74lVj98HGOIzKPmPb2P9zkUKpZqct7W10dnZSUtLummaEvTiUIIuImUzGrgFKwQl+dlC73L1m7GE/Algoc+gRHLQjrV73J1tW7yNxQrTSX4uBt7mOwiRqAYPHszUqVMzmTmvUoJeHErQRaSM9sZ6pI/3HUiJrcfaFz2FtTq7E2t7ttlnUCINYgS2l/0IYD9spn13tJc9S7cBJ6J2alJAM2bMYPDgwZnMnFcpQS8OJegiUlYHYzPp2ieaXA9WWf1uLBlfADyCWp2JuGrHkvQ9sBuIx2Cz7KN8BlUiDwHHAWt8ByIS1ahRo5gwYQJbt26lp6cns+soQS8OJegiUmanApf6DqKA1mHL0x/HbnLcihVzW+czKJESacOWwO+B1cw4AitGtxuaZY9qFdZO7SHfgYhENWrUKCZNmkR3d3fmSbMS9OJQgi4iZfdJ4Pu+g2hwK7CZ8XuwpHweNksuIvk6GNgXS9QPBQ7ClstLbVuw/vX3+A5EJKpqct7V1ZXpzHmVEvTiaPcdgIhIxn6AzUyd6TuQBrEOeAarpn47cEfl78t9BiUigG0jubvycTswFZiNFZ47CZhZOTTLbs5AybkU0MiRI3NNzqVYNIMuIs3iCuB1voPwYBU2Iz4PeBi4C9s/LiLFMwCbZT8I68e+P3AIzVlr47+A7/oOQiSqanLe3d2da3KuGfTiUIIuIs2iDevDfaDvQDK2FfgbcC3W6mwxtn9cRMqnDdgJmI4VnnsNlryX3a+B9/gOQiSOWbNmMXDgQLq6unK9rhL04lCCLiLN5FjgJt9BZKwL25M513cgIpK7Zqi5sRxbPbDRdyAiUbS0tDBp0iSGDx+eWa/zsOsrQS+GVt8BiIjk6GbgQt9BZKwdKy4lIs3nMN8B5OBLKDmXAho0aBAjR470kpxLsShBF5Fm822sr3eZHeI7ABH2VrlkAAAgAElEQVTJ3SjKn6A/BlzkOwiROMaOHauZa3GiBF1Ems3DwM98B5GxY1BrJpFmMxOr+F5mXwQ2+w5CJKqhQ4cydOhQJejiRAm6iDSjbwEv+g4iQztQ/jfqIrKtsm9tuQ+4zHcQInGMHj2a1tZWtVQTJ0rQRaQZLQH+13cQGdvfdwAikqsjfQeQsf/yHYBIHBMmTGDYsGF0dHT4DkUKQgm6iDSr7wMrfAeRIe1DF2kuZW4h+U/get9BiETV3t7+n8JwLS1qniVulKCLSLNaT7ln0Q/2HYCI5GY2trWljDqBs3wHIRLHmDFjaG9v19J2iUQJuog0s3OBp3wHkZGdgXG+gxCRXByIVXEvoz8B9/gOQiSqAQMGMGLECDo7O32HIgWjBF1EmlkXVjCujMYDR/gOQkRyUdaaEy8CX/cdhEgcI0eOpL29XZXbJTIl6CLS7M4H5voOIgMtwH6+gxCRXOzjO4CM/BiY7zsIkaja29sZNWoUXV1d2nsukSlBFxGBr/kOICMH+A5ARDI3hnLejFsPnOc7CJE4Ro8eTVtbm/aeSyxK0EVE4GrgBt9BZKDM+1JFxMyknAXivg0s9R2ESFQDBw5k5MiRWtousSlBFxExX/EdQAZ2AGb5DkJEMnW47wAysAL4qe8gROIYMWIEAwYMoLu723coUlBK0EVEzK3Ahb6DyMC+vgMQkUwd6TuADPw3tsRdpFBGjRrFuHHj6Ojo0N5ziU3fOSIivXYHHvUdRMrWYDcfbgFuB5ZUDhEpnjas5/nOWGJ+PHAIMMRfSKl7DNgb638uUhhtbW1MmzaNQYMG0dXV5Tuc7bS0tNDd3c2SJUu0/L7BKUEXEdnW+cB7fQeRoTXAnVhf4UeA24DFXiMSkSAHYkXg9gIOwpa0D/YaUbZOBy7xHYRIVCNHjmTKlCl0dHT4DqUmJejFoQRdRGRbU4AnKdeMVJCVWIJ+P5as34UVZtLy0mKZDAzq97nngbUeYpH4JgA70js7PhubLR/qL6RczQUO8x2ESFStra1Mnz6d9vb2hq3crgS9OJSgi4hs7xvAF30H4dET2HL4OdjNirnAOq8RST2vBl4FvBlrt9XXU8BvsA4Ft+cbljiaidWJ2Btbqn4UMMlrRH69ArjWdxAiUY0cOZLJkyc39N5zJejF0ZjfQSIifo0AHqe53yj39WTlqM6y3w0sB/QK78c04N3Aa7GkzsX1wEXAn4ENGcUlwYZgv1OOxRLxPYBdsNUPAtcBL/cdhEhULS0tzJw5s+ErtytBLw4l6CIitX0Rm0mX7f1/9u48TpKsrPf/58SWW+29Ta/TPfvCzADDjqiAAiLIFRdUROXq1Stu1+vPBYHrhrhddwRFNkEFUXEDRUSvsgiooOzbzNAzvVVXd1Vl7ZVLRPz+OBnZ2dVZVZlZmZGZVd/369Wvroo6FXGmpys6nnjOeZ5V4D+xe9k/hM3UfgIYzI13u0MAPA34ZuDZ2JdInTgHvBl4B/Zli/TOJFeC8McDTwGOsXe2z7QjBh4FfLTfExFp1/j4OIcOHaJSGey6hgrQh4cCdBGR5rLYImqn+j2RIfGfwKdqv/4FG7Av93VGu8MpbLb8WcAjunzufwLeji3INdflc+9F+7CZ8ccDd9R+3dTXGQ2PPwC+o9+TEGlXUrnd9/2BD3oVoA8PBegiIpv7duweXmlPGRvwfRSbYf8gthDd5/s5qSEyCTwZG5g/CRjv8fUuAX+Fzay/t8fX2i18bFvGo9jM+JOAG7FF3qQ969gq9bo/yNAZHR3lyJEjlEqlgd17nlCAPjwG+2+SiEj/fQhVFe6GVeyS+P/EZtc/BHy2rzMaPHcD3wh8PXBrn+bwL8DfAH+CreYvlo/d7/9o4C5sUTfdF7rjl4Cf6PckRNqVz+c5evQoYRgObOX2RgrQh4cCdBGRrT0TeGe/J7ELzQPnsf3Y34cN3B/CZnP3koPYDOx3YYO/sf5Op+4itvr767B71Uv9nU7qTmCLtz0FW9TtZuz+8d3cf7wfZrFbN870eyIi7XAch8OHD1MoFAZ+73lCAfrwUIAuIrK99wBP7fck9oDT2D7s/47d//8f2EBxN3oitqXUC7DB4CD7IPA2bGb9/j7PpVduwGbEb8EWK0tja4HAi4Ff7PckRNqVy+U4fvz40ATnoAB9mChAFxHZ3mOxS7IlXWeBB7HZ9X/E7mm/BKz1c1I7cAB4DjYofyLg9nc6bbuMzaa/Gng/sNLf6XRsHJsd/zJsQbe7gOuB/f2c1B50HltIb6HfExFp1+HDh8nn80MV6CpAHx4K0EVEWvNHwLf0exJ7XIQN1j8AfLzh16Avv34y8HRslepD/Z1K13wcW1Tu3bWPB9l+4JHYiuqPxQblN/d1RgLwIuzLHpGhks/nOXLkyED3PG9GAfrwUIAuItKaW7EtxIYt67mbhdhCc5/HBu7JXvZByMhNYTPlX4ddLr1brWLbtb0RW6thva+zsT+fB7CB+Jdg9zffCJzs45zkWvdj76nDFeHInmeM4ciRI0O19zyhAH14KEAXEWndG1Cv3kFXxC6Ffw/wSeBzpNu+6SnAc4HnsfeWTH8e+zPyj9g6AmnIYpdJ34zNkn8ptsL6SErXl858M/DWfk9CpF3ZbJYTJ04MXXAOCtCHiQJ0EZHWHQS+COT7PRFp2TK2Uvx92DZv/4Zdkt3NnjhHsC9ung08rovnHWbvBN6O3RrSzS0IeWy1+ydiA/E7se3pZHh8EHhCvych0omkcvuwLW8HBejDRAG6iEh7XoGtPCzDaRU4B3wMuzT7E8AD2IJV7chhs7XfBjwDu6RdrnUamyn9S+wLknadwi5Rvwd4Grag20G01WSYPRn4535PQqRdw5w9BwXow0QBuohIewrYgO5gvyciXXMOGzx+Dpth/zBwYZOxJ7DZ8q8B7k1jcrvI32Jbtb2ZzSvA34Et4vYwbDD+SGAyldlJGt6FbS8oMlQymQxHjx7FGDO0wa0C9OGhAF1EpH0/Cfx8vychPXMBeAi7j/p92CXx1wPfhy0+ppczO3Ma+DvsfvVV4DFcyY4fBSb6NjPptSdhW/Q1lclkiONu7j4R6Y6xsTH27dtHqVTCmOEMnxSgD4/h/BsmMqDGx8f7PQXpEmMMxWJxsy+PYyu6H01vRiIiQ+0tbGhVaYxhYmKCKIrIZrOMjY0N5d5e2RuG/eWRAvTh4fV7AiK7yaFDu6XFsQAUCgXiOCYMQ2ZnZ+sfY9t4vQx4fX9nKCIyFCLgZ5JPDh48iO/7GGPq99koiqhWq32coojIYFCALtJFw1o4RJrL5XIYY4jjmEKhAMC5c+colUoAf4wtFndzH6coIjIM3oqt8UAmk2F8fLy+l7dcLvd5aiIig8Xp9wRERAZVGIZUq9X6kkvHcThx4gRBEIBtHfVL/ZyfiMgQKGO7X5DL5Th27BhRFFGpVLScXUSkCQXoIiItiOOYarWK4zjO2NhYUiTmjcBH+zszEZGB9krgU67rcujQoWQfrJ4/RUQ2oRukiEhrHmaMeWalUjFjY2M4jgMQAi/t87xERAbVAvCrySe1Ze3GGHMz8K39m5aIyOBSgC4isr3vAr4f+AwQbqh++nfAB/sxKRGRAfd64HzySe3FZgycAfLYvekn+jIzEZEB5fZ7AiK7yeTkZL+nIN33ZuDLgB8DHnAcB2MMCwsLjS1XLgHf3K8JiogMoMvYtmoryQHXdSkUCkRRVAE+AowAvwbMA5/uyyxF9oik6O3i4uLQt4zb7RSgi3SRAvRd5RjwL8AU8Axg2nEcXNdlZmYmqeSe+BzwJcAN6U9TRGQg/Szw7sYDq6urjUE6wH8B57AvQkeAf0p9liJ7hAL04aEl7iIi13o08FlsZvzRwKLjODiOw/nz5zf7x+2n0p6kiMiAmgFe1fQLMzPMz88n3TAA3gk8G9u28s8BP5UZiogMKAXoIiJX+zbg34B/Bp4Gdt+k67pcuHCB5eXljeN/ELgV+Ffsg6aIyF73C8BS7ePvw24Tqrt06dLGIP2fgUcBzwX+EziYzjRFRAaPAnQRkSt+EvgD7APic8EuCdsiOP9l4DeBPwIM8L+wld1FRPaqLwKvrX38Vdg2a3/Ohi1ASSbd9+sJ848CjwPuxL7wvD2V2YqIDBgF6CIi1m8DPw/8PfB4oJxkzs+fP8/S0tLG8a8AfrT28b3YPZT3Aa9Lab4iIoPo5cAycBfwZ7Vj+7DdLh7eOHBmZoZisdiYSf8wdrn7jcAngC9PYb4iIgNFAbqI7HVZ4PewbdT+A/gaoJQE59PT05tlzl+84djzge/EVnsv93bKIiID6QFsa7UAeAu2lVriIPBXNMmkF4tFfN9Panu8A9sVwwX+FvjGFOYtIjIwFKCLyF6Wwz4Afje2x/lX0RBcb5I5fzlXMucb/R52WeYruj5TEZHB97213/8Uu1R9oxPA+4F7Gg9evHiRhYWFxkz6W4EXYO/RfwJ8U09mKyIygBSgi8he5QNvA54MzALPBC7HcUwQBMzPzzfLnP8i8JItzuli96O/D/hC96csIjKwPoRtq/YS7EqkzRwG/ga4pfHgwsICxhgcp/5o+ofYuiBgs/Ev6OpsRUQGlPqgi3SR+qAPjQL2AfEZQBF4FvBJAN/3qVQqXL58OenTm/g5rjwsbmUSOICtBP8o9CJURPaGr8GuIPqDFsaOA8/BBvSXAKrVKqVSibGxMYBkufv7sffTxwBfC3ye2r1aRNqjPujDQw+OIrLXONjM+VfUPn8B8ME4jvE8j2q1ytmzZ6lUKo3f83LgpW1c45nAI4DpbkxYRGTAvRVYBd7VxvecqI2vV2tfXl5menoa13UbM+nfz5Vic3+MrfchIrJrKUAXkb0kj91z/sza5/8bW5AI3/cJw7BZcP4itl7WvpknYVuuqe2aiOxmC9g2aq/DFodrx3HsPXh/cmBpaYkLFy7gOE5jkP4d2PaXYDtmaE+6iOxaCtBFZC95A/D02se/Bfx6kjmvVCqcOXNmY3D+bdj2a506AlS2HSUiMpyqwN8BzwWe2OE5bgDeid0eBNggfUMmfQX4b8A5wGD3pH/dDuYtIjKwFKCLyF7xSq606/kn4IfAZs6r1Srnz5/fGJw/HbuXcif3SQ+bUdJmLxHZjZawS9W/eYfneQy2Lki9NlKSSTfGYIwBeAibOU/up6+rfZ+IyK6iAF1E9oKfBr6v9vGD1DIvxph65rxcvqp1+RO5sudxpxxsxkdEZDeJsVt4Ht2l8z0RmxmvW1paYn19Hc/zGovG/UDty+PAP9K8nZuIyNBSgC4iu913Aj9V+7iELTBUBJs9v3jxItVqtXH89cCbgJE0JykiMmQiYAzbsrJbvgF4deOBS5cuUalU8DwvOfQ72Ow52Pv0n9TmISKyKyhAF5Hd7BnYh7nEi4APgA3OFxcXKZVKjeNHsG1/bkhthiIiw8ml/aJwrfifwA8nn5RKJc6ePUu1Wm3MpH8/8NHakDuxy+O7+aJARKRvFKCLyG51ErtcMlP7/C3A6+M4xvf9+v7Ghl7nBngjcEvaExURkav8GldqhlCpVDh37hylUikpGrcOPA9YrA35UnZW0FNEZGAoQBeR3SiL3UM+Ufv8s8D/AK4Kzjf4FVQVWERkULwGuDX5pFKpUCwWyWSSd67cB3xvw/jvwWbWRUSGmgJ0EdmNXgvc2/D5dwArxhhc12VhYWHj+BcCP5LS3EREZHvj2PZr9R7pKysrFItFgqC+sv6PgT9s+J7fBr4itRmKiPSAAnQR2W3+N7YQXOL/AB8GcF2X6elpVldXG8c/ARvQp6EKzKd0LRGRXvgb4J9TutaN2KKdAIRhyIULF1hcXGwsGvc9wOcavudNwMGU5ici0nUK0EVkN3kCdql64r3Az8VxTBAEzM7OUiwWG8dPYisAp3EvfD9wD/CCFK4lItILl4DnAk/Ftq8sbTm6O74K+PnGA/Pz87ium/RHX8UWlkscxmbWRUSGktvvCYjsJpOTk/2ewl42Afw9MFX7fBX7YDfnui5xHDMzM9NYFA7gbXSvh+9mQuBl2HZvl4AvAF+OLWInIjJMfhGbPY+Bf8Hec6/HZrp76UnAx7H1RKhWq1SrVUZGRpJ7+mmggO2lDlc6cfxLj+clMjSMMcRxzOLiYtINQQaUMugislu8BjjV8PmLsUWEMMZw5swZKpVK4/ifA57d4zm9H/sC4BXYB9rGuYmIDJNprq2U/u/A04GfwG7h6aU/BG5LPikWi1y+fBnf95Ng4yeB/2oY/3+4ErCLiAwNBegishu8APiGhs//GfitOI7xPI/V1dWN/c6/Enhpj+f0S9hiRf/Z5GsfAv62x9cXEemm3wCuqbBZ80vYlUH39fD6eWwrzPqz69LSEpVKBdd1wb4geFHDeKc2frSHcxIR6TotcRfpIi1x74tjwN8BSVnfCvAs4LLv+5RKJc6dO9c4/gjwHuzDXi/MYlu6/Tp2eftmPlcbZ3o0DxGRbnkQ2w2jssWYM9gCbceBu3s0j2PACPBugCiKcF2XsbExqtUqwFls9ffH18ZPYZe7/1mP5iMyNLTEfXgogy4iw+612Ae2xCuo7VN0XZdisbjxH6JX0dC2p8s+iS2e1EqBoo9g98CLiAy6lwMrLYxbAL4Vu9y8V34EeGbySbFYpFgs4jj1R9qXAF9sGP887DJ8EZGhoABdRIbZd3D1g9f9wC8DeJ7HzMwMi4uLjeN/AHhOj+byHuApwMfa+J6f5eq96SIig+YLwBva/J5fwK5kKm43sEOvxRYGJQxDZmdn8Twvqeq+xrUvCF6H7dohIjLwFKCLyLA6CfzahmM/BKw6jlNfxtXgDuC3ejSXVwFPw1Zpb8engTd3fzoiIl3zM2y9XWcz7wSeATzU3ekAtpVavWBdtVrl8uXLSYAO8FbgHxrGHwV+tQfzEBHpOgXoIjKsfp2rMyLvAN6ZPKCdP38+2ZOYeFWP5vF/gO+j80z4T9Ha0lERkbT9O/BHO/j+D2NXFn26O9O5yrdiV1ERRRGzs7OUy+WkYBzY+/J6w/gXAl/ag3mIiHSVAnQRGUZfBfy3hs8rwI8COI7DysoKq6urjeN/HPiyHszjx7Ht2nbiNHa5pojIoPmFLpzjfmzRtg924Vwb/Qa2cBwA8/PzJCuosEvzN95bXwn4PZiHiEjXKEAXkWHjce1S9TdQKwznOA7z8/ONX7sZ+OkezOMnqO1374Jf4+pMj4hIv30E+IsunWsRuw2o2+0lx2m4D6+srLC+vo7neUmQ/vNc3RruLmxmXURkYClAF5Fh81LgpobPl6gVBHJdl/n5ecrlcuP4VwLZLs/hu7F9f7vlIa7dTy8i0k/drsS+jC3S+Y4un/ebga8FiOOYs2fPEoYhnucBTHPtC9pXYFuviYgMJAXoIjJMTmBb7DT6VWDW8zzK5TKXLl1qbKv2AmzWppteAvx+l88J8H+Biz04r4hIu95d+9VtVWww/U9dPu9vAjmw+9EXFhYa96L/HvBAw9gctvCdiMhAcrcfIiKtmpxUF5ceeyXwqIbPzwHfCISO43Dp0qXG7PlB4G+AfBev/2O0kTl3HIdsNksYtlQAeR17T/6KDucmItItL6SF6uvGGLLZLK7rtnqfA4iw9+anA9d1PsWrjAOjwLsA1tbWcF2XQqFAFEXV2jWf2TD+buwLiLNdur7IwDPG1DvcNCQyZAApgy4iw+IJ2Kq9jX49juOS53mUSiWWl5cbv/azwL4uXv/ngF9pdXAul6NQKBAEAblcDtd1cZxtb7mvAWZ2MkkRkR16B/C+rQYkwW8+nycIAoIgYGRkBN9vuf7aPDZg/uwO59roB4FHJp8sLCwQhmHSeu21wBc3jP/5Ll5bRKRrlEEX6SJl0HvqtcCNDZ+fAV7oum4lDEPOnz9PFEXJ1x4PvLqL134d8MPbDXIchyAI8H2fIAgAu9zScZz6sTAMt3pzvQ6UsFXqRUTSVgW+DrjU7IvGGDKZDJlMBsdx6hm55Gue5+E4DlEUtZKhW8ZmvJ8HjHRp/jcBbwIIw5AgCMjn80kWfR14VsPYU9hCeJ/v0rVFBpoy6MNDGXQRGQZP5dq95L8KrDiOw+LiIpVKpfFrLWe6W/C3wHdtN8jzPHK5HJlMBt/3r3pAjeO4/nE+nyefzydZnWZeDXymO1MXEWnLH7NJz3LHccjlcmSztuZm432t8fMkKM5ms62sGrofW+Stst3AFj2VWsE4sG3XGpbe/yFX70UHeDmw6c1YRKQflEEX6SJl0HvCAd4GHGk4tgT8d2PMWhzHTE9PNz4ofhMtZLtb9FlsxmVtq0HJQ2tjNmkzxhhc160XMGrI+icibKbnazqdtIhIB0Lg+cDljV/IZDL1F4tN7llXieO4fp8LgmDjy9NmTmPriTyns2lf417sdqEwDEN83yeXyxHHcQUbjD+jYex1wMfRS1HZA5RBHx7KoIvIoHs29oGr0e8Ac47jMDc31/jAmMXuFe+GFeC5wNxWg3K53DUZ863EcUwURbiuW8+4N8mmvwn4QqcTFxHpwOvYEKh6nlevpdHqPQ6uZNPjOK7vU9/G67HZ7G64iYZe58VisfFrr+PaFxA/3aXrioh0hQJ0ERl0P7Hh81XglXEc47ruxp7n38XVPdJ34vlskVVJAuwkOG9XEqgHQUChUEh69iYqwIvbPqmISGfWsIU1AZtpC4KgXqF9J9k213XJZrOtBOkvA/6+4wtd7aXAfoByuczy8nJy/WVsdr3RXdiVVyIiA0EBuogMsicDj9tw7C+Bc77vs7q62hig76PhAXOHXg781WZfbAyqOwnOGyXLQbPZLLlcrjGb/ufAh3d0chGR1vwmdpk5juPU95BD0204bUky78ky+W32pX8L3Vk9NAn8ePJJshe9dn99DdduW3ox2vYpIgNCAbqIDLJmWeTfSYLYYrFItVpNjr8I+1C2U/+IzeQ05fs+2Wz2mgJJO5GcJ9kr2ZBNf0VXLiAisrll7LYhstkshUKhXom9W5L7pe/7+L6/VZA+B3x7ly77QmpZ9FKpxNLSUnLdB4E/3TD2bmyBORGRvlOALiKD6hHAV2449gHgX40xrK+vs7S0lByfojuF4WbZYqlj0tO8nb2Y7Uj2pieV3n3f/2vg7V2/kIjIFT/p+/7Z2j2nqy8fN0panxUKhXqhzCY+CLykC5fb13ie+fl5HMdJ/tte12T8j3bhmiIiO+ZtP0REpC++t8mxP0j2ns/Pzzce/x66kz3/nzSpYOw4Dp7n1TPnXTAGTAAZ7Lzr69qTh2PP82LP8y4Cb61UKs8Ctt3AKSLSDmPM/Z7n/UUulzsFjERRlN9kaAUoYotnzgPlTcZtK9nWk8vlWFtba2yD1ugVwJcCT+/0OjXfB/wSMA12P3otSH8v8G/AYxrGfgXwSOCjO7ymiMiOKEAXkUF0HPi2DccuAW/xPI+1tTVWV1eT45N0J3v+euDPmn2hsbd5BwrAY7EPfoeB27D/fYdrX8s1+6batZaz2ey053nVOI6DpLBcFEWbPdSKiGzKcZz6r1orNNd13bdHUXQz9qXhVhaxS9DPYVujPVD7/UNs0jt9My0G6S/EFuocb+fcG/jA/wJ+olwus7S0xP79+5PaJW/i6gAd4Ifo3hJ7EZGOXNPbR0Q6d+rUqX5PYbd4Cde23Hkd8F2e53Hx4kUWFxeT4y9l563Vvgjcg+2vXmeMwfd9MplMO5nzLHAr8NXYDNDNwCl2cL9N9twnPUyTQD2OY8IwpFqt9nRZqogMp6Qfued59aDcGNO41Lsb940icAb4D2xxzY8AZ1udH8DKyspmL0C/B/jdHc5vFlup/YLneRw5ciR54XoYuA/Ibxh7N3B+h9cUGTjGGMIw5MyZM12tMSHdp4qVIl00OdmNVdZ7XgZbZXdqw/EfcF33TLlcZmZmJjmWBX6fnS9vfz7wqY0Hk/69LT7A3oPN+Pwi9uXCU7Et365awr4TyTySB+xk6b3v+3ieV3/YVaAusnclLxaTNmm+7+O6bj1Ah67fI7LAIWzdkG8CvhO4AbuV5wHs8vht55u8aNzgI9gVSDfvYH55bMD9wSiKGBsbw/M84jheBh6GDd4bx04D/7qD64kMpOQl/+Liop4TBpyKxInIoHkm1/Yy/zTwb3EcMzc313j8m7APgjvxB8DfbTwYBAGu6273ljkDPBd4B/aB7hewD5M9lWTLG7PmruuSyWTI5XL1/uwNLdtEZJdzHKferrGx73iz+0WPjQP/A/hD7H7uX8euKmoqWe6+ReG4F2Erze/E9wMjYLt/NKwgeGuTsS9ENT9EpI8UoIvIoHlek2NvjuO46jgO6+vrjce/Z4fXWgT+v40Hk1ZqW8hhs0QfwPYr/2quXiaZusaH76SgXbICYJu+wyIyxDzPI5fLJZ0fcF23vg1mANyC3QP+CeC1wBOaDUruXblcrtn96jTXbnlq1ylqHTqWl5dZW1tLXgb8C9cux7+DFF60iohsRk9tIjJIjgFfs+FYCLzb8zwWFhYaHzqfDDxuh9f7ETZUbU9aqW2RbfoW4N+xD5v37vD6PZHM3RhDJpMhn8+TyWQUqIvsIp7nkc/nyeVyeJ6t+TvAtSh8rrzUfD1w+8YB22TSf4WdV1f/7uQ6xWIxucYC8P4mY1+0w2uJiHRMT2siMki+gWurmn8U+KjneZTL5cYAvVkbtnZ8EBtk1yWZ800ecu8F/h74I+DOHV47NclDb/LiIZPJaOm7yBBzXbcemCfZ8gENyjfzQmxBuZ/G7lOva8ykbwjSI5qsdmrTo4Engc2ir6ysJC823tZk7NOA/Tu8nohIRxSgi8ggeUGTY+91HIe1tTXW1taSY8exy8p34kcaP/F9n1wuV6+O3mAU+L/YrPnTdnjNvkge4B3HqWfUfd/v97REpA2Ne8yHNDBvlAd+Ctui7bmNX4jjGNd163voG/w/4I07vO7zk2s0/Nm9B9vGs9EU8PU7vJaISGTHRPEAACAASURBVEcUoIvIoLiHJssegXc4jkO1WqVUKiXHvpGd7fl+MzaDXtfkYRDsMvr3Y4P5oU87J/tSHcep71ndpCiTiAyQZAVM8mJtiAPzjW7H1vF4FfZlKABhGOJ5XrP78suB1R1c73nAQYDZ2VnCMMQYs4RtD7fRM3dwHRGRjilAF5FB8Y3Ydj2NHjDGvDeKIpaX60V8PZpn2lu1hu2dXpcUJtpQVOlngX/C9sTdVZJAPVkqm8lk+j0lEWkieZmW1JDYRYH5Rt8LvA/4kuRAHMdkMpmNq33uB357B9eZwG6lolqtNh7/xyZjnwoc3cG1REQ6ogBdRAZBgWuLw4Hd8x0BLC4uJscei822d+qVwEPJJ0lWquHB9zA2m/KyHVxjKCT/zcmydxWRExkcQRCQz+eTnt27OThP3INdxv6DyYE4jq8qglfzy8Acnfs2gCiKmJ+fT1YRfQAobhiXB56+g+uIiHRET2MiMghuBh7W5Pg/O47D6upqY2Gzb9/BdZaw+8kByGaz+L7fmDm/G5tJafayYFdKsulJRegND8IikjJjzFUFHfdAYN7IA34T+yK1bsNS9zng53dwjXuBx8RxTKVSSQL0M8CnmozVPnQRSZ0CdBEZBF/Z5NgS8G+u6za2VxsDvmoH1/kNYAbs0tEgCBqD828B/pXm++AHQi8f1KMouiYwEJF0JdtO0siaD3jg/33Au4CR5AViNpttvC/9FvBgh+d2gecArK2tsby8nATpzdqtPQlblFREJDUK0EVkEDTLUnwqjuPTxpjGPYhPw/ZK78Qy8Gq4sq+z4QH1W7Dt0wodnrvnjDEY09s9qElAkMlkyOVyCtJFUpR0kkhjr3lSKZ3BDtKfDvwlcDyKoo370avYF647ObcbhiFhGCbbe97bZNwI8BU7uI6ISNsUoItIv52k+fL2j3iex8rKCisrK8mx5+zgOq8CLhhj6vutaw/BL8EG54MrjjGOw+jUPozjEEdhTy+XFJArFAqq8i6SgsaXYj0Nzo0hrFbIjY6SGxvbWBhzED0V2+LyziiK8H2/sVbG7wHTHZ73XuCRAMVikWq1ijHmfVy7Dz2Zg4hIahSgi0i/PZ3mLdM+kLRXq1XbnaLzgj0LwK8B9Qe82kPwT2Hb9gw2Y6hWyoTVChMHDhLHvV+emvRNb2ztJCLdl81m69tteh6cl8tkcgUKY+OsLy9jhqMw5CHgr+M4vinZAlAL0teorYrq0FeBXeYehiHYbVX/3mTcE7Hbq0REUjEUd2YR2dW+pMmxkjHmw9VqlaWlpeTYI4ADHV7jjcBFsMWGag/BLwN+usPzpc4Yl6W5yxhjmDx0mLBapdet2ZN96UkxPRHpnmQ1z4YuEj0TVir42Sz7jx1ncfYy5fX1YdrGcgPw/6IoutN13cbWkK8ELnd4zm8Au+WpYaXQB5qMOwnc2eE1RETapgBdRPppHHhCk+MPAF8EGvuff22H14iA1wCNVZG/A9vnfGgYA47rMTc9TWFigrF9+6iUe/+AnexLT7J8IrJzSUHGpBhcOmIOHD/B+vISq0tLuMPXseEY8KdhGE64rpu8NJwD3tLh+W6ntr2qXC4n99KPbDL2cR1eQ0SkbQrQRaSfbsJmRjb6uDEmXl5eTpYyGjrfB/hO4NOZTIZMJkMcx88C3tDhufrK1PaPXj53hoMnTpLNF6iUS6lcOyke15C5EpEOJJlz13VT2wNeXl/jwPHrcRyP2fPn8If3ZdvtwF8aYwoN3SZ+r8NzucCzoyhibm4u+bfmAaBZkY+ddA8REWmLAnQR6adHb3L8w47jsLi4mDzAPgK4scNrvMpxnGQZ6aOAt3V4noHg+T7L8/MUZy5y/JbbcRyXOE7nIT+OY4IgUJAu0qHG4DytzHmlVGLiwCGmDh3m4un77XKc4fZlcRy/LrmvY/uX/1WH53oc0LgS6SxwX5NxjwImO7yGiEhbFKCLSD99WbODcRx/wnEcvCtLML8S6GQT9MeBdwVBgOM4E3EcvxnIdTbVwRFkMlw+d4bYGI7echuVUim1dklJJl3L3UXakyxrdxwntcx5WK2Syec5duvtXHzwNKW11WFc2t7M8+I4/jnf95Pg+jUdnuexwH5jTFI8dBH4RJNxk9SqvouI9JoCdBHpF4fmBeJC3/cvLC0tsba2lhzbLNO+ndd4npfs83w7cFuH5xkstZ7oZz/3acYPHGDfkWOUS+upXb5JT2IR2UJSbDHNPedRFBLHEafuuofVxUVmp8/jZ4b+/WRdHMcvdRzn+fl8HuBdwCc7OM0h4J61tTUWFxeTe9oXNhmrfegikgoF6CLSL3cCh5sc/7TjOF8sl8tJ65txOstcLAN/ms1mMcb8XBzHT97BXAeO63msLS1x8YsPcOKOh5EbGa1Vdk9HUjjO2x3ZOJGeSn5W0uw7XimXOXzDzWRyBc5+/tO4ngukVZAuHXEcv9pxnFOe50XAWzs8zWPDMKRSqST70D+/yTgF6CKSCgXoItIvj8UW6dnoHLDakJ29HTjVwfnfHgTBjDHmqXEcv7TDOQ40P5tl5qHTrC8vc+PD77V9lFMMAAByuVxjiyIR2SDtzLkxpr7v/OjNt/Lgpz9Beb2E6+7Kl2mjwJ8GQeACv4vtjd6u+svb2v+jzwDlJuNuA/IdnF9EpC0K0EWkX+5odtAY80AYho3L2x/VycmNMb/v+36OzrMqA88Yg+O6PPSZT1EYn+DIDTelvh8dqO+rFZGrBUFAEAQptlKDaqWC63nc9PBHsXD5EvMXLxBks6ldP21xHN/ruu4rMpnMLPCeDk7xGGB8fn6eUqmE4zingfkm447TebFSEZGW6YlKRPrlYc0OGmNOl0olisVicqiTZYWf8Dzv/Z7nvSmO4/0dz3AIuJ7PSnGOM5/9FCcfdg9j+w9QudLTt+fiOK4Xv0rrmiLDwPO8pLVjateM45hqpcLJu+7B830e/OTH8LzdXysijuMfy2Qyj3Ac52c6+PYx4DFhGCb3sIvAYpNxGTpbzSUi0hYF6CLSD5PALZt87UFjTPKg5NBBBt0Y8+ogCJ4ShuHX72COQ8MLMlw8/UXWlpe48eGPxHHd1PejO46j9msiNa7rks1mieM4vaXtGKrlMvuPHufwDTdx+lMfY31lBWeP1ImI4/iNQRDMAfd38O2PNsZQLtdXtm92jkd0NDkRkTYoQBeRfjgOHGtyvAyc2TDuZJvnXvN9/7zjOK/ucG5Dx/E8ojjii5/4GKOT+zh+6x2ElUrqmTvf9xWky56XVGxPe0VJtVomyGa46ZH3sjh7mUtnHsTbWz+Pd3ue9+3GmD/s4HsfFscxc3Nzyf+3BzYZtzs6gYjIQFOALiL9cAPNC8QtYYvEJR6HXVbYjg/4vv/tbJ6h333iGM8PKM5Mc+GB+zhx+52MHzhEpVyCFIOEOI4JgkCV3WVPy2azSU/t1K4ZxxFRGHLijrsIsnke/OTHiQFnDxVwrK3k+V7f97PA5Ta//SbAaXipcn6TcXcAusGJSE8pQBeRfrh+k+OrwMWGgmNNC8ltoep53ojjOE9J8+F4EBhjwMC5z3+WaqXMybvuxg8yRGF6S90TSYAistcEQYDv+6kG5xhDpVxi/9ETHLvldi7c/3kWLl/CDzKpFYwcFHEcH/R9/2lAcdvBV7sZOAEkGfRzm4y7E9s7XUSkZ/QEJSL9cNcmx2eNMaX5+fnkAffmNs+75nnebcaY8Z1Nbzj5QYbV5UXOfPbTTB0+wrGbb6VaLqe+1N0Yo6Xusue4rksmk0m11znGEFYqZPMjnLr74awvL3HuC5/bswUb4zjGdd1HuK57CGjnf8QEcDiO4+T/39lNxrnYFWAiIj2jAF1E0mawywmbOWuMaWyxtlmmvSnHcfKe542n+oA8YDw/YOahB1m4NMPRW25j4sAhquVmLX17J9mPHgRBqtcV6Zdk33na4igiCqscvelWRqemOHff51lbWsTbwz97cRzjeV4O+29NO25aX19nYWEB3/dntxjX1r9LIiLtUoAuImnLsXmAvgo2EwXsp3khuU05juOYvZo6qnE8j/LaKuc+9zn8TJbjt9+B5/vEYZjqPKIoIggCLXWXPSGTyeC6brpL2zFUSiWmDh/j6C23Mj99gZkHv7jXCsM15dlCGO3+W3AKSDLoq0Bpk3F7p76JiPSFnpxEJG0HgOs2+dqDDR+fwFZxb5nneXs6OAcgjnE8j9npc8ydP8f+o8c5dP0pKpVK6lPpV1ZRJE2u6+L7frpL24EoCgmyWY7deiuu63H+/vtYX13FcfZ2DbNkm43bfoG826G+B32l9quZGzufnYjI9hSgi0jaTtG8gjtA7DhO8oB0iDYzIB08kO1KrudRKZc4d9/nCCsVjt12ByMTE1RKmyWEeqO21FT70WXX6tvS9jimWipx5MZb2Hf4KPMXp5m7cA7Xc4G9VRiuGcdxOukmcYIrFdojNs+ga4m7iPSUAnQRSdvhzb5gjLlYqVQI7XLso+2c1HVdjDEpLzEdXEGQYW76ApfPnSU/MsaRm27py59PFEX4vq+XJ7IrZTKZ1FuqAVQrZUan9nHkxpupViqcv/8LlNfXcT0/1XkMqlrLtXa/7XogX/t4ns0LxY2h52cR6SHdYEQkbZsuD/Q872KxWKRkM71tBeie52m/cyNjiOOQmYdOU1pf5cDx65k6fIRqyr3R7VSMCsbJruN5Xvot1bCF4RzH4ejNt5IdGWH2/DlmL5zFz+hnLFGr5t7uvwmHgdHaxyGw2b6gfditWiIiPaGnWRFJ25EtvuY21HjbbJ96UwrOr+V6AcWZi8xfvICfyXL05tvw/IAw5f3oyVJ3Bemym/Tl77MxVMtl9h05xr4jRymtrTLz0Gmiaogxugc2Msa0+++Cw5UXww6bb8UaR73QRaSHdDcXkbS1mnloOYPuOA6O46RepGnQOY5DtVxm5sHTVEslxg8c4OCJk4TVSl92qaqqu+wWQRDgeV7q2fOwUsHLZDhy0y342XztBdw0bvv7rfeEDrbWJPvLQzbfzF+gzRfIIiLt0JOSiKRtsoUxHltn2q+SBOhyLT+TYX76AvMXL2CM4fCNN5MfGyeqVlOdR7In1Pe1R1aGm+M4BEGQ+gvBOI4JqxWuO3kjY/v2Uy2vc+nMg1RKJRzVeGiqgwA9qZFSAR7aYtx4RxMSEWmBnmhFJE2G1gJ0H5ulaO2ke7v1+ZbsyoKQiw+dploqkx8d47qTNxBWK7TfJnhn4jiuZx5FhlUQBH2550RhSH5snEPXn8IYw/L8HPMXp/G1dWRTDV1BWjXR8PFmbdbA7kMXEekJBegikiYXaKXnVp42eqAr4NtcDHh+wMLMDEvzc2DgwImT9QxcqnOpLQfWXnQZVknP8350i0iy57nRMaqVChcfOk2lVNLy9k0k/4/azKI3Ll3f6g82/d56IrJnKEAXkTQdprXMQwS0HMV1Y3l7HMf1X7uNcRyq5RIXHzpNFIYEmSyHT90E2IrQaUqqK+uligyjfr1cqpRKjE3t58Dx64mJWF0oMnf+HF6fXhb0Wrfuxx0UimtVyy+QRUTapQBdRNKUpbUM+gFavD912v88jmOiKKo/BCZBo+u69WNRFO2awnOO5zF34RxLc3MATB0+wsShw1RT3oueUBZdho3neX0pDJe8RDt08gaCbBYDXD53lvL62q6ovbHxXgzU78dJj/nGMe0wxrSbQT/Z8HG41anbmoiISBuUwhCRNLls3rqm0dEWx9X3GLb64NYYkGcymfqe6MZ9inEcU61WKZfLlMtlqtUqxpih3uvueh7l9TXmLpxjdHIKLxNw3akbWbh0MfW5JH/+vu9TSbnlm0in+vVSKaxWGdu3n6kjR4jjiNLqCrPnz4JxYIjvSQBRFGGMIQgCMplM/SXIxjHJvbhcLhPV+sC3Io7jdu/b+drvhqv3o2+kPugi0jMK0EUkTceAsRbGtZy2bidATx4GR0ZGyOVyVz0INn6/MQbf98nlcoRhyPr6Oqurq0MfqHt+wOz5cxw6eYpsfoSJAweZOHgds+fPEWRzbN5VqDeCIFCALkPB9/366pp0xYDh8A034WdyGGJmz59jdWmx9jM7nJJ7cSaTIZ/Pk8lkrnlJClcKgAZBQBzHlMtllpeXKZfLLd+L22zDGdb+TcmwdSeRg62cTESkE8O/NkpEhsl2LwXjDb9vK1kCuZ0oigiCgKmpKcbGxnBdt76EvXF5ZePS9iRTMzIywtTUFIVCoX6uYeQ4DuvLS1w+dxYMOK7LoetvwHU9olBt10Q206+/p+VSiYmDB5k8fIQ4iiivrXH5/Dlcd3jzK1EU4fs+ExMTTE5Oks1mr7nvNrsXx3FMNptlamqK0dHR+rm2ktxn2tgKEM3Pz7O2thY7jrPVybda/i4isiMK0EUkTdtF0m2nprfLoCQPedlslsnJSYIgIAzDtpbEh2GI67qMjY0xMTHRTjZmsBhDDMxfnCasVqlWKkweOsT4wYNUq/3JZGsvugy6xtoUabIvCF0OXX8Kz/OBmIW5y6wW53GGsMhici/O5/NMTU2RzdpC6O3cS8PQxsWjo6Mt34uTIL1FE9VqlTAMK8YYBegi0hcK0EUkTds9id3QzsmSzMhWD85RFJHL5ZiYmMAY03FgnWRxstks+/btqwf6w8b1fZbmZilenMYPMmAM1528odaqKeXiV8qiy4BL9kf3Q1itMDa1j4lD11EprWOM4dKZhwhrW22GSZIBHxkZYXx8vB5Yd/LSI3lpmtzXWwnS2wjQxwGM/QPObzFuH60VPBURaZsCdBFJ03aR2FYPRNfYroVOGIZks1nGx8c7qvTeTLI8c3JykkwmM3RBuuM4RGGV2QvnCatV4ji2e9EPHKJSLvdlTr7vD13AIXuD67p923tuMOw/dgLX83D9gOX5OZZmLw9d9jz5sxsfH2d0dLSeSd+pjff3rc6Z1Cpp5bS138exNVM2cxgYaXmyIiJtUIAuImk6vM3XkwC+pafhrYLzJJBu5eGtXWEY4jhOff/ksAXpfpBh/uIFVhbmMRhcP8P+o8eB7rzEaEdS0b3NVkgiqejX6o5qpcLo1D72HTlKFIYYY7h8/iyltbXaapfhkNxPJiYmyOfzXelt3ijJpI+MbB4rt7nEPRlo2PoZOSbtJUcismcoQBeRNG23VvREOyfbbHl70lpndHQUz/N6sl88KSA3MTExdJl04zhUy2XmLk5jHEOlvM7kdYcZm5qiUi71ZU4bWyuJ9FvSi7sfomrIviNHa5XaDesrS8xPX8Absu0gcRwzOjpKPp/veEn7dqIoolAokM1mt82ityAEiON4kq3brCk4F5GeUYAuImnaLlIu1H7fUQY92XeetEnrlSRIHx8fx/f9oSocZxxD8eIFyuvrEMf4QcD+o8ftn2kfsuhJGyuRQZFkz9NeVVItlyhMTLL/6HGqlTKO47BweYa15aWhyZ4ny9gLhQKFQqGn98bGF7JJd46NttsO1eBSoVAgk8mMRFGkZ2QR6QvdfERkkByv/b7tZsHNHriSYK/XD4WJxqX0rbZ8GwSO67K6tMjC5Uv4mQzVSoWpw0fJj4z37UWDisXJoHAcpz97z+OYOIbJQ9eRKRSIwpAoipi/cGGocrZJQc2xsbGuL2vf7HrJfX8zLe5BLxUKBXzfPzos93IR2X0UoItImra754y281DUrPBbHMfk83k8z0vt4TqKIjKZDCMjI6k8jHaD47hUy2WKF6eJohhiyOYLTB0+bJe596Fom+u67ewVFekZz/P68ncxjmP8TJZ9R44RVip4vs/KQpHl4jxmSH42kmB5bGwMSG8FQrJyKgiCTbPoLXBrbTi3KhAnItJTw3G3F5HdYmWrL8ZxPOq67qQxpsg2+aKtsufZbDbVILlxOWculxuape5BJkvx0kVWF4s4nktMzOSRo2RyeaKU+6KrWJwMCmNM3/aeVysVJg9dR2FigiiKcF2P4sw066urQ7G8PVluPjY2tuly815e23Ec8vl805e3Lb5wSaL47QqaGlpY6SUi0gkF6CKSpumtvlitVscmJiZOZrPZTwNb9vxqlg1JMihpZs8TyfVGR0eHZj+6cRzKa2sszl7CAJVymdHJKSYOHqJSTjdAhysvWET6qW+t1eIIYwz7jhzFrWXwS+urFC/NYJzhiAWTFUzbFWzr5fWz2Sy+71/z/6/FDPqF2u/bZdBVxV1EekYBuoikabsnJAf7YBQCW6ZSN/a1jaKIIAj6msGOogjP87Zs+TNojOMwN32BsForphfH7Dt8FD9I/yWDsugyCDzPazWY66pKqczovn2M7T9ApVzGcVyW5+dZmp/DDzKpz6ddcRwTBAEjIyN9uwcnGfxsNnvN14wxrfx/nY2iCGPM9duMOw0sdDZLEZGtKUAXkUGTPBhd3mpQswetIAj6k/lqkBRH6lcGqV3GMawsLLBcnMdzPdt/ef9+cqNjxCoWJ3tMsry9Hy+ncAyThw7jZzLEYUgUxyxcnunbz2E7ktobIyMjfb8HJ1n0ZiuptgvQXdddrbXN3K7l5wq1lmwiIt2mAF1E0tRKajSp5D6z1aDGB63GrEm/C7QlcxkZGRmKqu6u41FeW2Ph8gyu7xNHEUGQZd/hY4TVKv3YZtmvDKaI7/t9+bsXRaEt0njdUarlCo4xVMuloVnenmwvqgW3fZ1LshInk8nUX7Qk+9O324eeyWTuGxsb86vV6uQ2lxn8ggAiMrQUoItImtbZft/ejbXfL241aONDdBAETfcd9kNSxTifzw9+Fr32x7g0O0u5tIbjumBg/MBB/CBDHKf7sJ284NAyd+mHfhWHi8KIsX0HyBbyxFGIGwQsXLrI+tISrjPYPwtxHON5HoVCYSDuv4lMJtP2S9I4jueiKLrBGDOxzdBgZ7MTEdmcAnQRSdM5YHGbMddHUeQBX9xqULKfMKnWmxSHS4I713X7noXN5/MD89JgK34QsDQ/y8riAp7vE5YrFCYmGD9wgEqplPp8+llFW/aupM1ff35eYyavO4zjecTY2hALly9RqZQHvr1akj3v970uufcnWfJMJkMQBPWXfhvrlmzic8CtwHb7bM7ufMYiIs3pCUhE0tRK5dvbgyCYKpVKX9hsQBKUVyoVqtUqcRxTLBZZWFiot9lJHs6Aviy5tC2SXPL5PIuLi31/WbAV4zhU1tdZmp1lfGo/MTGe6zJ+4CBzFy8QR1GqQUJSbK9ZqySRXnFdd9ZxnKkoilL9Ya1WKhTGJhidmCIKQ1zPY21xkaW5WTx/sBO1SfY8n8/3bQ5JYB6GIWtra6yvr1MqlYjjmGq1SrVaxXXdll76hWH4APDVLVx2yxVeIiI7oQBdRNJUYpv2aVEUFaampsaXl5dPbxWcra+vXxW8VavV+sdLS0s4jsPIyAjj4+NkMpl6r/I0JZn9tbU1KpVKq314+8JxXYozF7nu5I1gDNVKhYkDh8jmCqyvreClPHdjDEEQvLtUKs0BzwYKqU5A9oqzwDuMMR8JguA74zh+XNoTiKpVxg8cIDc6QmltjSCTZWWxyOriIn5msKu3R1FEoVDA87y+vAhNCtItLCywtLTE2tpa03FhGFIul7d7UVocHR1dA061cOlcB9MVEWmJAnQRSdMFbHX2g1sNiuP4FFtkKFrJqkZRxOLiIsvLy0xMTDAxMVHPsqQlKVaUy+Uol7d8L9F3juuytrjAymKR0YkpwrBKtlBgdGof62eWU59PHMdkMpnZOI6/pVwu3wzcDjwL+HLgBDDYkYsMqkXgPuAfgL8DPg9cyOVy+40xv5v2io0oDPGzWcYPHLT3JmOIopClublU59GJJHvej9aWSdZ8dXWV2dlZ1tfXW/q+rf7/GmM+MzY2tj+O47tbONXp1mYqItI+BegikqYKUN1uUBzHj4zj+B+7ccEoipibm2NtbY2DBw8SBMFV2fZeS1r+rK6uUq1WBzaLbhyHSrnM4uVLTBw4RBhWMcZh8tB1XDrzYF/mFEXR12az2QPAF8rl8heAv6596XHYrPrdwJcCY32ZoAyLM8AHgA8Df4sNyutq9Su+P4qi1KuxRVFIYWSU0cl9hJUKxhgq5TILl2dswcYB1pg9TzNAT/aTF4tFLl++3M1tMPeHYTjqOM6tLYxd7dZFRUQ2UoAuImmKgdktB9jM6VMmJibeUiwWp4HrunHhtbU1zp49y6FDh8jn86ll0pP91LlcjqWlpVSu2QmDDRaWi/NEYbW2/zuiMDFJdsQuve1DZfVsFEXPyWazrzXGULpSsO5DtV8ANwF3Ak8GnoFdnjrYG3el15aBj2Mz5B8GPgFMbxzk+z6ZTAZjDFEUPSflOQL2fjd+4CCeH1CtlHFdl6XZy6yvrAzsyzy4OnuepqRV2uXLl5mfn+/queM4/iRwANjXwvDuXlxEpIECdBFJ25ZlwWvLwu/M5XJRsVg8Q5cCdLD7EKenpzl8+DD5fD61THpS5Xh1dZUoiga2YJzr+awU51lesMvcq5Uy2XyB8f0HuHD/fbgpP4zXPDOO49cmdQSabBW4r/brr4AscBs2u/4E4C7gaJqTlb75HPAp7NL1d2I7RmyZ1g2CINn2cht2C0XqHOMwfuCg7XUex3i+z+LcLNVyGS8Y3PdMtRepeJ6XWiHHJHPei+AcwHGczxhjrm9x+OC+bRWRoacAXUTSdmG7AVEUFeI4fjo9KMQTRRHT09McOXKEbDabSpCe7EXPZDKsrq4OcIDusb66wupCkbGp/cRRjOt5jE5OcdFz6+2KUvb4OI4n4ziez2azAFvt518H/qv2C+AwNlB/LLYy8x29naqkKMYuW/8bbLb8/djM+bZ838f3fRzHSVbSPIc+1DQIKxVGJicpjI0RhSHGdalUKizPzxHHg/siL45jHMepZ8/TCNB7HZwDuK571BjTyj1iHZjpySRERFCALiLpu2apaROZMAxfjC0GVuf5ARio7rDgWhiGXLx4kaNHj+I4Tmr7dYKdIAAAIABJREFUJ3O5XMvFjPrFGIfl4jxhtYJxDNVyiZGpfWTzI6yvLvej7dN1wKOAf4iiiBaC9EYXgD+v/fpZ7HL4L8Uuhb8DaDVbJoPhU8AnsUH5B7BZ8kq7J8lkMht/7p/QtRm2oVqpMDq1n0y+QHl9HT+TYWl2ltXFhYFur5Zkz4MgSO3e6bouCwsLXQnOjePgBwHlDffiMAxfFkVRroWtPMvYYqciIj0xuBucRGS3OrfdAGNM1hhzA9e8RIw5efuduJ6/40mUy2VmZmYwxqSSqYrjGN/3U32o7YTreSzOXqZSLuHUqt7nR0bJj40RR33rSf6k5IMkSA/aX/67jM2s/xbwTOCRwPOAXwT+vUvzlO4qY5esvwz4SuAe4JuAP8JW0W4rODfGkMvlkj3nyeFJ7AugVMVRhBcEFMYnGubnsLq0QGltbaALxBlj6i/K0uC6Lmtra1y6dKkr59t/+AgHj5+45rjv+4cdx5lo8i0bFYHuTEZEpAkF6CKStm0z6FEUEQTBNUWSqpUK+ZFRjt/SSpHd7a2srDA/P59K8bNkWWiyl3pQGcdQXltnbWkJai8u4jhmbP8BjOtAf+b+jMZP4jhu+vejTXPA24AXY1u33QX8APBubNVvSV+E3Uv+Fmwgfif2//3LgfcAHVd29DyvXnF8w8/fI4EjHc+4Q2FYJVcoMDa1j2qlgnEcqtUyy8X5gV3aDleKwwVBkMp9zHEc4jjm0qVLXbme6/scu+lWSqvXFmHPZrP1vurbmANWdjwZEZFNaIm7iKTt9HYDwjAkk8ng+35j5W4AipdmuOGuhzN9+gHWmzxktWt+fp58Pk8mk+l5Zfcoiur/XYPacs0Yh2q1wuLsZSYOHqpHRCMTU7iuR4yt+J6yR2KLvZ2DK3teR0ZGKJVK1/wd6cAqdun0J4FXYrOqT6td98uwe9ilN9aAf8KuYng/0JX2ihslL3SarF55XC+ut504jsmNjpMpFKiU7GqVarnC0twsrje4j2bJPczzvFQ6YST7zrvwMw7ADXfexejUFPOXrt1Cnmx9aKEuyWJXJiMisonBezoUkd3uDLbIzpYcx2m6jHJh9hKZXJYb73p4VyYTRRGzs7bzW68zV43Zp0EWhWGtUFUMxhDFMdl8nnytmFUfuNgs91WS5e5e9wOaeeBPgB/H7ll/OPDfgb+khSKHsqUy8ADwRuC52D/bZwE/Q4+C83w+v1Wv7i/vxTW3FMcY4zC2fz9xbU7GcVhfWqS0uooxg/lolqwCSuv+lSxtLxaLXTnfyMQkJ2+/i5Vi8Zo6JsYYfN9vNUu/7TYtEZGdGMx/BURkN1sCzm83KI7jpj1211ZWWFlY4MgNN3Hd9Se7MqHV1VVWUuo7nCzPHuRlrI7rUFpdZX15GddxicOQIJtjdNIux+2TJzU7mPx59iBIT5SBjwFvAL4WW2ju64HfxmZ80+nVN9yK2MJur8D2q78JeCHwF8Dne3nhXC63VXA+ATy6l9dvJgYc16UwPkmyHsUxDkvFeTvPAb01JD9radTRMMYQxzFzc3NdW0p/090Px/NdFudmr/laEARkMplW/7tOd2VCIiKbGNx1VCKyW60DDwE3bDUoyY7W+hTXj1dKJRbnZsmPjXHT3Y+geGmmK0vd5+bmmr4Q6LbGgLJarQ5koO66Huury6wuLZAfGydcq+C4DvmxcRzH9Kvd2iObHYyiCNd1KRQKrK6uUun9C4RVrlSGB1u47GHYwnNfCRzo9QSGQBUbxLwDeB+2Ddp9aU8il8vh+/5WQdfjgfEUpwTYFSojE5Nk8nmiuJZBN4aVWveEQV7i7vv+xiJ7PeG6LsvLy6x24d4OcOKW2zhw9Bjra2sszF5bgD2Xy+G6bqttN1P/uywie4sy6CKSthi7xHVbzZa5x3HM8kLRBvCFAjc87O6uTKpUKrG8vNzLTCxwdU/0Qa3mbhyHaqXC6uISYJe5h9WQ/NgY2cIoYbUvy9xvA042+0Icx/UXH33wMWxV8ecDN2KD9N8G3ksLWzl2kWlsxfWfxQa+dwM/DLydPgQ0+Xx+u+AcbH2B1FUrFUYmpwgyWeIwxHFcSmsrrK+sYJzBrd6eVpHL5AXA3NxcV86XHxnl5B13EVarhNUqK4vXLpnP5XLt/Hed7srEREQ2MbivaUVkNzu93YBkv3Y+n2dl5eqCuWtLSxDbbPqhkzdw6dxZLp07u+NJFYtFRkZG6ssreynJRPUpG70t1/VYWShSXq8VsKpUKIxPkh0ZYW15CfzU//kYxVb1Pt3si1EU4TgO+XyearXaap/0blvCVht/T+3ze4B7sUXmvhpb6G43+Qw2AP848EEGpPr9NnvOG3WnkEUb7D5uQ35sDNfzqFbKeIHP4txl1ldWev6CsFNJZ4005ue6LouLi10qDGe4+eH34mczVEslSqsr1/Q/9zyvnRemFeD+LkxMRGRTg/kvgYjsdi1l1OI4JpvNXlN9eW1lhXJp3fYwB2665xHMz1zc8f7ocrnMysoKY2NjrS517EjSE933fSqVykAG6I7nsbq0QLVSJuPlgRDHGPKjYyzMTNt2a+nP+27gnZt9MVmd4Ps+YRimUmV6Gx+r/Xo9sA+7CuCrgacAt2CrxQ+TB4HPYou5vQv7smSpnxNqlPTnbjE4zwOnUpjWVaIwJJsvkB/9/9u782jJtruw79+9z1h1h+5+s/SQ0IglgZCQsbFxLOyQwMLxwMJesQ02y8bGJOCwiBM7wpCsrHjJgAcBS8EkOJLxEDCYME9CA5KeJCRLPM0jSE9v6vf6ve6+Q01n3Dt/nHuqq2/foYYz1a3fZ61eT7q37tn71q06dX5n//bvt0t+dI7RjmYyHJBEE4J+v+kpzcVaO61yXnfmjzGGw8NqCqU/94Uv4p4Hv4Q0inB9j9Hh4R2fE1tbW/O2V4Oifko1VeuEEOIUEqALIdowVyXsst1aEARMJpPp10eHB0TjEdu7l0jjmK1LV3jxq76Kz37oP688scFgUPsq+mwg2cCe6aVopUjGY+LxiLC/BYCxOVuXLqEdF4tFNV/N6sR96LOstdPVvtnXTAfcAN579A/gj1AUvvtq4Bs5JX2/Az5MkRHwEeAtFL9HJ5UdEua8MfMyii0JjTJ5ht+7Qm97hzzP0EqRJQmT4QDtdDu9vcz6qZPruoxGo0reu0Gvx4u/8tUYY7DW4Lo+g70bd5zXe73evO3VoChqWE3PNyGEOIUE6EKINjxGsQpx+bwHKqXo9Xq3XbClScxkOGT3yt1AQjIZ8+ALX8z1q09y4+pqHXDG4zFRFBGGYWNp7p2kFBYY7u9x6Z6i7pk1lq1LV9Cui83zNqpNvxoIOWdvd5mhoJSqrMhUDT579O//Ae6jCNi/nmIP+0tpr9jc4xT94H+VosDbY3Rolfw0ZZC1QNbEyyna9zVMEfS3cH2/6H/uuqRRxGh/v7MBujEGz/PmzUxYWnlT9PiWpmW95FWvIQh7RJPxdJvO6NjKvOd5hGG4yO/1WaCbxUOEEBeGBOhCiDY8CTzBHAG6MYbt7W329/dvT3MfDqfBrbUGpTUveeWr2b92jTxfLT19OBzS7/drvRgti5qVKaNdDNStMcV+//J5NgYvCAj7W4wP9lENtKU75iXAl1JcJJ/JGIPrunfc3OmoZ47+PQT87xS/4zdStAD7s9S/0vt7wAeO/vs7rFEKb5nWXvawXuCm2lfUOa8TWYt2HPq7u0WpTEApTZalRKNhZwP0sh6I4zi1p7enacpwOFz5OA986Qt5zgteRDwZo5TCdYr9/pNjwX8Yhvi+v0gmU61tAYUQAqSKuxCiHTFzFtopV2+OV3O/fvUJxsMhfhgCiiSK2LlyhRd8+erX3ePxuPYWaEWxKI3rurWv1K8iGg3Ij/bJW8BxXfq7u21WoH/lvA8sXztNtM+r2KPATwHfCfwJ4GuB1wHvo5oU86cpWqB9F0URu9dSVFz/edYoOAemW0WKNOaF3kcvrWtOp7G2SBXfunR52l4NLJPhAJNlnWx/Xp6nmuiQoLVmPB6vXDsi7Pd5yVe+mjzLiyKcWuMGATeeusr48OC2x25tbS16Ljv35qAQQqxKAnQhRFsemfeBSim2t7dv+9r+s8/w8fe+m+H+/rSwUhLHPO/LXsble+9baWJpmjKZTHBqXtFSSuF5Xq1jrEJpRXpU+Vg7DliL63pH+2dbK8D25Ys8eDZI72KWwhyuU6xs/wjwpyhWfv8O8NMUBejm9RBF+7c/R5GJ8BcobgI8TNG3fK2U750l235tU+z9b5TF4Pg+va3tIlo/Mjo4wGLb2DIyl/K5buJGYhXp7S94+VcQbm2TpjGe5+MFPo988mN8+oMfuO13KLuELHAuiyiyv4QQolYSoAsh2vKxeR9oraXX693R4ufw5nUefufbePqLjxD2t1BKoZXipa9+De6Kge9kMqm9BZpSqrNtlQCUdkiiiPFgUBSGO6rc3tveLW5etLPyv3CKRBmk133DpSFPU1SF/9sUq+tfR7H6/Y5jjzsAfgb4Dopg9LXA9wK/BVSzybdFZUu9JYs53kOxjaBR1hj62zs4noc1xZytUowP9jG5oYsRelnPoe73jtaaNE1Xbq1275c8j+e+6CXEkzFBEJKbnM9+6IP8wUcexpjbA/GyGOgCPs+cHUiEEGIV3b0yFEJcdB+nWLk79zxkjCEIgule9FlpHPOJ33sPk9GIL33ZK7Am5/K99/GlL3sFn//4IguMtxuNRly+fLn2FPTZvZ1dW+HVWhNPxkTDAfpov7kxOX4YEvT7pHGEdhr/GHneMj9kjKHX65HneZcLxy0qAt599O/HgG+hKDJngX/OAlkq60RrTa/XW2WbxSuqnM+8rLGEW1tHN7uK93sexyRR1Ln3/qyy4GKd58Eq0ts93+fFr3wVKPDDHpPhgE9/6P3sXbt24uOXCNC/iFRwF0I0QFbQhRBt+QNg7mpA510cfv5jH+YT73/PtMft87/s5ezcdffSk8uyrPYe5WUhsy7vQ1dKEUcReZ6itMZkGUG/T9DrkWetpLl/CXDXMj9YFrtawz3p8/pF4L8HvpsLHJxvbW2tGjC+rMo5zSvPM/o7u7iehzUG7ThEoyFZkrRRcHFurutOb9DVofxbRtGZzRnO9ZJXvYbdu+7BcVyuP3WV3//dt54anC95Xpf950KIRnT3E0EIcdEdMOceWqUUWZadm/74zGOP8rH3vIuDG9fp7+zy0q/8qpUC7DLNvU5aaxzH6WyArh2XaDggncRoVVSc93s9/P7WHSmjDbkLeNGyP1ymu9cZcIj69I/qTaz4fmmhQJzFcT38fh91lMquHYfJaESaRJ0M0JsqZKmUmtb9WNZd993P8176ZZg854uf+SQffegdxGdkylhrSZJk0WE+sfQEhRBiAZLiLkSF5KJ/YR80xnzdeQ/SWhPH8VwrLAc3rvORd72Dl/3RP87z/sjLONy7wR9+9MNLTW4ymdSeelru8dRa177nfRmO4xBPRkXBpV4IOWCLFNKW2kL1KAL0Dy17AGst/X6f8XjcZjV6sYCyknhFqdYvrGJOizB5TtDr4Qe9aRtI7Tgk0YQ0Tgn63cvqmN1/3kSAnmXL1Sp0PJeXf83XYo3lUx94H1cfmatBCFEUsbOzM+8cI6XUB5aaoBAtW7AFpegACdCFqND169fbnsLaOOoD/silS5fmCpKSJDnxA6bcwz27up5EER9777uJJmNe+OVfyY2rV9l79uRUx7OkaUqaprVeoM4G6F0MFpXWJFFcpOEe3TwwJqe3vYPrFqm6Laz+3bvKD5c3QiRIXw9KKXq9XpV9uO+v4iCLsCbHD3v4vR7G5CitydOUeDREdfS+7mz/8zq7NlhrV1o9f/lXfw1+GPCh330re9eevu17ZRu+k27uTiaTae2Ps87vRxlch9euXfu8BDliHW1tbXHPPfe02X1FLEgCdCEqdHBwcP6DxJTneXddunTp3MeddQHnOA5hGE5X2Wcv4D/38IeIhkNe+BWvZPR7ByQL7nHM85woitjd3V16dec81locx+lsgA5FWng8Hk8vYq01BGGIchxMnrdRe/pLVj2ABOnro9wDXWFwvlofxiUYY/ACHy8MyJIUrR2yNCWJYpTuZncBpVRjnQ+Wrd7+nBe8kP7OLh98628zPFZAdLbeRJIkd7x+0jQlSRLCMDwzQD/6bOnHcfwg8IWlJipEi8rsI7E+OnrfVgixCfI8f1Ecx2duDTivgFC5qlZejB1vW/bY5z7DY5/9DJfuvmepOcZxXPsHW9luraurM0opotEQawwohTWWoL911Bu9lcD2xVUcZDZIl+0p3VT2sK/wvfF8liwyuCov6OHooj2hUoo0jonGw062/2ty/3me58vsB8cPQ/ywx8PvfPsdwXkQBNPg/KwbDVEUnfv8K6WIoqjHkh0khGibfL6tH/mLCSFaY4x5TpIk5354nLY/UWs9/dnygrLX6+Ed64F+/eoT3Hjq6lJzTNOUPM9rD9K73A8dIBoPi4AWwFpcz8P3g5ZaoXMvUElUU75uwjCs4nCiQjUE51C8dhr9YxcF4lyCXn+6iqsdTZ6lxONxW7UczlUGtk3sP18m9TZNEh79zKfIZoL7cjtEEATTfbdlltJJ4jie6/dLksShha0RQojNJAG6EKJN2+lRW7TTaK2newVP+l5ZXA1uVXYOw/COgGvZ9Njy5kCdAXqTqaTLsUSj8W3Ps3Icgq2ttlb9nwPsVnUwY8x0r6roBqUUvu/XUdxopfoFS7EWrR2CYzcbkjjGdnRPaHnjqu4AXWt9an2R89hj5/TZLKrZ830ZoJ90Do/jmDRNT71JXM7v6HOqlcwLIcTmkQBdCNGWAHhRHMdnBsBH6YUnfu+ki8fygt73fXq93sqBdVMr6KddQHaBQpGlyW2F4pTS+EFIS0vo9wPzlV9ewEnZF6J5nudV0ev8NM0XiLMW7Tj4YTgNKq0xJOMRdPQ9D0XA28T2nvNu0s6jzLY47YaCUurEILzch35agK6UIkmSMoPrwZUnKoQQc5AAXQjRFgO4URSdGgBrracXUCc5a39kuS99a2trpfRxa23tlU+bWq1altIak+fEkxFKayxHba/CEEsr870MbFV5wPLGjgTp7SpXQWsMDB+o68Cnsyit8coV9KMbD/F43M67Z051Z/WU+89XLcAZBME0Y+q08+dpATqcneZeBuhHuvznEkJcIBKgCyHa4gLWGEOapidekJerKycF6Frrcy/iyyJgvV4P3/eXnmgVKzznaWK/5yryLCOJoqKlmi0CDr/Xa2sFHWpIN5UgvX1BEACnB1oVuFzXgc/iej6u70/fL9Za4mj51mJNqDurZ5UCccC05sjsfvOznHajdrbd2knzm8ngWrl7hBBCzEMCdCFEW54PbENRSfe0tMTTguN50y/L43qet/TFZpZltQbO5R7Jru5DV1qTZxlpHKOOmjYrpXA9v80U3efUcVBrLcYYCdJbULZLrLnlXeNpytZY/DBEobAwbUsYTyZ0eVG2iRV0Y8zSGUqu6+J53tyvl9Nu6h5vzzk7vzzPZ1vAVVb3QgghziIBuhCiLVsUq+hEUXTi6oUx5sz+54vI83zpILvuAB1upWB2cQVdKYXJiwBdO2XVfIPjuriejzWtFLqqfA/6rLKOgWhGEATTldAaaaDxuy4WixeE0+wTlCJLEvI0QdG9PejllpsmWjPleb50gJ5l2dzB+ew2opPmcFI7TaUUWZbNpuB3s6KfEOLCkQBdCNGWnKPlo7JK7vELpNMC9NMutM4cbIV95GmaNhI4z5O23xZrLGkUYa0Bil7ojufieh6mnZsKz6/z4NJ+rTlKqYVWQldwCXhu3YPcwYLreehpgcWiB7o1ppNF4sqMniYC9FX+5uXq+7znzLO6ZcRxfOLve1qBUiGEqJME6EKI1pX7/GYvkJRSlBXejysD2XmDZmvtSoWIyovAOoPn2VWrLq6ia0cXldzjFKVVsYLueEcr6K1MqfZRy1X0cl+0qJ7Wmn6/X1fF9uM8oF/3IMdZa/GCAOU4RwUWi64IeZ53cP28sOg5dlmrFuBc5OfPardWbrOa/Z619tQMLiGEqJME6EKItmhubcckmWnhBcUF4mmrF4us7JT7CFe50GyqknunW60pXaTlZun0wl07Lo7r0VKE3kjBJmvtSvULxOnKIl8N3pTSQCv7Flx3JrNeadIoIs8yaGCVehlNZfOsmjWxyLl9nn7oaibLYZUCdkIIsYpufjIIITbBGJgua08mE7Isuy34ninOM6WUWrht2qptfMoAve4L1qZWrZaiFHmWTZ8Ha22xB933jtLeG3eliUHKVbWyL7eojud5Z7ZKrMEl4L6mBitZa/GOCuBhLUppkjjG5FknX1NNZfOsmtkERYB/UgX2s5x0g7fch15+T2s9/UyaIVUjhRCNkABdCNGWR4Fh+X+iKJquYJzVXm2ZYmp1r35Xpct70LWjSeOIPE1mAg2FUrqtXuirXdkvoAxY+v1+I/tyN4Hruvi+3/R704Hms8rL3uflJZfSijxNMLnpdIp7E1a9AVB2XVjkvHnaDd7Zz5tj/c9L+0tMUQghFiZXGkKIthiOnYPKCyLHcaYph8ctEsSWaYqrplEaY8iyele77DTg7eYlu+LoucxzOFpBdwMfLwiweSsBeqNPlDFmGlSK1biuS7/f+FZwaKGnmbUGz/dxvFuZJkop8izF5t0sEtdULYwyuF7Vouf40wrFRVFEnuc4jkOWZSftP39k+VkKIcT8JEAXQrTptuWz8Xg8/d+n7f1bJL29bNVWhabScLvcCz1LErI0nfZCLwP1llo5v6TpAfM8x3XdhbdYiFu01tP+8i1s5Wh8Q7G1FtfzcFx3mt6epSlpkqCc7l2CNX2jsIoMirIN5jxzLh930nm2DNDL9monbLHaWnmyQggxh+59OgghNkUKPDb7hSiKpq1zTioQd1abnJNUscdRzDp2s8OYon2U08q++Vb6nyml6Pf7EqQvwXVdtre3cV23iZZqJ2mksOBx1phb7w9V/H+T511cPAdubSNaF4uuxJ/2OWKMIYoilFLTqu7HPLnaTIUQYj7rcwYWQlw0FhjMfiHLstsukI5bpIhauXq+LvvPS12u5I7SJJNxcTGsFMYUxa+U00qw2softnztSar7Yso9/NbaNosgNt4D3RqL6wfFTQlb7JU2WU6eZbcyUTqos8UqT7Hojdiz0tyVUrdlc824tvjMhBBicd39dBBCbIKnj39hMpmQpumJgfWiweuq7dWa1uU96KViperWc7pOz29VjDE4jiP90RfQYlr7rFZS3B3PnUlxV+R5Rp6lndx/XqaAr9MKOix+rj/tsyRJEtI0PekGsQFurjRJIYSYk+ToCSHadPX4F05qrVZadH/2uq2ed52iaLVmje1s9emmWGsJguDUbA9xSxAEBEHQVlp761rOGtgIZbbUPG37Zm9CHP+MyPOc/f39k16rMZLiLoRoyHrdIhVCXDSPH/9CFEUcHBzc8cBlVnXWMUDvapG4UhrHbfU97xxjDEEQyH70M7iuSxiGGxucH6eUulUkTnfzNtc6rqADC7/GTnrfZlnG/v7+SUF+wrGaKUIIUZf1OwMLIS6SO9rWGGNOvNBapPVPVe3VxJ1m00KtNfhhiOO62A19ro0x+L7f+a0JbfF9v0vvw1bupNy2gq4UNi/3oHfzNVNutVm3VX8zW4xvDqcVijvl9foocEffNSGEqIME6EKINt2xB/00i6wslwF6ldbtYrUuJs+hfC4sOI6Lame1rRPRjbUW13Xp9XpruepYl7Io3Dwpxw0aNT6iBa2d218bSrf1numcKm9SLNJuDW7d9J3T57mjjYUQQtRDPiGEEG16kjmD9HnTiMuVnyoD9LItT4cCjVYopYgnY4y10wJXRR/0Vp6XzvwxjDF4njcthCaYPh8dWj0H+ELTA1qb4wUBrlfswVdKYU2O6fAKelOUUpVuD1nkvH9WP/RTfHrpiQkhxIIkQBdCtOkpTkhzP27BlY7K26st2n99FV3fg94hf9j2BGbleY7nefL3o3i/eJ7XxRoQrU9IKU2WJmRJ3Ok2a02p+qbnoq+5Bd6vn1t4MkIIsST5dBBCtO3cwjuu6y60J7Lq9mpN7snc9FW1BXSudLpSin6/v/FBuud5XU337+Skuqapc1DVK+hQXbu1E3TqhqAQ4mKTDyshRNs+ct4DulC9XSp1d07n/iBlYNDv9zf2RksQBF2u2t5OsYSjG3zrosmbK1WfV621060E8zx2zuysmxRF4oQQohESoAsh2vbhs765aMufqvefw0KrLKI5nYwAy72tvu+3PZXGaa273u98AAwbHVEpTJ6R57mcQ05Q9c0Aay1Zli30M3NkvHwceGLZOQkhxKIkQBdCtO2DwLOnfVNrPXcl6Lraq5WrPJteJA7uTH9tMeg4t3ZBW8r+6JsWpIdh2PX3yBi43uSASmnSJCHPEgnQT1DHdpBF09znWMX/+EoTEkKIBUmALoRo203OuAAyxpAtUPG4jvR2z/Pk4vqIMeZW1XalSJO4+Frzz0/S9ICLMMbQ6/U2Zj96r9frWku1k2g6uDWia5rMgFi0AOg8yn7o552zy+/P8Znx/mpmJoQQ85EAXQjRBe887RvWWiaTyblB+gIXWwsri9Q1odMBjlIk0QRrDIriOU+TpK2WUdeaHnBRxpiNWEXv9XpdbKl2kgPg8bYn0XVNnYOstTiOU/lNrHIf+lnK81Ucx8RxfNZDR8B7KpucEELMQQJ0IUQXPHTWN621RFF07j5OY0wtQUKT/a072JrqNsbkzLYgV0q1sXoOcKONQRdhrcXzPPr9fttTqc0iW1A6IKbpPejiVGWAXsdNrLP2oZefIVEUkSTnJuJ8CikQJ4RomAToQogu+Cjw5FkPmGclver2alBPK6C1ZS1B2EdpZxqit5j63/kAHYqbRq7rXsjK7lovnE+cAAAcPklEQVTr6c2HNQnQAZ5pewKiUFZRr+MGaJZlJ74my/fgZDIhTdN5DvWWamcmhBDnkwBdCNEFe8BvnvegMkhP0/TEYKeu/edrtEJYO8d1b1sxLzIWWnlurrYx6DKMMTiOc6FeQ0oper0eSql1+70a3RqhdVEkLktTVDd7w7eujhugJ7Vbmw3OF6j0/juVT04IIc4hnxZCiK6Y+0IoiqI7gvQ62qtB0dfZdd3G9td2PdiZnZ92NOlkQt78HvQRMGlywCo0uVWibuXqZ9dfryd4utHRFNis6CyhWI8MCmNMY23hjDGEYVhL7/XZbKvyRtJ4PF4kOP8E8IHKJyaEEOeQAF0I0RVvYYFV0XL/oFKqtvZq0HwF9zUotHVLuXra/JSfpOhpvTastdNiahdBGIZtT2FZp7Z0rI2mrToNnVcWUqxjFb3c8qS1xhjDZDJZ9CbuW+h4twghxMUkAboQoisGwFsX+YE4jkmSBK11LavnSimCIFjHVcJGWGOw1rTxSfIURUXutVK2Xlv3vehhGOL7/rq+Lxrvg54lCXmSrFWQ3uTfVilVy42r8qbtbJHRBRjgFyuflBBCzEECdCFEl/z0oj8QxzFRFNWy8uy6Lr1er7HK6mWa/joEPloXgUd2dIOkYVdpY92+AtZagiBY2yC9DM7XKtPjdldpcHuEUooszTB5jlLdv+QqU8GP79+ue8ytra1ajp2m6TIr5wAPA++rYUpCCHGu7n9aCCE2yfuAjy/6Q3EcL7KvcG5tBFJrFfhYMO3cTHiUlirTraoM0Ncx1b1c6VyHG0hneJTGV9EV1hiwxWqu63m4flBkn3SQtbbxv3Fd59okSZb9bHhT1XMRQoh5SYAuhOiSBPiJtidR2t7elgB9hrUWv9dDK4VSkGcpeZK0sTL4WNMDVskYg+d5bWQeLE0ptY4t1U5yg4Zb9CmlSOMIYw1Yi3JcdEc7Q5Qr6E1lDcGt90Ov12tszHNcB36h7UkIITbX+lwdCCE2xS/QgV7FjuM0vs+2jZWrRTlO2Wat2PefZ2kbe2vXOkC31uI4zloVWvM87yK1imu8RV+eHvXlVoC1xb+OKvdtN3Vzsnw/lDeAOuDNNJxlIYQQsyRAF0J0zQ2KC6RWbW1tNbrXtqxE3+SF8TLs0fOhtCZPU9IkQelG5xsBjzc5YB3K3uh1VK+uwxoXhTvJJ5scTClFEkdH750i+0Qp1elNGk1n8hhj6Pf7XTj3HQJvaHsSQojNJgG6EKKLfpTiQqk129vbjY9Zrlx1mRsE05R2k2eYLEM3e1H9BPCFJges0zq0Xiv3B3f9tbmAZl8/CvIsA2uxxuD6Pn4QdHY7y2zbyqYC5rLdWl3F4hbwJuBa25MQQmw2CdCFEF30DPAv2xo8CIJGq7dDcVFsjGn0onhRlqLAldIKpRV5lpGmMUo7TU7jKWDY5IB1KbMlulzVPQzDi9hq8CNNDqY42oNuTJHijup8y7XyXNS03d3dxsecMabFzx0hhChJgC6E6Ko3UFRcbtzu7m7jBbyUUmRZ1tlVtVIZSFprydKkjTTdzzQ+Yo26HPhqrXE7WsxsRY9SBGONUFqRRBEWC7bYHqK1Q1dz3NtYQYfipkB5Q6glPww82dbgQghRkgBdCNFVQ+AHmx7U9322t7cbD5TL3sOdZi1+2MPRLjY3JJNJGyuBDzc9YJ3KVfSO7L+9je/7aK0vYoD+LPCpJgfM05Q8TadZKK7vT+s5dM1sPYwmlcXiLl261Oi4Rx5DVs+FEB0hAboQosv+A/BLTQ54+fJlXNdtNFgu09vzPO9ckHac0hpUsdqVRBGKxufbaGDVBGstWusutZnCdd2LunoOkAEfbW44hbHFDS2FKlbQHafLhdwBGt3iMzvmzs5OGx0OvpsGsyqEEOIsEqALIbrue4BBEwOFYcjOzk7jF6blilWWZZ0N0K01uJ6P47pYLNbkJFHjK+iHNFyBuynl6mFXqrqHYXjRCsMd9/tNDaSUwuQ5WRLD0Qq65wedXUEvpWnayiq61porV640OeybgN9ockAhhDiLBOhCiK57Cvj2ugdRSnH33XcD7ewL7voKurUW7bpo1ymqUVtbrKA3O98PADebHLBpvu+3PQV837/owTnA5xobSSlMnhGNx0UGytE+9K6+10tZlrU27vb2dlMF4z5CsXouhBCdIQG6EGId/DLwI3UOcOXKFfr9fmv7wNu6GJ6XNRbP93FdD2shzzOSOGp6Gu+nq5W1KlCuorcZpCulOt/2rSIfA55uYiBF8X6JjwJ0YwxeEByluXfz5dxWobiSMYa77rqr7oySQ+BbgaTOQYQQYlESoAsh1sXrgJ+t48C9Xo8rV660Fpxba0nTtJWx52WtwXE9tOOCgmQ8xmQZSjd68f6xJgdrg7WWIAga7yJQuuB7z2c9C3yikZGUwhpIognWGoo0924H6FAEyWmathage57HfffdV9f4EfDNwKfrOLgQQqxCAnQhxDr5VioO0oMg4IEHHgBoNUDv/Aq6Nbieh+O4KCAajzF53mSRuAEXrIL7Wco94E0qV+/bKA7Wkv/c1EBaa7I0IY0SUAo/DNCuS1crxZWFK9usi5FlGVtbW9x3331VH9oAfw343aoPLIQQVZAAXQixbv4G8OYqDuT7Pvfff3/jVdtnaa1J07TT+88BbG5xfR/X9wFFEk2KQK65OX8G+EJTg7XJWovneY2mmjuOQ7/fb23lviUPNTWQ0po0jknjovOB6/s4Tnd7ocOtG4dtrvLnec7u7i73339/VYe8AXwD8CtVHVAIIaq2UZ/EQogLwQB/h6JH+tJ54f1+nwcffBDP81pdvVZKkaZpa3s952WtxfMDHK/YEzoZDsnzRlfXNmb1HG71R2+K4zgXtef5Wd4LDJsYSDsOSRSRxJNin78foHW3U9zLm4dpmrZ246a8SVAG6SvO44PAa4G3VzM7IYSohwToQoh19Xqt9de7rntjkR/SWnPXXXfxwAMP4DhOayvnpXKfZ5cv1K21OK6D6/tYYzF5RhY33gP9HU0O1jZjDL7vN1YwrgvvhRYMaGgVXWtNGkUkUQRKFUXiOr7XXylFlmWdaP9YBukPPvggvV5voZ9VSqGU+mXg64FP1TJBIYSoUDcargohxIKUUriu+1AYhv8ySZJ/Wq5Cn3bBq5Ti0qVL7OzsEIYheZ63vte2XKFKkqTTqcVFizUPLwxBKaLxmDgaH6XoNmIf+O2mBusSz/Nqv4EThiGe521igA7F6+qbGhlJKZLRGHuUeeKHIaOD7mbNlJIkIQzDtqdBlmUEQcBzn/tcRqMR+/v7RNHpnSS01riui+d5z1prvy2KonGXb4gIcRJ5zW4mCdCFEGvHdd1pSzRr7Zs8z3ud67q7xhjKf6Wj1RMcx2F3d5cwDDtVMT1JEvI8bzLYXZy1OJ5H0OujtCKZjIknUdHTuRkPUbRE2ihl2zXP80iSejpBlUHMBl8EvgfIgdrfgFprxsNDsjRBux7+givBbVBKkSTJdMtF26+TPM/RWrO7uzvdmmStvW1eSim01jiOU678/zow7vf7rcxZiGUppRiPx60vJojmSYAuRIW6sMqwCWb3ylprnwF+DvhOx3FODXSNMQwGA1zX7cSFZjmHOI5bTx89j7UW7Tj4YYCCothVFOE393r/taYG6pqyYFxdq+ie5+E4ziZfAH6UIu35lXUPpB1NNBqR5wbX1wRh9wPGsh96HMf0er3Wz5vlnEajEZPJZHo+P8lR4G6BH292hkIIsRoJ0IWoUFP7RTfd8RUT4I3A37LWnlr2WilFHMeMx2O2t7c7EZCUBZi6H6AbXNfDC/tkacp4cECD1acz4H1NDdY15Sq667q1ZH5orTc1tb2UUxQNqz1AR2ni8Ygsjgn72/i9XrNVHJZkrSWKooX3ftehvGEwGo2mXzvnpsGvUdyEEUKItSEBuhAV2vAL3TZ9HHgL8OfPe+BoNCIIglZbq0ERGEVRhDGm0/vPC4qg18d1XbI0ZTIc4jiNfXy8H/hkU4N1kTFmGhxVGaRv+N7zWb8CfF/dgyilMFnG6PCA3XvuJej3O9sH/bgkSUiSBN/3Wz9vDgaDRep2vLHuOQkhRNW6flUohBDzOjeNUWtNnucMh0VnpbZWrsvqyHEctzL+MvxeD6U1Js+ZDAco3dhz99amBuo6z/Mqe80qpfA8rxMpyx3wTuCzTQxkrCEaDQGL6/l4/T6mA9k8ZymzLNo+X2mtSZKE0Wg07/vgfcDbap6WEEJUTgJ0IcRF8Tbm6G+rlGIymTCZTFpbuVZKEUURWZatwep5ITgK0JNoQjKZgGpk3gb4+SYG6jpjzHS/+Kq01pQFsyRAn6q9zkGZnj0eHBZbFzyPoNdbiwyG8pyV53krNzbLmh2DwQBjzLxz+Im65yWEEHVYjytDIYSYzz857wHlhd1gMCBN08YDZKUUxhjG43Hn956XrLWE29s4jstobw/T3EX6Q8BnmhhoHZSVtFd11KJQgvPb/VITgygU8XhEPJ7gBwF+2MOuSYCeZRmTyaS1AH00GhHH8bzn7E8B/7HmaQkhRC0kQBdCXCTvAt5x3oO01mRZxuHhYWVBz7y01ozHY7IsW4sA3VqL47p4QYjWmtHhAXlzc//ZJgZZF8YYwjDEdVfb/992/YWO+n0aKCbmuC7xeMzocJ+gv4Uf9jqf4j6rbPnU5I1Nx3GI43i6NWlOP0SRgSOEEGtHAnQhxEXz+nke5DgOURQxGAzQWjcScGqtSdN0rVbPTZ7T29rGD8KjAnEDrG3kuvcmRf9icUwQBEv/rFIK3/dl9fxOMfALdQ+iHYd4MiYaDnBcl972Dtp1sab7f482aniU58yDg4Oi3eN8NwYeBv7fmqcmhBC1kQBdCHHRvAN49zwP1FozGo0YDoeNBczD4bC1fZzLsCbH7/Xw+33Gh4fEk0lTFdx/G3iyiYHWSdl2zfNO7Sh4KqVUJ1plddh/AKL6h1FMBoekcYzf6+H5flM3vVZWZgAtkGq+tHI70OHh4aL1On6ABvtACiFE1SRAF0JcRP/zPA9SSqGU4vDwkCiKKinAdRrHcRiPx0RRtDaF4QDyPCfob9Hb3mZ4sEc0GqJXTLGe05ubGGSTeJ4nldvP9kXgN+oexHFdhvv7xJMR/Z1dPN/HrEmAXiqD5rpuNJbHPTg4WPTc/C6Km3tCCLG21ucqUQgh5vdB5ty/vMKF4NzK9kCDwaDyY9epSCl16G1tg4Xx4QGmmf3nn2SOivybyhiD7/sL/R201nieR75G+51b8q/rHkA7DuPBIdFoRG9nBy8I16JQXKlMOy8zj6o+H5THOzw8ZDKZLHpO/l8rnYwQQrRAAnQhxEX1/cB4ngeWfX739vYYj8c4jlPZRWe5b3N/f3+R9kCdYIzBCwJ6OztFYav9fbRbX5bBjDc2Mcg6KwPueTVdDHGNvQ34cJ0DKCDPMkYH+2itCba2jr66PspU98FgUGmQXmYXHRwcMB6PF802+rcUnR+EEGKtSYAuhLioHgV+fN4HlxeC+/v704vOVVPRZ4PzNlq6rcqaHD8I2bp0mcl4wOhwH13//vOngP9U9yAXwSKr6Ov22mtRDvxftY6gFNYahnt7AEWhOK1Zp23TZVA+GAwqC9IdxyHLMvb29phMJosW74yYo82mEEKsA/nEFkJcZK+nCNTnMnvReXBwMG0ntOiFZxncp2nK3t4eSZLUur+9LtZavDAk6PcZ7e2RxjG6/lXYf0dRwV2coaxoPc8qutaafr8vK+jz+zlqLlBorWV8uE+eZWxfuoJSinUrDVCe54bD4XT7zjI3grTWaK2ZTCbs7e0tW6fjh4DPLzy4EEJ0kAToQoiLbAR87yI/UF50jsdjbt68yXg8ngZD5wU4SqlpID4ajbh58+ZarpyXlNKEW9sorTm8eaPYJ1tvkDeg7tXLC8QYg+d5576+ypV2KQ43twOKdOnaaMchHo8Y7u/R293F9TzWLkLn1vlyMBiwt7dHlmU4jjPXOU9rPV01Pzg4YH9/nzzPl7mZ+Rngh5eZvxBCdNF6XjUKIcT8fhX4nUV/SGs9vXAs96YbY6arPSf9s9ZOV4EODw8X6dvbPUd7lrcvXSZPU4Z7N5sI8P49RSVtMafz6iWUq+xmjYqQdcQbKW7w1cJxXKLxmMH+HmG/T7i9g1njAn5aa+I45ubNmxweHpIkyfSG5fHzZPmaTZKEw8PD6Y1QWLq3+vcBSZW/jxBCtKmRXjlCCNGyv09R+GlrkR8qg+skSUiSBNd18TwPx3Gmqzxlr94sy8iyjDRN1zswP2Ipfrfde+5huLdHPB7X3V5tQpGmKhZwXvE3WTVf2tPAjwI/WOcgw5s34EUvYfvSZfafeRpnif72XVBuDzLGMBgMGI/H07Z+x8+VeZ5Pz5XlNqIVzpc/A7ylqt9DCCG6QAJ0IcQm+APg/wB+ZJkfLi8eyyD8pICoDISqKC7XBcYYwv4W4dY21x79IvF4jB+GdQ75fwNP1DnAReV5HlmWnfi9dax90CE/CfwDoF/HwV3PZ3DjOlmasn3lrnWqEXeqctXcWkscx8RxfMf5cvZcueLr8ybwD1c5gBBCdNH6X0UKIcR8/gXwoVUOUK70lKtFs/9mv3cRmCxj9667AcXg5vXi96rvdxtS/H3Egqy1uK6Le0p2QxAEDc/oQrkKvKGug2vHYTIaMbj+LFuXLhFuba11mvus4+fEms6Vf5fibySEEBeKBOhCiE1hgL8FxC3PYy1YY9i6fIU0jth/5hpuvYHeT1Bz1eyLTCl1Ysu1Mr1Y0txX8s8pWv/VQgF7154m6G3h93rkp2RCiDv8CvBLbU9CCCHqIAG6EGKTfJIiZVWcwRiD6/v0d3YZHeyTRlGdmQHPUrTDE0syxuC67m1bK7TW+L4vwfnqDqmzv7aCg+vPohyH3vaO/L3m8wTF6rkQQlxIEqALITbNvwJ+re1JdJnJc8KtbcLtbW4+dRXq3VP//RTt1cQKrLV3BHeyel6Zn6QoMlk57bhE4yEHz17j0r334biu/M3O9x3A9bYnIYQQdZEAXQixif47ipVbcQKT5/S2d9Bac3D92SIPtx4fB/5NbUffMN5MBXDP8yTQq9Y/ruOgWmvSOObw+rPs3HUP2nG4ENXi6vMG4K1tT0IIIeokAboQYhNdBb6t7Ul0kbUW7Wgu3XMvB9efJZ6McHRtlcC/h6I2gKjA8QBdVOq3gX9Xx4Ed12P/+jNgDf3dXayRAP0Uvwf8L21PQggh6iYBuhBiU72VmnscryvH9ejv7rJ37SnyLEPVk+L+U8BDdRx4k5Vtq2T1vBbfD+xXfVDX8xjt7RFPJuzedS/5BankXrEbwLcDUkVPCHHhSYAuhNhkrwf+Y9uT6BJrDFu7l7AKDp59Btf36xjmUaRYX6WstTiOIyvn9boKfFcdBzbWcnjzxtEKugToJ/irwB+2PQkhhGiCBOhCiE33nRTV3QVgcsPW5ctEgwHxeIyuJ739e4BRHQfeZMYUuwXCMERrLavo9fh5ihZfldKO5uCZazieS9jfmv4tBQD/CHh725MQQoimSIAuhNh0Q+CbgGttT6QLjMnob+9yeP06StdSHe7HgN+o48CbzlqL53lSIK5+fw94usoDaq0ZHe6TTCbs3H0PeZJUefh19q8oetELIcTGkABdCCHgceCvs+Hlk02e09vZxVrD8GAPpSr/iPgo8LqqDypuOandmqjcMxSZN5VRSpMlCaPDA8KtbVD1tU5YI79FkW0jhBAbRQJ0IYQo/C4bXtk9yzJ2Ll9hMhwwGQyOWj5V5oDiJkhc5UGFaMmvU7T8qozr+exfexqlNL3tnU1Pc38/8DfbnoQQQrRBAnQhhLjlZ4H/se1JtKNIj9aOy+jwoI4Bvhv4dB0HFqIl/4gKOxFoxyGeTEijqK7ijOviSeCvUFRuF0KIjSMBuhBC3O7HgB9qexJNs9bihSFpEjPa3686QHgj8DNVHlCIDsiBb6VIea+EdhwO967jeB4bmuT+JPDfHP1XCCE2kgToQghxp38M/Iu2J9EkpTR5mjLcu1n1/tffBL63ygMK0SFPAN9CEayvTGtNMpkwGRyi9MZdoj0NfCNFrQohhNhYG3f2F0KIOf1D4J+1PYkmWWsxxqCqC9AfBr69qoMJ0VHvpcLXuVKKPE2rOty6uAb8eaTlpRBCUEuDWyE2lb/Z+wYvorcBIfBftD2RplQYnD8KfB1wvaoDCtFhHwcy4L+s4mAVvg/XwePAfwV8rO2JCNElSinSNF25M0cQBGxvb2OMwVrL4eGhdPvoOAnQhaiQBOgX0tuP/vtn2pzEmilXw77Q9kSEaNBDgAe8tu2JrJEngW9GgnMh7iAB+uaSAF2ICkmAfmG9i2KV5y+1PZE18Ajwp4HPtD0RIVrwDqDHBmXdrOA9FHvOP9f2RIToIgnQN5fsQRdCiPm8mSJAP2x7Ih32FMVq2BdbnocQbXod8E/bnkTH/TJFWvvVticihBBdIwG6EELM71eBP4X08z7JIxR7ziVVVQj4ASRIP80bKCrfx21PRAghukgCdCGEWMwnKPaY/mLbE+mQD1Okqv5B2xMRokN+APjutifRIQnF8/E/AZJfK4QQp5AAXQghFncd+MvAP2l7Ih3wVuCbkOBciJP8JPAXgVHbE2nZ54Cvp3g+hBBCnEECdCGEWN7/Bvw5NnfP9Y8D30BRtV0IcbJfo8i62dTtH/8a+JMUReGEEEKcQwJ0IYRYzW8BXwv8+7Yn0qA94NuA72t7IkKsiYcpajRs0taYm8DfBv7e0f8WQggxBwnQhRBidU8B306R9v75ludSt98C/hjwM21PRIg1s09xjvguYNLyXOr2b4CvBn665XkIIcTakQBdCCGq84sUweuPAnnLc6naGPh+ipT+i34TQog6/RTwp4G3tT2RGnwC+G+B76Do7CCEEGJBEqALIUS19oB/APwJ4OdanktVfh74GuCH256IEBfE7wP/NfB3gcdanksV9oAfpFg1/08tz0UIIdaaBOhCCFGPDwF/Dfhm4N0tz2VZH6b4Hf4qxcqYEKJabwK+iiLr5nrLc1nGs8D/CbwSeD3S21wIIVYmAboQQtTrVyiKQ30LRTXndfBJin7Fr+HiZAEI0VU3uZV182PAsN3pzOUm8M8o5vw/AE+2Ox0hhLg4VNsTEOIi2d7ebnsKovv+GPD3KXoCP9jyXGZlwAcpAoS3AAftTkeIjfVCikJyfx14fstzOe5h4M0UNx6faHkuQlxoSinG4zF5vlpJm93dXR544AGyLCPPcx5//HGMMRXNUtRBAnQhKiQBuljA/cDfoOgj/g0tzuNxiovt/w94Z4vzEELc7grwN4E/C/xF2st6fAL4TYoMoF9vaQ5CbBwJ0DeXBOhCVEgCdLGkV1EUYftLFEWW7qW+8/MYeJriYvvtFKvmT9c0lhCiGq8A/jhFPYjXAPfVONYYuAr8DkVA/hGKVpJCiAZJgL65JEAXokISoIsK3A38UeBPAi8DXg48h+UuyA3F3tBHKCpFf5SitdNHKpmpEKINdwGvpQjYXwG84OjfpSWOlVKcIz4PfIGiMOT7KM4VQogWSYC+uSRAF6JCEqCLZQwGg1bH39nZaXV8IcTZ5BwhxOaRAH1zuW1PQAghNt3sxW8TF+JysS3EepFzhBBCbI7/H4erPgsX309rAAAAAElFTkSuQmCC;" parent="1" vertex="1">
          <mxGeometry x="1140" y="40" width="240" height="240" as="geometry" />
        </mxCell>
        <mxCell id="ZYdIE-EWWeY78ESIAKIQ-56" value="&lt;font style=&quot;font-size: 32px;&quot; face=&quot;Times New Roman&quot;&gt;TO:&amp;nbsp;&lt;/font&gt;&lt;font style=&quot;font-size: 64px;&quot; face=&quot;Times New Roman&quot;&gt;&amp;nbsp; &amp;nbsp; &amp;nbsp; &amp;nbsp; &amp;nbsp; &amp;nbsp; &amp;nbsp; &amp;nbsp; &amp;nbsp; &amp;nbsp;&amp;nbsp;&lt;/font&gt;" style="text;html=1;whiteSpace=wrap;strokeColor=none;fillColor=none;align=left;verticalAlign=middle;rounded=0;fontFamily=Noto Serif CJK SC Black;fontStyle=1" parent="1" vertex="1">
          <mxGeometry x="270" y="190" width="420" height="90" as="geometry" />
        </mxCell>
        <mxCell id="ZYdIE-EWWeY78ESIAKIQ-57" value="&lt;span style=&quot;font-size: 24px;&quot;&gt;&lt;font face=&quot;Times New Roman&quot;&gt;CONFIRMING / &lt;/font&gt;&lt;font face=&quot;Noto Serif CJK SC&quot;&gt;确认&lt;/font&gt;&lt;/span&gt;" style="rounded=0;whiteSpace=wrap;html=1;strokeWidth=2;fontStyle=1" parent="1" vertex="1">
          <mxGeometry x="40" y="310" width="360" height="60" as="geometry" />
        </mxCell>
        <mxCell id="ZYdIE-EWWeY78ESIAKIQ-58" value="&lt;span style=&quot;font-size: 24px;&quot;&gt;&lt;font face=&quot;Times New Roman&quot;&gt;OUR QSO / &lt;/font&gt;&lt;font face=&quot;Noto Serif CJK SC&quot;&gt;通联&amp;nbsp; &amp;nbsp; &amp;nbsp; &amp;nbsp; &amp;nbsp; &amp;nbsp; &amp;nbsp; &amp;nbsp;&amp;nbsp;&lt;/font&gt;&lt;font face=&quot;Times New Roman&quot;&gt;YOUR SWL REPORT / &lt;/font&gt;&lt;font face=&quot;Noto Serif CJK SC&quot;&gt;收听&lt;/font&gt;&lt;/span&gt;" style="rounded=0;whiteSpace=wrap;html=1;strokeWidth=2;fontStyle=1" parent="1" vertex="1">
          <mxGeometry x="400" y="310" width="960" height="60" as="geometry" />
        </mxCell>
        <mxCell id="ZYdIE-EWWeY78ESIAKIQ-60" value="" style="rounded=0;whiteSpace=wrap;html=1;strokeWidth=2;" parent="1" vertex="1">
          <mxGeometry x="560" y="330" width="20" height="20" as="geometry" />
        </mxCell>
        <mxCell id="ZYdIE-EWWeY78ESIAKIQ-63" value="" style="rounded=0;whiteSpace=wrap;html=1;strokeWidth=2;" parent="1" vertex="1">
          <mxGeometry x="830" y="330" width="20" height="20" as="geometry" />
        </mxCell>
        <mxCell id="ZYdIE-EWWeY78ESIAKIQ-64" value="&lt;font style=&quot;font-size: 32px;&quot; face=&quot;Times New Roman&quot;&gt;OP / &lt;/font&gt;&lt;font face=&quot;Noto Serif CJK SC&quot; style=&quot;font-size: 32px;&quot;&gt;操作者&lt;/font&gt;&lt;font style=&quot;font-size: 32px;&quot; face=&quot;Times New Roman&quot;&gt;:&amp;nbsp;&lt;/font&gt;" style="text;html=1;whiteSpace=wrap;strokeColor=none;fillColor=none;align=left;verticalAlign=middle;rounded=0;fontFamily=Noto Serif CJK SC Black;fontStyle=1" parent="1" vertex="1">
          <mxGeometry x="880" y="822" width="480" height="48" as="geometry" />
        </mxCell>
        <mxCell id="ZYdIE-EWWeY78ESIAKIQ-65" value="CQ Zone: 24" style="text;html=1;whiteSpace=wrap;strokeColor=none;fillColor=none;align=left;verticalAlign=middle;rounded=0;fontFamily=Times New Roman;fontStyle=1;fontSize=24;" parent="1" vertex="1">
          <mxGeometry x="650" y="750" width="160" height="40" as="geometry" />
        </mxCell>
        <mxCell id="ZYdIE-EWWeY78ESIAKIQ-66" value="ITU Zone: 44" style="text;html=1;whiteSpace=wrap;strokeColor=none;fillColor=none;align=left;verticalAlign=middle;rounded=0;fontFamily=Times New Roman;fontStyle=1;fontSize=24;" parent="1" vertex="1">
          <mxGeometry x="650" y="790" width="160" height="40" as="geometry" />
        </mxCell>
        <mxCell id="ZYdIE-EWWeY78ESIAKIQ-67" value="LOC:&amp;nbsp;OM89FS" style="text;html=1;whiteSpace=wrap;strokeColor=none;fillColor=none;align=left;verticalAlign=middle;rounded=0;fontFamily=Times New Roman;fontStyle=1;fontSize=24;" parent="1" vertex="1">
          <mxGeometry x="650" y="830" width="160" height="40" as="geometry" />
        </mxCell>
        <mxCell id="ZYdIE-EWWeY78ESIAKIQ-68" value="" style="shape=image;verticalLabelPosition=bottom;labelBackgroundColor=default;verticalAlign=top;aspect=fixed;imageAspect=0;editableCssRules=.*;image=data:image/svg+xml,PHN2ZyB4bWxucz0iaHR0cDovL3d3dy53My5vcmcvMjAwMC9zdmciIHZlcnNpb249IjEuMSIgaGVpZ2h0PSI0NjkuNjc5MzQ4Mzg4NjcxOSIgd2lkdGg9IjIyMC4xNjIyMTI3Njg1NTQ3IiB2aWV3Qm94PSItMC4xMDc5OTM4MDExMTY5NDMzNiAtMC4xMDc5OTcxMzg5NzcwNTA3OCAyMjAuMTYyMjEyNzY4NTU0NyA0NjkuNjc5MzQ4Mzg4NjcxOSI+JiN4YTsgPGcgaWQ9IkxheWVyXzEiPiYjeGE7ICA8dGl0bGU+TGF5ZXIgMTwvdGl0bGU+JiN4YTsgIDxnIGlkPSJzdmdfMTAiPiYjeGE7ICAgPGcgaWQ9InN2Z181Ij4mI3hhOyAgICA8cGF0aCBpZD0ic3ZnXzEiIGQ9Im02OS4yMDQ5NywzMzMuMzM2MTZsNi45MjI5LC0xLjY2NjZjMC4zNDczLDEuNjUyMSAwLjMzMywzLjE5MSAtMC4wNDA0LDQuNjIwNWMtMC4zNzMzLDEuNDI5OCAtMS4wODc0LDIuNzM1MSAtMi4xMzY4LDMuOTEzYy0xLjA0NzEsMS4xODIzIC0yLjU4MzYsMi4zMDE2IC00LjU5OTUsMy4zNjQxYy0yLjQ1MTYsMS4yOTIgLTQuNjE0OSwyLjA0OTMgLTYuNDc3MSwyLjI3MDRjLTEuODY5OCwwLjIxOTkgLTMuNzY4MywtMC4xMjQ5IC01LjY5MTIsLTEuMDM2OWMtMS45MTc2LC0wLjkxNSAtMy40OTkyLC0yLjU0MTUgLTQuNzM2OCwtNC44ODk5Yy0xLjY1MSwtMy4xMzI3IC0xLjkyOSwtNi4wNjU1IC0wLjgyOTMsLTguNzljMS4wOTc2LC0yLjcyODkgMy40NjI4LC01LjA1MDQgNy4wOSwtNi45NjIyYzIuODQwMywtMS40OTY4IDUuMzI0NSwtMi4xOTIzIDcuNDYwNSwtMi4wODUxYzIuMTM1NiwwLjEwNzMgNC4xMjMzLDAuOTUxMyA1Ljk2MjYsMi41MzIzbC01LjU0NjYsNC4zOTIyYy0wLjUxOTQsLTAuNDYzNSAtMC45Njc5LC0wLjc2NzYgLTEuMzQ2LC0wLjkxMThjLTAuNjIyNywtMC4yNDA0IC0xLjI4MTUsLTAuMzMyMiAtMS45NzEyLC0wLjI3ODRjLTAuNjk0NiwwLjA1NjIgLTEuMzg3NCwwLjI2OTMgLTIuMDg1NSwwLjYzNzNjLTEuNTc1LDAuODI5OSAtMi41MDY3LDIuMDAyNCAtMi43ODQ3LDMuNTExMmMtMC4yMTcyLDEuMTI3OCAwLjExNzMsMi41Mzg5IDEuMDExMyw0LjIzNTRjMS4xMDc1LDIuMTAxNiAyLjI0NzcsMy4zMzYgMy40MTQ4LDMuNzE3NGMxLjE3MjEsMC4zNzg4IDIuNDQyMiwwLjIwNDggMy44MTIyLC0wLjUxNzFjMS4zMzM2LC0wLjcwMjkgMi4xNzY1LC0xLjU0NjkgMi41MjY5LC0yLjUzNjdjMC4zNTI5LC0wLjk4NTEgMC4zNjU1LC0yLjE1NzMgMC4wNDM5LC0zLjUxOTF6IiBzdHJva2Utd2lkdGg9IjAuMjE2IiBzdHJva2U9IiMwMDAwMDAiIGZpbGwtcnVsZT0iZXZlbm9kZCIgc3Ryb2tlLW1pdGVybGltaXQ9IjEwLjQzMyIgZmlsbD0iIzAwMDAwMCIvPiYjeGE7ICAgIDxwYXRoIGlkPSJzdmdfMiIgZD0ibTgyLjc1MDc3LDMzOC4yMzM5NmwtMy40NjMsLTIwLjYwNjFsMTIuODE4MSwtMi4xNTRjMi4zNzU2LC0wLjM5OTQgNC4yMjM0LC0wLjUzNzIgNS41MzI0LC0wLjQwNjljMS4zMTQsMC4xMjQ0IDIuNDMzMSwwLjU3NzggMy4zNTc1LDEuMzY0N2MwLjkyMzgsMC43ODE5IDEuNDkzNSwxLjgzMDkgMS43MTM2LDMuMTQwNWMwLjE5MjgsMS4xNDY2IDAuMDYyNSwyLjE3OTggLTAuMzgzMywzLjEwODJjLTAuNDUxNiwwLjkyOTQgLTEuMTUwMSwxLjczNzQgLTIuMDg4NCwyLjQyNzljLTAuNjA2MSwwLjQzNzMgLTEuNDU4MiwwLjg2MTUgLTIuNTY0MiwxLjI2NDdjMC45NTgxLDAuMTAwMSAxLjY2NzQsMC4yNDI3IDIuMTMyOSwwLjQyNTdjMC4zMDY1LDAuMTIxNCAwLjc3OTQsMC40MTA4IDEuNDA5OSwwLjg3MzJjMC42MzM2LDAuNDY0NiAxLjAzMDIsMC44NTk1IDEuMjkzMywxLjA5OTZsNS42MDk1LDUuMTI2OGwtNy4xNDMsMS4yMzk0bC03LjA0ODQsLTUuMzg3NWMtMC43NzU3LC0wLjU5MzEgLTEuNzYzNywtMC45NjA5IC0yLjIxNjksLTEuMTMyYy0wLjYwMTUsLTAuMjI3MyAtMS4yNjE4LC0wLjI3NjUgLTEuOTYzMSwtMC4xNTg2bC0wLjY3NzgsMC4xMTRsMS40MDUyLDguMzYyNGwtNy43MjQzLDEuMjk4em01LjY2NDQsLTEzLjU1NjJsMy4yNDQ5LC0wLjU0NTNjMC4zNDgsLTAuMDU4NSAxLjAxMDMsLTAuMjYzNyAxLjk4NzEsLTAuNjIwMWMwLjQ5NTYsLTAuMTcyMSAwLjg3NjUsLTAuNDU4MiAxLjE0MjksLTAuODU4MWMwLjI2MDgsLTAuMzk5IDAuMzU2MiwtMC44MjQ1IDAuMjgwNSwtMS4yNzU0Yy0wLjExMjEsLTAuNjY2OSAtMC40NTI2LC0xLjEzMjYgLTEuMDIyMywtMS40MDE5Yy0wLjU3MDUsLTAuMjc0MSAtMS41NTY0LC0wLjI5MDggLTIuOTU4OSwtMC4wNTUybC0zLjM3ODIsMC41Njc4bDAuNzA0LDQuMTg4MnoiIHN0cm9rZS13aWR0aD0iMC4yMTYiIHN0cm9rZT0iIzAwMDAwMCIgZmlsbC1ydWxlPSJldmVub2RkIiBzdHJva2UtbWl0ZXJsaW1pdD0iMTAuNDMzIiBmaWxsPSIjMDAwMDAwIi8+JiN4YTsgICAgPHBhdGggaWQ9InN2Z18zIiBkPSJtMTMxLjU2MjU3LDMzMi41MTUzNmwtMTAuOTY0MiwtMS42MTcybC0yLjYyMzgsMy44MTcxbC03LjE3NTIsLTAuNDc5bDE0LjQ4NTcsLTE5LjU2NTJsNi4xMDM2LDAuODc2M2w4LjI1NjUsMjIuOTE2OGwtNi44MzUyLC0xLjU3MzhsLTEuMjQ3NCwtNC4zNzV6bS0xLjM3ODMsLTQuMzA2OWwtMi44NDk2LC03LjQ0NjlsLTQuNDYwNyw2LjM3NzRsNy4zMTAzLDEuMDY5NXoiIHN0cm9rZS13aWR0aD0iMC4yMTYiIHN0cm9rZT0iIzAwMDAwMCIgZmlsbC1ydWxlPSJldmVub2RkIiBzdHJva2UtbWl0ZXJsaW1pdD0iMTAuNDMzIiBmaWxsPSIjMDAwMDAwIi8+JiN4YTsgICAgPHBhdGggaWQ9InN2Z180IiBkPSJtMTYwLjc3NTc3LDMzNy43MjcxNmw1Ljc1MDQsNC4xOTk2Yy0xLjAzNDksMS4zMzQgLTIuMjE3MywyLjMxODkgLTMuNTQ5LDIuOTU5MWMtMS4zMzE2LDAuNjQwNiAtMi43ODg3LDAuOTQwOCAtNC4zNjU3LDAuOTAyOWMtMS41NzkyLC0wLjAzMzMgLTMuNDI3LC0wLjQ4MDUgLTUuNTQxMywtMS4zMjk5Yy0yLjU3MTUsLTEuMDMzMiAtNC41NDg2LC0yLjE5MjQgLTUuOTIyMSwtMy40NjkyYy0xLjM3NzUsLTEuMjgzMyAtMi4zNDMzLC0yLjk1MzkgLTIuODkyMywtNS4wMWMtMC41NDMyLC0yLjA1NDEgLTAuMzI2NCwtNC4zMTI2IDAuNjYzMiwtNi43NzU5YzEuMzIwMSwtMy4yODU3IDMuMzc2MywtNS4zOTU0IDYuMTY1MSwtNi4zMTk4YzIuNzkwNywtMC45MjkgNi4wOTE0LC0wLjYyODEgOS44OTU5LDAuOTAwNmMyLjk3OTEsMS4xOTY5IDUuMTE2OCwyLjY0MDcgNi40MTcxLDQuMzM4NmMxLjMwMDMsMS42OTc3IDEuOTQzLDMuNzU5NCAxLjkyNzcsNi4xODQ4bC02LjkzNzgsLTEuMzg2N2MwLjAxNzQsLTAuNjk2MSAtMC4wNDEsLTEuMjM0OCAtMC4xNzU2LC0xLjYxNjRjLTAuMjE5OSwtMC42MzAzIC0wLjU3NjEsLTEuMTkyMSAtMS4wNjM1LC0xLjY4M2MtMC40OTIzLC0wLjQ5MzEgLTEuMTAyOSwtMC44ODM1IC0xLjgzNTIsLTEuMTc3NmMtMS42NTIsLTAuNjYzOCAtMy4xNDg4LC0wLjYxNTQgLTQuNDc4OSwwLjE0ODljLTEuMDAwNSwwLjU2NDEgLTEuODYsMS43MzIyIC0yLjU3NDksMy41MTE2Yy0wLjg4NTYsMi4yMDQzIC0xLjA4ODksMy44NzI0IC0wLjYyNDcsNS4wMDkxYzAuNDY5OSwxLjEzODUgMS40MjQyLDEuOTk0MyAyLjg2MTIsMi41NzE4YzEuMzk4OCwwLjU2MTggMi41ODc4LDAuNjU4NCAzLjU2OTEsMC4yODUxYzAuOTc5NSwtMC4zNjg1IDEuODgxNCwtMS4xMTcxIDIuNzExMywtMi4yNDM2eiIgc3Ryb2tlLXdpZHRoPSIwLjIxNiIgc3Ryb2tlPSIjMDAwMDAwIiBmaWxsLXJ1bGU9ImV2ZW5vZGQiIHN0cm9rZS1taXRlcmxpbWl0PSIxMC40MzMiIGZpbGw9IiMwMDAwMDAiLz4mI3hhOyAgIDwvZz4mI3hhOyAgIDxwYXRoIGlkPSJzdmdfNiIgZD0ibTg0LjM1MzY3LDI1MS45MzgzNmMtNi4wMjQ5LDAuNzI5MiAtMTMuODAyOSwyLjgzOTggLTE3LjgzOTcsNy4wMDQ4Yy0xLjg5MTcsMS45NTE3IC0xLjExNTQsNS41Nzk4IDMuNjA2OSw2LjU4ODhjNC41ODgxLDAuOTgwNSA2NC40OTk1LC0yLjgyOTMgODMuMDI1NiwtMjEuOTU4OWM2LjYzNDksLTYuODUwOSAtMTEuODk1MSwtNS45MjIzIC0xNS4xODY4LC0zLjQ4OTRjNi4wODYxLC0wLjM2ODIgMTEuNTE2MywwLjE0NzUgNy40NDg5LDQuNTM1MWMtMTAuMDg0MSwxMC44Nzc2IC01My40MzExLDE3LjA1NzggLTY0LjYyMTksMTUuMjY2N2MtNy45MTgxLC0xLjI2NzIgLTAuOTExOCwtNS44ODU1IDMuNTY3LC03Ljk0NzF6IiBmaWxsLXJ1bGU9ImV2ZW5vZGQiIGZpbGw9IiMwMDAwMDAiLz4mI3hhOyAgIDxwYXRoIGlkPSJzdmdfNyIgZD0ibTE2Mi45NjE4NywyNjAuNjA3NTZsMjQuMDU5MywwbDAsLTU0Ljc5ODdsLTI0LjA1OTMsMGwwLDU0Ljc5ODd6bTI0LjA1OTMsLTYxLjE2NTdsMCwtMy40OTYzbDcuNTU4NSwwbDAsNzQuOTY5M2wtNy41NTg1LDBsMCwtMy45NDAybC0yNC4wNTkzLDBsMCwzLjk0MDJsLTcuNTU4NiwwbDAsLTc0Ljk2OTNsNy41NTg2LDBsMCwzLjQ5NjNsMjQuMDU5Mywwem0tOC4xMTYsMzQuOTcwNmw0LjUxMzgsMGwyLjc0ODEsMTAuNTY5MWwtNS4xMDU1LDBsLTIuMTU2NCwtOC4yOTM3bDAsMTAuNzk0OGw2Ljg0MjYsMGwwLDYuMzY3MWwtMjEuNDA3LDBsMCwtNi4zNjcxbDcuMDA1OCwwbDAsLTE2LjU2MjZsLTcuMDA1OCwwbDAsLTYuMzY3bDcuMDA1OCwwbDAsLTYuNDQxNGwtNy4wMDU4LDBsMCwtNi4zNjdsMjEuNDA3LDBsMCw2LjM2N2wtNi44NDI2LDBsMCw2LjQ0MTRsNi44NDI2LDBsMCw2LjM2N2wtNi44NDI2LDBsMCwzLjQ5MjR6IiBmaWxsLXJ1bGU9ImV2ZW5vZGQiIGZpbGw9IiMwMDAwMDAiLz4mI3hhOyAgIDxwYXRoIGlkPSJzdmdfOCIgZD0ibTMxLjQ5Mzg3LDI0Ni4yODI1Nmw4LjI1NDcsMGwwLC0zMC4xODQ2bC04LjI1NDcsMGwwLDMwLjE4NDZ6bTAsLTM2LjU1MTdsOC4yNTQ3LDBsMCwtMTMuNzQ3N2w3LjU1ODUsMGwwLDEzLjc0NzdsOC4zNDU3LDBsMCwtMi43MTE5bDcuNTU4NSwwbDAsNDkuMjg1OGwtNy41NTg1LDBsMCwtMy42NTUybC04LjM0NTcsMGwwLDE4LjI4OTNsLTcuNTU4NSwwbDAsLTE4LjI4OTNsLTguMjU0NywwbDAsMy42NTUybC03LjU1ODUsMGwwLC00OS4yODU4bDcuNTU4NSwwbDAsMi43MTE5em0xNS44MTMyLDYuMzY3MWwwLDMwLjE4NDZsOC4zNDU3LDBsMCwtMzAuMTg0NmwtOC4zNDU3LDB6IiBmaWxsLXJ1bGU9ImV2ZW5vZGQiIGZpbGw9IiMwMDAwMDAiLz4mI3hhOyAgIDxwYXRoIGlkPSJzdmdfOSIgZD0ibTIxNC41NjA0NywyMDcuNzA0NTZsLTg5Ljk0NSwtMTk3LjQ1NDdjLTcuMTg2NiwtMTMuODA1NCAtMjMuMTk0NiwtMTMuNTI1NCAtMjkuMzUzOCwtMC4wMDQ0bC04OS45NDQ3LDE5Ny40NTQzYy03LjEwNDEsMTQuNDExOSAtNi43MDAxLDM5LjM1NDcgLTEuMDk0OSw1MS42NTk4bDMxLjAwODMsNjguMDcyM2MtMS40ODkyLDAuOTc3NiAtMi45NzAzLDEuOTg2MyAtNC40NDE5LDMuMDI1MWMwLjQwOCwwLjkyOTYgMC44MTk2LDEuODYzOCAxLjIzNDQsMi44MDI1Yy00LjcxNTUsMy4zNjggLTkuMzYzMiw3LjA0NyAtMTMuOTMxMiwxMS4wMzM5YzEwLjg4MDIsMTAuODQxIDE0LjczNTIsMjMuMzUzNiAxNy43MjgsMzguMjM0MmM1LjExMDIsLTYuMjUwMSAxMC45MjcsLTExLjU0ODggMTcuMjQzNCwtMTUuOTQ3Nmw0Mi4xOTg2LDkyLjYzOGM2LjE1OTIsMTMuNTIwOCAyMi4xNjcyLDEzLjgwMTEgMjkuMzUzOCwtMC4wMDQ0bDQyLjIwMDcsLTkyLjY0MjVjLTAuMDAzMywtMC4wMDIzIC0wLjAwNjYsLTAuMDA0MyAtMC4wMDk3LC0wLjAwNjZjNi43NzM1LDQuNTkzIDEyLjc0NzYsMTAuMDY0OCAxNy41OTQsMTYuMzQ3N2MyLjcyNDcsLTE0LjMzNzMgNi45OTAzLC0yNy41MTk2IDE3LjQxMTIsLTM4LjM5MzFjLTQuNTM3LC00LjA4IC05LjE0NzcsLTcuODI1IC0xMy44MTg1LC0xMS4yNDA0YzAuMzczNiwtMC44NzY2IDAuNzQ4LC0xLjc1MjcgMS4xMjE2LC0yLjYyOTNjLTEuNDkyOSwtMS4wNzggLTIuOTk1NywtMi4xMjI4IC00LjUwNzgsLTMuMTM0M2wzMS4wNDMyLC02OC4xNDgyYzYuMjE1LC0xNi4wMTI2IDUuNTQ0MiwtMzcuMDk5MiAtMS4wODk3LC01MS42NjIzem0tMTY5LjQ1NzcsMTEzLjc1MzdsLTI4LjIyNjgsLTYxLjk2MzRjLTYuMzU4NCwtMTUuNjc1IC02LjEwNSwtMzYuMTIzNiAxLjA2MjIsLTUxLjg1NzZsNjYuOTAyMSwtMTQ2Ljg2NjdsMjAuOTk4MiwzMi45ODI5bDAsMjMuMDcxNGMwLDEuMTQwMiAtMC41ODE3LDEuNzEgLTEuNTMxOCwxLjk5ODJjLTguNzA4MiwyLjY0MTEgLTE0Ljk0MDQsOS45NzAxIC0xNC45NDA0LDE4LjQ3MjdjMCw0LjI5NzMgMS41OTc2LDguMjc4OSA0LjI5ODEsMTEuNTE1NmMtMi43MDAzLDMuMjM2NiAtNC4yOTgxLDcuMjE2OCAtNC4yOTgxLDExLjUxMzRjMCw0LjI5NzMgMS41OTc4LDguMjc3NCA0LjI5ODEsMTEuNTE0M2MtMi43MDAzLDMuMjM2NyAtNC4yOTgxLDcuMjE4IC00LjI5ODEsMTEuNTE0N2MwLDguNTk2MyA2LjM4ODQsMTUuOTI5MiAxNS4yMjU1LDE4LjU2MDRjMC43ODk4LDAuMjIzNCAxLjI0NjcsMC41NjI3IDEuMjQ2NywxLjQ1MTdsMCwxMS4zODVjLTIwLjIxOSwyLjAyNjYgLTM2LjE4ODYsMTguODQ0NyAtMzYuODc5NSwzOS40MTk3YzIuMDYwNSwtMC45NTc5IDQuMjMwMywtMS43ODQ5IDYuMzUwNSwtMi40MzQ3YzEuOTE0NywtMTcuNDA2IDE2LjczNTIsLTMxLjAyNDYgMzQuNjM2NiwtMzEuMDI0NmMxMi4yODA3LDAgMjMuMTEyNSw2LjQwODYgMjkuMzIxMywxNi4wNTI3YzEuOTMxOSwtMC41OTAxIDQuMTcyNSwtMC45OTA2IDYuNDY1NiwtMS4xOTczYy02LjQyNjksLTExLjQ0NDcgLTE4LjE4MzQsLTE5LjUyNDEgLTMxLjg2NTcsLTIwLjgzMjdsMCwtMTQuODgxOWMwLC0yLjQyNjkgLTEuNzYwNiwtMy45MDk2IC00LjA2OTcsLTQuMTQ2M2MtNi45MjIzLC0wLjg1MDIgLTEyLjI3NzgsLTYuMDcyNSAtMTIuMjc3OCwtMTIuMzUxOGMwLC0yLjQwMjUgMC43ODU0LC00LjY1IDIuMTQxMSwtNi41NTcyYzMuNDk5NywxLjk3ODYgNy42NjQ3LDMuMTI4OSAxMi4xMjc0LDMuMTI4OWM0LjQ2MjgsMCA4LjYyNzgsLTEuMTUwMyAxMi4xMjc1LC0zLjEyODljNi4wMzg1LC0zLjAxMzcgNS4xMTY2LC03LjM0NTcgMCwtOS45MTVjLTMuNDk5OSwtMS45NzgyIC03LjY2NDcsLTMuMTI4MSAtMTIuMTI3NSwtMy4xMjgxYy00LjQ2MjcsMCAtOC42Mjc1LDEuMTQ5OSAtMTIuMTI3NCwzLjEyODFjLTEuMzU1OSwtMS45MDczIC0yLjE0MTEsLTQuMTU0MSAtMi4xNDExLC02LjU1NjhjMCwtMi40MDI0IDAuNzg1MiwtNC42NDkxIDIuMTQxMSwtNi41NTYzYzMuNTAwMywxLjk3ODIgNy42NjQ3LDMuMTI4MSAxMi4xMjc0LDMuMTI4MWM0LjQ2MjgsMCA4LjYyNzIsLTEuMTQ5OSAxMi4xMjc1LC0zLjEyODFjNS44MDMzLC0zLjA0OTcgNS41Mjk0LC03LjA1NTUgLTAuMDAwMywtOS45MTQ5Yy0zLjQ5OTYsLTEuOTc4NiAtNy42NjQ0LC0zLjEyOTEgLTEyLjEyNzIsLTMuMTI5MWMtNC40NjI3LDAgLTguNjI3NSwxLjE1MDUgLTEyLjEyNzEsMy4xMjkxYy0xLjM1NjIsLTEuOTA3MiAtMi4xNDE0LC00LjE1NTEgLTIuMTQxNCwtNi41NTc4YzAsLTYuMzMyMyA1LjQ4MTksLTExLjMyODMgMTIuNDU1NywtMTIuMzcyMWMxLjU3ODMsLTAuMjM2MiAzLjg5MTgsLTEuNjEyNiAzLjg5MTgsLTQuNTk0OWwwLC0yNi43ODExbDIxLjA0MzksLTMzLjA1NDlsNjcuMTAzLDE0Ny4zMTI1YzcuODY0MywxNi43ODc3IDcuNDc2LDM3LjQ0MDUgMS4wMzg4LDUxLjU3MTdsLTI4LjI4NCw2Mi4wOTA4Yy0xOS40MzQyLC0xMC45MjEyIC00MC4xMTk0LC0xNi42NTA5IC02MC45MDE3LC0xNy4yNTg1bDAsLTcuODI1NmMyMC43NjE0LC0xLjk4NTIgMzcuMDkyMywtMTkuNTU3OSAzNy4wOTIzLC00MC44MjRjMCwtMi4xNzE0IC0wLjE3MjEsLTQuMzA0MyAtMC41LC02LjM4NjFjLTEuODI2NSwxLjA3OSAtMy43NzM5LDIuMTAxNSAtNS44MjQ2LDMuMDY3N2MwLjEwNCwxLjA5MjYgMC4xNTk3LDIuMTk5MyAwLjE1OTcsMy4zMTg0YzAsMTkuMTkzNCAtMTUuNjU1LDM0Ljg0ODMgLTM0Ljg0ODYsMzQuODQ4M2MtMTAuOTgxNiwwIC0yMC44MDMyLC01LjEyNjkgLTI3LjE5ODgsLTEzLjEwN2MyLjY3OTgsLTQuMDU0NCA1LjQ5NTgsLTcuODk0MyA4LjQ1MTgsLTExLjQ5ODhjLTEuNjQ5NSwwLjIwODMgLTMuMjU0NSwwLjM5NTkgLTQuODA5MywwLjU2NmMtMS41MjU5LDMuMjM0MiAtMi44NzE2LDYuNzQ0NyAtMy45MzQ2LDEwLjU2NDhjLTIuMjY1NywtMi45MDYgLTQuMDgxNywtNi4xNzggLTUuMzQzMSwtOS43MDk1Yy0yLjQwMzksMC4xNzY1IC00LjU0NzEsMC4yOTUgLTYuMzczMSwwLjM2MzdjNC43NzI2LDE1LjQ4OTYgMTguNTA1MywyNy4xMTU4IDM1LjA5OTUsMjguNzc5NGwwLDcuODYyMmMtMjAuNjcwMiwwLjcwNjYgLTQxLjI5NTksNi40NzI3IC02MC43MzIxLDE3LjIzNDFsLTAuMDAzNiwtMC4wMDQ4em00MS45MzY4LC0yNjUuNTE1OGwxOC40NzU4LC00MC41NTkzYzIuMzczMywtNS4yMTAxIDYuMjYzNCwtNS4yMTA5IDguODQ3NywwbDE4LjQ3NTIsNDAuNTU5M2wtMjMuMDUwOSwwbDAsMC4wMDMzbDAsLTAuMDAzM2wtMjIuNzQ3OCwwem03MS40NTI5LDMwMS4wNzA2Yy0xMy40MjgxLC04LjQzNDYgLTI4Ljk0NTksLTEyLjc5NDEgLTQ0LjYyMDksLTEzLjQ0NzZsMCwzNi4zMzIybDI4Ljg2MTcsMGwtNC4yLDkuMjM0MWwtNTcuMzU0NiwwbC00LjE5OTgsLTkuMjM0MWwyOC44NjkzLDBsMCwtMzYuMzMzNGMtMTUuNDM2NCwwLjY1MTQgLTMwLjg0MDcsNS4wNDIxIC00NC42NDI0LDEzLjI0NzFsNDQuMzA5Niw5Ny4yNzIyYzIuMzcxNiw1LjIwNjIgNi4yNjM0LDUuMjIyMSA4Ljg0NzcsLTAuMDA3Mmw0NC4xOTU2LC05Ny4wMjE3bC0wLjA2NjIsLTAuMDQxNnptLTk3LjU4MDYsLTAuMDI2OWMtMC4wNjU2LDAuMDM5MyAtMC4xMzEsMC4wNzg2IC0wLjE5NjUsMC4xMTgxYzAuMDY1NSwtMC4wMzk1IDAuMTMwOSwtMC4wNzg4IDAuMTk2NSwtMC4xMTgxem0xOC4zNTgxLC0xMTEuOTc1NmMxNS4zMDQ1LC0xLjExODcgMzEuMjgwMywtMy4wNDI5IDQ1LjUxMDgsLTYuMzA5OGMtOS42MjgxLDQuNTc0MSAtMTguMzEzNiwxMC45NDYxIC0yNi4xMzAzLDE4LjgyNjNjLTIuOTA0OSwwLjMwNTcgLTUuNDcyNywwLjQyOTQgLTcuNDg5NSwwLjMxOTRjMi43OTkyLC00LjMwMjQgNS44MTE2LC04LjAwMSA4LjY0OTMsLTExLjIyNDljLTcuNTE4LC0wLjA0NDkgLTEzLjgyNzgsLTAuNjI2NiAtMjAuNTQwMywtMS42MTF6bTguNzI2MywzMy4yOTRjMi4wNTM3LC00LjQ2MjcgNC4wNTU2LC04LjgyMTQgNi40ODkzLC0xMi45MzY2YzIuOTA4MiwtMC40MDA5IDUuOTI0LC0wLjg2MiA4Ljk5NjgsLTEuMzg3YzEuNjMzLDMuOTYzNCA1LjgxNTIsNi42MDc3IDExLjA5NTQsNS43MzE2YzEwLjIzNzgsLTEuNjk4NSAxNS4xNTYsLTYuMzg4NiAxNi43Njk5LC0xMi4zMjdjMi43MDM2LC0wLjg2NzYgNS4zMzYxLC0xLjgwMTUgNy44NjQxLC0yLjgwNDJjLTAuNDU1NywxMS45NzA3IC05LjAxMjEsMjMuNzIzMiAtMjQuNzY4MiwyMy43MjMybC0yNi40NDczLDB6bTEyLjIwOTcsLTIwLjk1NWMxLjkwMTIsLTIuMTc5MiA0LjA2MzUsLTQuMjQzMiA2LjU4NTMsLTYuMTYzNWMtMS44MDU5LDEuODQzNyAtMi45NTQ5LDMuODEwNSAtMy41NTEzLDUuNzUwOGMtMS4wMzg0LDAuMTU0OCAtMi4wNTIsMC4yOTI5IC0zLjAzNCwwLjQxMjd6bTMxLjY0NzEsLTcuMzE1M2MtMC4yNTMyLC0yLjYyNDQgLTAuODk5NSwtNS4zMzgzIC0xLjgxNzEsLTguMDM1MWMtMy4yOTQ4LC05LjY4MzggLTE3LjM3MTQsLTExLjY0NjkgLTI4LjM0NjIsLTEwLjk1MDZjMjEuODY0LC01LjQ0NTMgMzMuNzc5Myw0LjI2NTggMzYuNzc5LDE2LjI3MmMtMS43MzI5LDAuODgyIC0zLjk5NzEsMS44MDEzIC02LjYxNTcsMi43MTM3em0tMzYuODc1OCwtMjAuNzMxYzIuMTQ0MywwIDMuODkzMiwxLjc0OSAzLjg5MzIsMy44OTMzYzAsMi4xNDQzIC0xLjc0ODksMy44OTMyIC0zLjg5MzIsMy44OTMyYy0yLjE0NDMsMCAtMy44OTMzLC0xLjc0ODkgLTMuODkzMywtMy44OTMyYzAsLTIuMTQ0MyAxLjc0OSwtMy44OTMzIDMuODkzMywtMy44OTMzem05MC43MDg4LDEwOS4zODc2Yy0zLjgyODMsOC45ODE1IC03LjY1NjIsMTcuOTYzNyAtMTEuNDgzNiwyNi45NDU4YzIuMzU5OCwxLjk0NDUgNC42MDAzLDQuMDIwNSA2LjcwMzIsNi4yMjY0YzMuMjI2NSwtMTEuNzAzNyA2LjA1MiwtMTguMDQ3MiAxMi43NDA5LC0yNi40ODA4Yy0yLjU1NjMsLTIuMzgwNyAtNS4yMTU3LC00LjYwNzkgLTcuOTYwNSwtNi42OTE0em0tMTM5LjQ3MSwyNi4zNzA0Yy0zLjg0OTIsLTguNzUxNSAtOC4wMTMyLC0xNy45MjMyIC0xMS45OTMxLC0yNi44NDk1Yy0yLjg5MTksMS45NiAtNS42ODAxLDQuMDM2NCAtOC4zNTAyLDYuMjI2NmM4LjI5NjYsOS45NTc1IDkuNjI5LDE0Ljk2NjggMTMuMTE2NCwyNi44NDc4YzIuMzAwNiwtMi4yMTQ4IDQuNzE0NCwtNC4yODk0IDcuMjI2OSwtNi4yMjQ5em0tOC41NTYsLTMyLjUxMTdjNDUuNTY5MywtMzAuMDU0MSA5OC4yMTU3LC0yOS43NzIxIDE0NC41ODUxLC0wLjAxNTZjLTQuNjA0LDEwLjgwMjEgLTYuNzA3MywxNS4wNjM2IC0xMS4zMTE1LDI1Ljg2NTZjLTMzLjQ2ODksLTI1LjAyNzggLTg0LjgwNTIsLTI5LjE1OTYgLTEyMS42Mzg1LDBjLTQuNjYzMiwtMTAuNjI1IC02Ljk3MTksLTE1LjIyNSAtMTEuNjM1MSwtMjUuODV6bTU2LjIwNjUsODQuNDc2OGwzMS45ODAxLDBsLTQuMiw5LjIzNDFsLTIzLjU4MDIsMGwtNC4xOTk5LC05LjIzNDF6bS04LjQ4NzEsLTE4LjY2MDZsNDguOTU0OCwwbC00LjIsOS4yMzQxbC00MC41NTUsMGwtNC4xOTk4LC05LjIzNDF6bTIwLjQ2LC0zMTUuNTc1MWwwLC0yMC4zODI3bC0xMi45ODA1LDBsMTIuOTgwNSwyMC4zODI3em04LjAyODgsLTIwLjM4MjdsMCwyMC4xNzM2bDEyLjg0MzMsLTIwLjE3MzZsLTEyLjg0MzMsMHptMy4zOTc0LDg2LjQwMjljLTEuNjg3OCwtMC42MTcgLTMuNTM3NywtMC45NTg3IC01LjQ3NjQsLTAuOTU4N2MtMS45Mzg2LDAgLTMuNzg4NSwwLjM0MTcgLTUuNDc2MywwLjk1ODdjMS42ODgsMC42MTY5IDMuNTM3NywwLjk1ODQgNS40NzYzLDAuOTU4NGMxLjkzODcsMCAzLjc4ODQsLTAuMzQxNSA1LjQ3NjQsLTAuOTU4NHptMCwyMy4wMjg2Yy0xLjY4NzgsMC42MTcxIC0zLjUzNzcsMC45NTg4IC01LjQ3NjQsMC45NTg4Yy0xLjkzODYsMCAtMy43ODg1LC0wLjM0MTcgLTUuNDc2MywtMC45NTg4YzEuNjg3NiwtMC42MTY5IDMuNTM3NywtMC45NTg0IDUuNDc2MywtMC45NTg0YzEuOTM4NywwIDMuNzg4OCwwLjM0MTUgNS40NzY0LDAuOTU4NHoiIGZpbGwtcnVsZT0iZXZlbm9kZCIgZmlsbD0iIzAwMDAwMCIvPiYjeGE7ICA8L2c+JiN4YTsgPC9nPiYjeGE7PC9zdmc+;" parent="1" vertex="1">
          <mxGeometry x="63.83" y="40" width="112.34" height="240" as="geometry" />
        </mxCell>
      </root>
    </mxGraphModel>
  </diagram>
</mxfile>
